<?xml version="1.0" encoding="UTF-8" standalone="no"?>
<svg
   version="1.1"
   x="0px"
   y="0px"
   viewBox="0 0 399.99998 399.99998"
   xml:space="preserve"
   id="svg150"
   sodipodi:docname="elevator.svg"
   inkscape:version="1.1 (c4e8f9e, 2021-05-24)"
   width="133.33333"
   height="133.33333"
   xmlns:inkscape="http://www.inkscape.org/namespaces/inkscape"
   xmlns:sodipodi="http://sodipodi.sourceforge.net/DTD/sodipodi-0.dtd"
   xmlns="http://www.w3.org/2000/svg"
   xmlns:svg="http://www.w3.org/2000/svg"><defs
     id="defs154" /><sodipodi:namedview
     id="namedview152"
     pagecolor="#505050"
     bordercolor="#ffffff"
     borderopacity="1"
     inkscape:pageshadow="0"
     inkscape:pageopacity="0"
     inkscape:pagecheckerboard="1"
     showgrid="false"
     inkscape:zoom="5.9087881"
     inkscape:cx="82.673468"
     inkscape:cy="41.717523"
     inkscape:window-width="1312"
     inkscape:window-height="997"
     inkscape:window-x="0"
     inkscape:window-y="25"
     inkscape:window-maximized="0"
     inkscape:current-layer="svg150"
     height="499px"
     width="399px"
     scale-x="3"
     fit-margin-top="0"
     fit-margin-left="0"
     fit-margin-right="0"
     fit-margin-bottom="0" /><g
     id="g144"><polygon
       points="84,120.002 88,120.002 88,81.5 198,81.5 198,215.002 202,215.002 202,81.5 312.001,81.5 312.001,255.169 316,255.169 316,77.5 84,77.5 "
       id="polygon130"
       style="fill:#2360a5;fill-opacity:1" /><path
       d="m 269.25,51.252 h -138.5 v 19 h 138.5 z M 147,64.418 c -2.024,0 -3.666,-1.641 -3.666,-3.666 0,-2.025 1.642,-3.666 3.666,-3.666 2.025,0 3.667,1.641 3.667,3.666 0,2.025 -1.642,3.666 -3.667,3.666 z m 26.5,0 c -2.024,0 -3.666,-1.641 -3.666,-3.666 0,-2.025 1.642,-3.666 3.666,-3.666 2.025,0 3.667,1.641 3.667,3.666 0,2.025 -1.642,3.666 -3.667,3.666 z m 26.5,0 c -2.024,0 -3.666,-1.641 -3.666,-3.666 0,-2.025 1.642,-3.666 3.666,-3.666 2.025,0 3.667,1.641 3.667,3.666 0,2.025 -1.642,3.666 -3.667,3.666 z m 26.5,0 c -2.024,0 -3.666,-1.641 -3.666,-3.666 0,-2.025 1.642,-3.666 3.666,-3.666 2.025,0 3.667,1.641 3.667,3.666 0,2.025 -1.642,3.666 -3.667,3.666 z m 26.5,0 c -2.024,0 -3.666,-1.641 -3.666,-3.666 0,-2.025 1.642,-3.666 3.666,-3.666 2.025,0 3.667,1.641 3.667,3.666 0,2.025 -1.642,3.666 -3.667,3.666 z"
       id="path132"
       style="fill:#2360a5;fill-opacity:1" /><path
       d="m 363.676,148.461 h -37.332 v 115.333 h 37.332 z m -22.333,89.749 h -6 v -6 h 6 z m 0,-11.634 h -6 v -6 h 6 z m 0,-11.633 h -6 v -6 h 6 z m 0,-11.632 h -6 v -6 h 6 z m 0,-11.633 h -6 v -6 h 6 z m 0,-11.634 h -6 v -6 h 6 z m 13.333,58.166 h -6 v -6 h 6 z m 0,-11.634 h -6 v -6 h 6 z m 0,-11.633 h -6 v -6 h 6 z m 0,-11.632 h -6 v -6 h 6 z m 0,-11.633 h -6 v -6 h 6 z m 0,-11.634 h -6 v -6 h 6 z"
       id="path134"
       style="fill:#2360a5;fill-opacity:1" /><path
       d="M 400,0 H 0 V 400 H 400 Z M 373.686,373.685 H 322.93 26.316 V 26.316 h 347.37 z"
       id="path136"
       style="fill:#2360a5;fill-opacity:1" /><path
       d="m 300.938,270.717 c -4.34,0 -8.541,0.582 -12.541,1.653 l -19.061,-56.563 7.854,-3.729 c 0.789,-0.372 1.33,-1.048 1.572,-1.819 1.291,1.451 3.168,2.369 5.262,2.369 3.895,0 7.051,-3.156 7.051,-7.052 0,-3.89 -3.156,-7.046 -7.051,-7.046 -3.893,0 -7.051,3.156 -7.051,7.046 0,0.347 0.035,0.687 0.082,1.019 -0.758,-0.314 -1.641,-0.33 -2.441,0.051 l -10.27,4.875 c -1.379,0.65 -2.049,2.229 -1.561,3.676 l 4.41,13.086 -83.478,25.986 -2.581,-7.164 h 5.948 c 1.66,0 3.006,-1.346 3.006,-3.004 v -5.514 c 0,-1.66 -1.346,-3.011 -3.006,-3.011 h -16.111 c 0.217,0.341 0.394,0.621 0.52,0.822 l 0.028,0.04 0.033,0.06 c 1.695,2.724 2.225,5.941 1.496,9.063 -0.124,0.531 -0.294,1.042 -0.483,1.543 h 2.175 l 3.226,8.955 -4.857,1.514 c -0.641,0.195 -1.209,0.617 -1.59,1.173 l -12.891,18.806 c -7.242,-4.336 -15.713,-6.834 -24.767,-6.834 -3.818,0 -7.529,0.457 -11.092,1.295 v 8.639 c 3.524,-1.021 7.243,-1.579 11.092,-1.579 7.293,0 14.13,1.975 20.021,5.404 l -22.506,32.834 c -0.625,0.918 -0.695,2.121 -0.176,3.101 0.518,0.985 1.548,1.61 2.663,1.61 h 39.81 c -1.545,20.623 -18.805,36.931 -39.812,36.931 -3.877,0 -7.621,-0.565 -11.168,-1.6 -0.268,2.91 -1.303,5.598 -2.896,7.868 4.45,1.353 9.171,2.087 14.064,2.087 25.657,0 46.634,-20.016 48.191,-45.285 h 21.798 c 0.088,0 0.172,-0.024 0.258,-0.031 0.127,-0.012 0.254,-0.02 0.379,-0.047 0.096,-0.021 0.186,-0.055 0.277,-0.086 0.125,-0.039 0.246,-0.082 0.365,-0.139 0.082,-0.039 0.158,-0.084 0.236,-0.129 0.115,-0.068 0.227,-0.145 0.334,-0.229 0.076,-0.06 0.148,-0.121 0.219,-0.189 0.037,-0.035 0.08,-0.063 0.117,-0.102 l 68.082,-72.24 8.58,25.463 c -17.623,7.199 -30.049,24.504 -30.049,44.717 0,26.674 21.621,48.297 48.289,48.297 7.924,0 15.395,-1.92 21.992,-5.303 15.612,-8.002 26.305,-24.244 26.305,-42.994 0,-18.747 -10.692,-34.988 -26.305,-42.99 -6.597,-3.384 -14.068,-5.304 -21.991,-5.304 z m -161.373,45.285 19.273,-28.121 c 8.379,6.736 13.984,16.773 14.834,28.121 z m 42.487,0 c -0.875,-14.227 -7.91,-26.779 -18.47,-35.041 l 12.308,-17.957 4.119,-1.281 19.557,54.279 z m 22.966,-2.619 -19.261,-53.449 83.357,-25.951 2.826,8.386 z m 135.863,5.627 c 0,13.903 -7.145,26.164 -17.951,33.32 -6.313,4.18 -13.871,6.622 -21.992,6.622 -22.022,0 -39.938,-17.918 -39.938,-39.942 0,-16.502 10.06,-30.699 24.373,-36.777 l 12.715,37.738 c 0.422,1.256 1.594,2.051 2.85,2.051 0.32,0 0.643,-0.053 0.961,-0.16 1.574,-0.529 2.422,-2.236 1.891,-3.809 v -0.002 l -12.719,-37.742 c 3.158,-0.805 6.463,-1.236 9.867,-1.236 8.121,0 15.68,2.442 21.992,6.622 10.806,7.155 17.951,19.413 17.951,33.315 z"
       id="path138"
       style="fill:#2360a5;fill-opacity:1" /><path
       d="m 89.405,355.845 v -90.271 h 4.635 v 90.271 c 0,6.83 5.537,12.363 12.363,12.363 6.828,0 12.365,-5.533 12.365,-12.363 V 202.321 c 2.433,1.991 5.122,4.533 7.803,7.412 6.94,7.387 14.034,16.808 19.298,24.307 2.635,3.752 4.824,7.028 6.349,9.358 0.761,1.162 1.354,2.087 1.756,2.718 0.401,0.631 0.595,0.941 0.595,0.941 1.516,2.438 4.129,3.777 6.803,3.778 1.441,0 2.9,-0.39 4.215,-1.208 3.752,-2.332 4.904,-7.266 2.57,-11.018 -0.092,-0.144 -8.435,-13.579 -19.208,-27.265 -5.405,-6.855 -11.387,-13.768 -17.524,-19.263 -3.084,-2.749 -6.203,-5.156 -9.521,-7.023 -2.921,-1.617 -6.052,-2.92 -9.652,-3.232 -0.395,-0.063 -0.797,-0.104 -1.21,-0.104 H 72.405 c -0.103,0 -0.204,0.012 -0.307,0.016 -1.797,0.015 -4.825,0.395 -8.273,2.135 -5.378,2.666 -11.177,8.501 -15.235,18.84 -4.107,10.38 -6.865,25.385 -6.878,48.045 0,5.855 0.188,12.225 0.595,19.159 0.25,4.25 3.775,7.532 7.978,7.532 0.158,0 0.317,-0.005 0.478,-0.014 4.41,-0.258 7.777,-4.045 7.518,-8.453 -0.389,-6.653 -0.567,-12.71 -0.567,-18.225 -0.034,-24.219 3.497,-37.822 6.965,-44.921 v 150.007 c 0,6.83 5.537,12.363 12.363,12.363 6.826,0.002 12.363,-5.531 12.363,-12.361 z"
       id="path140"
       style="fill:#2360a5;fill-opacity:1" /><circle
       cx="91.723"
       cy="153.52499"
       id="circle142"
       style="fill:#2360a5;fill-opacity:1"
       r="22.5" /></g><path
     style="fill:#f9f9f9"
     d="M 9.373909,66.658908 V 9.373909 H 66.658908 123.94391 V 66.658908 123.94391 H 66.658908 9.373909 Z m 19.126562,54.886282 c 1.700157,-1.70015 1.704712,-1.74325 1.852773,-17.53268 l 0.148425,-15.828329 0.372347,16.206589 c 0.367259,15.9851 0.394749,16.2247 2.01159,17.53268 2.083311,1.68533 2.948359,1.66657 5.210752,-0.11303 l 1.829551,-1.43912 V 94.262022 68.152743 l 1.739942,1.63459 c 0.956967,0.899025 3.691024,4.403156 6.075681,7.786958 3.967453,5.629768 4.512682,6.135251 6.418831,5.950856 4.516814,-0.436943 2.032974,-6.251289 -6.988863,-16.360018 -5.582395,-6.254927 -7.591916,-7.102675 -16.836336,-7.102675 -6.693303,0 -7.829549,0.179653 -9.881179,1.562318 -4.542928,3.061639 -6.897891,10.769588 -6.908649,22.612465 -0.0059,6.470372 0.700912,8.460307 3.004949,8.460307 2.82265,0 3.235119,-1.207672 3.308293,-9.686372 0.03807,-4.410945 0.319385,-8.801059 0.625149,-9.755809 0.305764,-0.95475 0.587082,9.255756 0.625149,22.690012 l 0.06921,24.425925 1.82955,1.43912 c 2.370393,1.86455 3.413418,1.81419 5.49283,-0.26523 z m 22.882437,-0.28546 c 3.780642,-1.72183 7.810394,-6.36347 8.828106,-10.16858 l 0.833832,-3.11761 h 3.557638 c 3.984435,0 1.931397,1.7708 19.890481,-17.155978 l 6.724238,-7.086557 1.17237,3.529679 1.172371,3.529673 -3.233506,2.763914 c -5.305334,4.534868 -7.292943,9.999779 -5.936809,16.323219 2.604023,12.14215 18.085001,16.89789 27.168471,8.34613 4.87706,-4.59157 6.44698,-13.22011 3.46782,-19.059724 -2.9658,-5.813469 -9.78323,-9.725396 -15.927565,-9.139443 l -2.716142,0.259025 -3.195136,-9.173349 c -3.185552,-9.145827 -3.190566,-9.174884 -1.669743,-9.685115 0.838965,-0.281471 2.20698,-0.433936 3.040028,-0.33881 2.760755,0.31525 3.763083,-4.066136 1.158831,-5.065482 -1.182967,-0.453948 -3.715012,0.701208 -3.715012,1.694844 0,0.363338 -1.127904,1.131883 -2.506452,1.707877 -2.568798,1.073312 -2.709108,1.678064 -1.263436,5.44542 0.310915,0.810236 -0.909894,1.449515 -5.37836,2.816391 -3.179311,0.972536 -9.198682,2.855268 -13.376374,4.183856 -4.177692,1.328589 -7.902561,2.226033 -8.277488,1.99431 -0.374925,-0.231716 0.01764,-0.679997 0.872375,-0.996183 1.185409,-0.438511 1.501822,-1.029068 1.333851,-2.489516 -0.200501,-1.743297 -0.505029,-1.93315 -3.403068,-2.121558 l -3.18286,-0.206921 0.319051,2.290012 c 0.175478,1.259513 0.639527,2.69145 1.031218,3.182094 0.512945,0.642523 0.32062,1.256854 -0.687508,2.196071 -0.769822,0.717195 -2.104244,2.444007 -2.965382,3.837359 -1.12705,1.823607 -1.882921,2.403102 -2.697954,2.068398 -2.907319,-1.193916 -5.920576,-1.765384 -8.277111,-1.569761 -2.162209,0.179486 -2.608529,0.492831 -2.777219,1.949766 -0.194612,1.680818 -0.06898,1.735909 3.958542,1.735909 6.160093,0 6.37718,0.671137 2.213127,6.842 -1.947224,2.88565 -3.540406,5.53979 -3.540406,5.89808 0,1.12222 2.002736,1.49437 8.041971,1.49437 3.214916,0 5.845301,0.29213 5.845301,0.64916 0,1.53812 -1.616526,4.70772 -3.342401,6.55359 -2.485252,2.65804 -5.603416,3.90707 -9.753917,3.90707 -3.353585,0 -4.922026,1.14901 -3.876864,2.84012 0.68879,1.11448 8.148627,0.66724 11.071091,-0.66375 z M 121.51363,68.741999 V 49.299818 l -6.42286,-0.199648 -6.42286,-0.199648 v 19.841477 19.841476 l 6.42286,-0.199644 6.42286,-0.19965 z M 105.89045,55.201908 V 25.344272 H 66.635417 27.380381 l 0.197082,7.40792 c 0.137361,5.16314 0.460093,7.495174 1.065037,7.695863 0.654015,0.21697 0.867954,-1.352258 0.867954,-6.366374 v -6.654318 h 18.053455 18.053454 v 22.219636 c 0,19.287879 0.137426,22.219637 1.041545,22.219637 0.904119,0 1.041546,-2.931758 1.041546,-22.219637 V 27.427363 h 18.053454 18.053452 v 28.816091 c 0,25.151392 0.13246,28.81609 1.04155,28.81609 0.90967,0 1.04154,-3.780421 1.04154,-29.857636 z m -70.665535,2.106626 c 2.73338,-2.150077 3.67351,-5.10641 2.679216,-8.425064 -1.475616,-4.92517 -7.070575,-6.922428 -11.620319,-4.14816 -4.315954,2.631711 -4.55476,9.308808 -0.448451,12.538832 2.361034,1.85719 7.050407,1.874365 9.389554,0.03439 z M 89.92009,20.483727 V 17.011909 H 66.658908 43.397727 v 3.471818 3.471818 H 66.658908 89.92009 Z"
     id="path98"
     transform="scale(3)" /><path
     style="fill:#f9f9f9;stroke-width:0.417006"
     d="m 68.202425,103.58155 c -0.11345,-0.31952 -1.516366,-4.233437 -3.117591,-8.697594 -1.601225,-4.464157 -2.873303,-8.136359 -2.826841,-8.160448 0.07743,-0.04014 21.562034,-6.707368 25.595499,-7.942942 1.737226,-0.532165 1.742742,-0.530389 2.171273,0.698894 0.421805,1.20999 0.231365,1.442793 -10.465651,12.793787 -5.992401,6.358754 -10.952681,11.635143 -11.022845,11.725313 -0.07016,0.0902 -0.220394,-0.0975 -0.333844,-0.41701 z"
     id="path137"
     transform="scale(3)" /><path
     style="fill:#f9f9f9;stroke-width:0.417006"
     d="m 60.688842,103.7647 c -0.5653,-3.01331 -1.966477,-5.970506 -3.78987,-7.998557 -1.019763,-1.134222 -1.854114,-2.166399 -1.854114,-2.293727 0,-0.489905 3.800184,-5.639032 4.28468,-5.805603 0.510017,-0.175346 1.154693,1.401595 5.11795,12.518997 l 1.821074,5.10833 h -2.646397 -2.646398 z"
     id="path176"
     transform="scale(3)" /><path
     style="fill:#f9f9f9;stroke-width:0.417006"
     d="m 96.493762,118.90613 c -3.600636,-1.1799 -6.828369,-4.213 -8.430174,-7.92182 -2.169399,-5.02303 -0.01279,-12.024825 4.703109,-15.26945 1.009549,-0.694588 1.922576,-1.262888 2.028948,-1.262888 0.106372,0 1.177443,2.908621 2.380157,6.463598 1.995638,5.8987 2.27284,6.4636 3.171768,6.4636 1.4341,0 1.29665,-1.05747 -1.02199,-7.862397 l -2.007,-5.8903 1.413129,-0.265105 c 1.903061,-0.357017 4.786691,0.07769 6.994861,1.054462 2.35834,1.04321 5.44316,4.149983 6.57954,6.62636 1.26071,2.74734 1.26071,7.84159 0,10.58893 -1.15961,2.527 -4.23496,5.58924 -6.71487,6.68622 -2.41476,1.06817 -6.77369,1.35028 -9.097478,0.58879 z"
     id="path215"
     transform="scale(3)" /><path
     style="fill:#f9f9f9;stroke-width:0.182415"
     d="m 46.910987,104.99591 c 0.03344,-0.0914 1.415234,-2.14671 3.070648,-4.56736 l 3.009843,-4.401186 1.120901,1.174099 c 1.835211,1.92231 3.239283,4.722467 3.602932,7.185367 l 0.114469,0.77526 h -5.489799 c -3.225098,0 -5.464715,-0.0686 -5.428994,-0.16618 z"
     id="path254"
     transform="scale(3)" /><path
     style="fill:#f9f9f9;stroke-width:0.182415"
     d="m 53.748954,115.51413 c 1.612306,-1.71258 3.113391,-4.32965 3.502037,-6.10564 0.280987,-1.28401 0.243516,-1.29308 -6.266075,-1.51611 -7.666558,-0.26268 -7.562739,-0.50064 0.228018,-0.52264 3.991705,-0.0113 6.612534,0.0489 6.612534,0.15182 0,0.0938 -0.121501,0.74808 -0.270001,1.45403 -0.33679,1.60104 -0.950409,3.12779 -1.772446,4.41002 -0.728224,1.13591 -2.462961,3.08619 -2.7451,3.08619 -0.104814,0 0.21515,-0.43095 0.711033,-0.95767 z"
     id="path293"
     transform="scale(3)" /><path
     style="fill:#f9f9f9;stroke-width:0.182415"
     d="m 57.278224,108.47081 c 0,-0.31654 -1.093256,-0.44108 -5.837271,-0.66497 l -4.651576,-0.21953 5.426838,-0.0264 5.426839,-0.0264 v 0.44527 c 0,0.2449 -0.08209,0.49601 -0.182415,0.55801 -0.100328,0.062 -0.182415,0.0323 -0.182415,-0.066 z"
     id="path332"
     transform="scale(3)" /><path
     style="fill:#f9f9f9;stroke-width:0.182415"
     d=""
     id="path371"
     transform="scale(3)" /><path
     style="fill:#f9f9f9;stroke-width:0.182415"
     d="m 30.947464,104.022 c -0.06679,-3.33591 -0.175021,-8.179023 -0.240522,-10.762471 -0.109049,-4.301042 -0.09358,-4.697179 0.183442,-4.697179 0.278351,0 0.302534,0.860311 0.302534,10.762468 0,5.919362 -0.02791,10.762472 -0.06201,10.762472 -0.03411,0 -0.116656,-2.72938 -0.183442,-6.06529 z"
     id="path410"
     transform="scale(3)" /><path
     style="fill:#f9f9f9;stroke-width:0.182415"
     d=""
     id="path449"
     transform="scale(3)" /><path
     style="fill:#f9f9f9;stroke-width:0.0598352"
     d="m 21.159011,102.36303 c -0.0711,-19.96651 -0.272087,-29.214524 -0.634928,-29.214524 -0.12711,0 -0.310744,1.328303 -0.446691,3.2311 -0.124397,1.741142 -0.204527,3.976996 -0.273413,7.628985 -0.0595,3.154329 -0.103972,4.095896 -0.250121,5.295413 l -0.07655,0.62827 -0.0383,-0.598352 c -0.18497,-2.89005 -0.210142,-7.672788 -0.05306,-10.082228 0.26791,-4.109475 0.864783,-7.321419 1.804079,-9.708258 0.165123,-0.419594 0.311567,-0.762898 0.325429,-0.762898 0.01386,0 0.0252,10.137575 0.0252,22.527945 v 22.527947 h -0.170399 -0.1704 z"
     id="path488"
     transform="scale(3)" /><path
     style="fill:#f9f9f9;stroke-width:0.0598352"
     d="M 21.240441,113.55221 C 21.132702,84.304718 20.956924,73.560829 20.579945,73.181415 c -0.114626,-0.115366 -0.180738,0.0794 -0.294936,0.868891 -0.235028,1.624826 -0.380791,4.254181 -0.477423,8.611993 -0.0802,3.616942 -0.117635,4.745455 -0.186557,5.624507 -0.152171,1.940818 -0.207451,1.228136 -0.266868,-3.440523 -0.05342,-4.197204 0.02608,-6.113111 0.366195,-8.825688 0.319543,-2.548492 0.969288,-5.277637 1.595847,-6.703084 l 0.143975,-0.32755 0.04024,16.000899 c 0.02213,8.800495 0.04024,18.89095 0.04024,22.42323 v 6.42234 H 21.39107 c -0.138418,0 -0.149666,-0.0212 -0.150635,-0.28422 z"
     id="path527"
     transform="scale(3)" /><path
     style="fill:#f9f9f9;stroke-width:0.0598352"
     d="m 21.032065,61.313571 c 0.09967,-0.108301 0.9923,-0.532583 1.397931,-0.664459 1.406755,-0.457354 3.248635,-0.573048 8.385121,-0.526697 3.618056,0.03265 4.671183,0.08705 6.119532,0.316087 0.336559,0.05322 0.61641,0.100804 0.621891,0.105734 0.0055,0.0049 -3.171768,0.009 -7.060552,0.009 -7.06899,0 -7.070634,2.8e-5 -7.619999,0.131104 -0.302217,0.07211 -0.813807,0.2419 -1.136869,0.377316 -0.807213,0.338355 -0.776501,0.327411 -0.707055,0.25195 z"
     id="path566"
     transform="scale(3)" /><path
     style="fill:#f9f9f9;stroke-width:0.0598352"
     d="M 9.3941231,75.990677 V 38.144926 h 9.2321059 9.232106 l 0.104554,0.662002 c 0.11161,0.706674 0.31989,1.365325 0.491823,1.555308 0.137614,0.152062 0.411073,0.148404 0.556266,-0.0074 0.163685,-0.175695 0.293264,-0.693136 0.377339,-1.506804 l 0.07265,-0.703064 H 47.511664 65.56236 l 0.03581,12.90944 c 0.03383,12.195167 0.07516,15.507873 0.221551,17.756089 0.148164,2.275435 0.365688,3.081512 0.831563,3.081512 0.609158,0 0.813667,-1.226777 0.967556,-5.804012 0.03375,-1.003735 0.07691,-7.701536 0.09591,-14.884001 L 67.7493,38.144968 h 13.095966 13.09597 V 52.122084 66.0992 l -0.13436,0.03514 c -0.304274,0.07957 -1.071224,0.511799 -1.345161,0.758093 -0.280412,0.252112 -0.445856,0.532485 -0.521015,0.882947 -0.07368,0.343581 -0.992725,0.948992 -2.449616,1.613666 -0.489476,0.223313 -1.011149,0.477049 -1.159283,0.563859 -1.219836,0.714873 -1.327611,1.572568 -0.491773,3.913669 0.463615,1.298544 0.4568,1.266881 0.322368,1.496931 -0.35499,0.607478 -1.682685,1.160563 -5.978773,2.490605 -2.77217,0.858247 -6.178611,1.92377 -10.142063,3.172406 -3.9459,1.243106 -5.263209,1.63969 -6.813056,2.051112 -2.563664,0.680551 -3.936878,0.898045 -4.097314,0.648948 -0.125901,-0.195477 0.129424,-0.411124 1.012088,-0.854808 0.746707,-0.375343 0.853023,-0.448428 1.023598,-0.703659 0.10469,-0.156647 0.222457,-0.439368 0.261703,-0.628269 0.127312,-0.612787 -0.03176,-1.877152 -0.303077,-2.408979 -0.267562,-0.524465 -0.899525,-0.726549 -2.709194,-0.866325 -1.358819,-0.104952 -3.59525,-0.25307 -3.617125,-0.23956 -0.01971,0.01217 0.330058,2.495356 0.408781,2.902149 0.09683,0.500363 0.396314,1.518919 0.563158,1.915324 0.08185,0.194463 0.256635,0.520388 0.388416,0.724279 0.428664,0.663226 0.321432,1.050513 -0.536534,1.937788 -1.088266,1.125443 -1.980886,2.267346 -3.040236,3.889287 -1.03058,1.577891 -1.51117,2.08972 -2.111841,2.249112 -0.239199,0.06347 -0.308007,0.05444 -0.713492,-0.09367 -3.410661,-1.245797 -5.751677,-1.685302 -8.100012,-1.520706 -2.382375,0.166982 -2.848818,0.544959 -2.945603,2.38694 -0.02985,0.568076 -0.02098,0.647246 0.09253,0.826335 0.269342,0.424944 0.658017,0.477795 4.042123,0.549644 2.917408,0.06194 3.480962,0.116746 4.111866,0.399879 0.961921,0.431684 1.004335,1.155557 0.164155,2.801534 -0.395429,0.774674 -0.94866,1.667193 -2.151158,3.470449 -2.318246,3.47639 -3.590485,5.62573 -3.590717,6.06621 -1.8e-4,0.30752 0.195339,0.56563 0.58288,0.76955 0.932832,0.49086 2.165936,0.60434 7.973443,0.73385 1.497375,0.0334 2.978296,0.0879 3.290935,0.12124 0.861973,0.0918 1.610726,0.2294 1.839959,0.33818 l 0.205846,0.0977 -0.04172,0.33392 c -0.136673,1.0939 -0.904246,2.86129 -1.919106,4.41889 l -0.321635,0.49364 H 47.480556 39.969899 V 91.069142 c 0,-12.522007 0.02158,-22.767286 0.04795,-22.767286 0.02637,0 0.587329,0.531786 1.246565,1.181745 0.892525,0.879966 1.442226,1.487344 2.152591,2.378449 1.350934,1.694656 2.701215,3.500568 4.451511,5.9536 2.960026,4.148465 3.733082,5.064546 4.657713,5.519446 0.387663,0.190723 0.412962,0.194813 1.204755,0.194813 0.671064,0 0.880096,-0.02269 1.227624,-0.133282 0.568116,-0.180783 0.967355,-0.494947 1.195641,-0.940861 0.159561,-0.311675 0.182923,-0.423937 0.200811,-0.964979 0.01577,-0.477056 -0.008,-0.724822 -0.107434,-1.121915 -0.350279,-1.398192 -1.305901,-3.268144 -2.741978,-5.365476 -2.704454,-3.949742 -7.983135,-10.00842 -10.424323,-11.964659 -1.936585,-1.551876 -3.76261,-2.321833 -6.372483,-2.687005 -1.548646,-0.216686 -2.358117,-0.256663 -5.863811,-0.289593 -6.484125,-0.06091 -8.103601,0.133824 -9.851997,1.184642 -2.43526,1.463634 -4.173521,3.860612 -5.422975,7.478022 -1.034212,2.994241 -1.607143,6.28283 -1.938216,11.125243 -0.103192,1.509322 -0.105062,7.126328 -0.0027,8.167502 0.274886,2.796533 0.769617,4.014518 1.824246,4.491133 0.322724,0.145848 0.465827,0.171888 1.061135,0.193091 1.637464,0.05832 2.360666,-0.420884 2.803735,-1.857795 0.364914,-1.183449 0.505824,-3.121189 0.575381,-7.912419 0.0623,-4.291727 0.250404,-7.617771 0.520269,-9.199659 0.0379,-0.222138 0.0878,-0.403888 0.110892,-0.403888 0.139811,0 0.301398,3.581548 0.419779,9.304371 0.07179,3.470434 0.172454,18.391388 0.175298,25.983428 l 0.002,5.22062 H 15.257971 9.3941231 Z M 31.353634,58.667517 c 2.150593,-0.186546 3.620282,-0.867161 4.937961,-2.286778 0.847072,-0.912603 1.505921,-2.07817 1.805422,-3.193964 0.145118,-0.540641 0.159189,-0.692253 0.163196,-1.758439 0.0049,-1.301013 -0.0567,-1.715619 -0.414735,-2.791917 -0.401586,-1.207224 -0.939809,-2.077488 -1.849048,-2.989766 -1.44371,-1.448534 -3.225346,-2.176798 -5.32378,-2.176155 -1.665236,5.09e-4 -3.186093,0.449809 -4.569049,1.349808 -2.592193,1.686947 -3.791348,5.025166 -2.977184,8.287911 0.345992,1.386555 1.004236,2.551282 2.019486,3.573373 1.228356,1.236632 2.628531,1.82165 4.801604,2.006195 0.488948,0.04152 0.734583,0.03798 1.406127,-0.02027 z"
     id="path605"
     transform="scale(3)" /><path
     style="fill:#f9f9f9;stroke-width:0.0598352"
     d=""
     id="path644"
     transform="scale(3)" /><path
     style="fill:#f9f9f9;stroke-width:0.0598352"
     d="m 29.829586,118.80275 c 0.01492,-0.181 0.02736,-7.06729 0.02765,-15.30285 l 5.2e-4,-14.973753 h 0.299176 0.299176 v 1.066336 c 0,1.314729 -0.09748,11.290497 -0.181062,18.529687 -0.08019,6.94534 -0.168225,9.31801 -0.391845,10.56091 -0.06889,0.38289 -0.07676,0.40046 -0.05361,0.11967 z"
     id="path683"
     transform="scale(3)" /><path
     style="fill:#f9f9f9;stroke-width:0.0598352"
     d="m 43.978856,105.3772 c 0,-0.14299 1.322401,-2.25635 3.112249,-4.97377 1.512526,-2.296374 1.808573,-2.783221 2.237691,-3.679864 0.722864,-1.510425 0.577156,-2.282951 -0.502194,-2.662575 -0.645548,-0.227049 -1.186644,-0.271885 -3.959134,-0.328064 -2.507197,-0.0508 -3.52136,-0.119409 -3.52136,-0.238212 0,-0.05869 1.132459,-0.281848 1.824973,-0.359628 0.80358,-0.09026 2.315352,-0.07399 3.150817,0.0339 0.889926,0.114921 2.078476,0.407353 2.892536,0.711682 0.572882,0.214166 1.857777,0.819937 1.966861,0.927287 0.02937,0.0289 -1.509777,2.333249 -3.524422,5.276634 -1.967105,2.87393 -3.599384,5.2509 -3.627286,5.28217 -0.0279,0.0313 -0.05073,0.036 -0.05073,0.0104 z"
     id="path722"
     transform="scale(3)" /><path
     style="fill:#f9f9f9;stroke-width:0.0598352"
     d="m 52.097433,92.057659 c -1.721705,-0.907437 -3.558836,-1.476198 -5.635417,-1.744681 -0.851929,-0.110147 -3.060766,-0.09298 -3.884743,0.03019 -0.758711,0.113413 -0.887397,0.120513 -0.752483,0.04151 0.385997,-0.226021 2.34028,-0.394162 3.541634,-0.304712 1.986821,0.147933 3.659063,0.537213 5.971745,1.390159 0.651037,0.24011 0.85195,0.290633 1.037648,0.26094 0.660521,-0.105622 1.235052,-0.686526 2.25249,-2.277474 0.879109,-1.374645 1.832744,-2.60673 2.839812,-3.669005 0.789195,-0.832457 0.990851,-1.152272 0.990851,-1.571439 0,-0.259187 -0.03532,-0.344859 -0.369845,-0.897095 -0.08823,-0.145654 -0.216322,-0.407669 -0.284643,-0.582256 l -0.124222,-0.31743 0.283488,0.01826 0.283488,0.01825 0.517014,1.436045 0.517013,1.436044 -0.927639,0.302517 c -0.737507,0.240512 -0.959858,0.338624 -1.084834,0.478681 -0.08646,0.09689 -1.096289,1.549382 -2.244072,3.227759 -1.147784,1.678377 -2.103407,3.068777 -2.123608,3.089778 -0.0202,0.021 -0.381856,-0.143718 -0.803677,-0.366041 z"
     id="path761"
     transform="scale(3)" /><path
     style="fill:#f9f9f9;stroke-width:0.0598352"
     d="M 60.852377,83.608418 C 60.638466,83.01014 60.454473,82.498662 60.443503,82.4718 c -0.01097,-0.02686 0.406381,-0.04948 0.927445,-0.05027 1.034922,-0.0016 1.327597,-0.04505 1.585297,-0.235577 0.260208,-0.19238 0.201787,-0.03898 -0.07557,0.198424 -0.134991,0.115547 -0.508184,0.320957 -0.829317,0.456465 -0.856373,0.361364 -1.228634,0.770086 -0.928362,1.01929 0.291013,0.24152 2.986085,-0.341048 6.640343,-1.435377 0.756915,-0.226671 3.166777,-0.976788 5.355248,-1.666927 2.188472,-0.690139 5.298405,-1.663468 6.910963,-2.162953 1.612559,-0.499486 3.403126,-1.057235 3.97904,-1.239443 2.858329,-0.904321 4.174105,-1.561078 4.28054,-2.136593 0.02521,-0.136326 -0.05495,-0.431005 -0.302255,-1.111188 -0.555794,-1.528611 -0.732887,-2.477332 -0.56906,-3.048564 0.15551,-0.542233 0.719241,-1.000221 1.845005,-1.498926 1.903462,-0.843219 2.703976,-1.398321 2.789342,-1.934219 0.07124,-0.447189 0.842496,-1.07909 1.724521,-1.412914 0.289883,-0.109714 0.175799,0.02875 -0.147346,0.178832 -0.410302,0.190563 -0.889645,0.675996 -1.097459,1.111401 -0.126294,0.264608 -0.173423,0.466443 -0.193458,0.828512 l -0.02649,0.478681 -0.367095,0.0034 c -0.345321,0.0032 -0.470022,0.05244 -2.102316,0.830966 -0.954371,0.455188 -1.825586,0.894774 -1.936034,0.976858 -0.237143,0.176244 -0.367621,0.456107 -0.367621,0.788518 0,0.148722 0.283118,1.081695 0.744163,2.452282 l 0.744163,2.212235 -0.759121,0.238155 c -3.946212,1.238024 -26.941162,8.383816 -26.97826,8.383624 -0.02668,-1.38e-4 -0.223524,-0.48975 -0.437434,-1.088027 z"
     id="path800"
     transform="scale(3)" /><path
     style="fill:#f9f9f9;stroke-width:0.0598352"
     d="m 58.45897,114.64626 c 0,-0.0153 0.147166,-0.29131 0.327036,-0.61331 0.976824,-1.74868 1.733325,-4.21185 1.867563,-6.08079 0.02107,-0.29332 0.06716,-0.54017 0.103444,-0.55404 0.03599,-0.0138 1.694459,-0.018 3.685474,-0.009 l 3.620029,0.0155 -0.32483,0.17097 c -0.723558,0.38085 -0.551036,0.36272 -3.772296,0.39641 l -2.960257,0.031 -0.425903,1.58686 c -0.53252,1.9841 -0.680672,2.43513 -1.073727,3.26884 -0.41542,0.88113 -1.046533,1.95943 -1.046533,1.78806 z"
     id="path839"
     transform="scale(3)" /><path
     style="fill:#f9f9f9;stroke-width:0.0598352"
     d="m 57.513445,81.882338 c -0.157302,-0.495902 -0.256561,-1.00318 -0.426929,-2.18188 -0.09989,-0.691096 -0.195562,-1.338138 -0.212605,-1.43787 l -0.03099,-0.181331 1.181992,0.07365 c 1.639611,0.102163 3.627334,0.261168 3.65885,0.292684 0.01444,0.01444 -1.02386,0.02625 -2.307325,0.02625 -1.283464,0 -2.348225,0.01465 -2.366134,0.03256 -0.01791,0.01791 0.08282,0.235032 0.223842,0.482495 0.391011,0.686135 0.527035,1.271586 0.491926,2.11726 -0.01572,0.378694 -0.0552,0.754903 -0.08773,0.836019 -0.05901,0.147153 -0.05929,0.147019 -0.124904,-0.05983 z"
     id="path878"
     transform="scale(3)" /><path
     style="fill:#f9f9f9;stroke-width:0.0598352"
     d="m 57.513899,81.764772 c -0.140558,-0.423867 -0.595352,-3.086831 -0.537128,-3.145056 0.04612,-0.04612 0.52625,0.990581 0.612977,1.323549 0.09497,0.364627 0.118843,1.594402 0.03652,1.881342 -0.04201,0.146421 -0.04439,0.145154 -0.112366,-0.05984 z"
     id="path917"
     transform="scale(3)" /><path
     style="fill:#f9f9f9;stroke-width:0.0598352"
     d="m 38.713361,121.22941 c 0,-0.0227 0.06435,-0.12695 0.142991,-0.23171 0.205225,-0.27337 0.488108,-0.85879 0.614297,-1.27127 0.104096,-0.34027 0.109975,-1.44876 0.139418,-26.285613 l 0.03074,-25.930365 0.508599,0.446875 c 2.053504,1.804285 4.704732,4.893471 7.464733,8.697835 1.615447,2.226721 3.896816,5.615371 3.827291,5.684897 -0.09598,0.09598 -1.368051,-1.54818 -3.338449,-4.314986 -2.329445,-3.270975 -4.307635,-5.875654 -5.632215,-7.415927 -0.256427,-0.298184 -0.930755,-0.979354 -1.498507,-1.513712 l -1.032276,-0.971561 -0.01503,26.10769 -0.01503,26.107687 -0.523489,0.40934 c -0.69601,0.54425 -0.673078,0.52787 -0.673078,0.48082 z"
     id="path956"
     transform="scale(3)" /><path
     style="fill:#f9f9f9;stroke-width:0.0598352"
     d="m 9.3941231,66.417048 v -37.84575 h 9.0237689 9.023769 l 0.0733,2.85713 c 0.04032,1.571421 0.09931,3.328331 0.131087,3.904245 0.190837,3.458166 0.490938,4.997232 0.999284,5.124819 0.436678,0.1096 0.650127,-0.45685 0.792504,-2.103142 0.03725,-0.430689 0.08304,-2.787428 0.102596,-5.280455 l 0.03533,-4.502597 h 18.001797 18.001798 l 0.0018,13.687297 c 0.0019,13.954084 0.06458,22.996048 0.175818,25.355157 0.136837,2.902065 0.324463,4.006769 0.716123,4.216379 0.574301,0.307357 0.85522,-0.509167 1.018309,-2.95984 0.160929,-2.418221 0.191841,-5.532315 0.223472,-22.512986 l 0.03313,-17.786007 h 17.993838 17.993833 l 0.0382,22.572821 c 0.021,12.415052 0.0648,23.878724 0.0973,25.474827 0.14259,6.995131 0.35711,8.643062 1.09983,8.448837 0.17037,-0.04455 0.37663,-0.563224 0.4807,-1.20878 0.3825,-2.372582 0.45455,-7.847837 0.45567,-34.62961 l 8.8e-4,-20.658095 h 3.59011 3.59011 v 10.235848 c 0,9.719702 -0.005,10.234369 -0.10471,10.206535 -0.0576,-0.01612 -0.88556,-0.04566 -1.83994,-0.06564 -0.95437,-0.01998 -1.9035,-0.05213 -2.10919,-0.07144 l -0.37397,-0.03512 v 19.880706 19.880709 l 1.63051,-0.0393 c 0.89678,-0.02161 1.89304,-0.05581 2.2139,-0.076 l 0.5834,-0.0367 v 3.849024 3.849029 l -0.70958,-0.744852 c -1.60738,-1.687292 -3.49292,-3.035594 -5.55598,-3.972936 -2.92367,-1.328353 -5.30905,-1.684008 -8.902192,-1.327294 -0.822477,0.08165 -1.501857,0.142019 -1.509732,0.134138 -0.03483,-0.03483 -4.105429,-11.758445 -4.718339,-13.589143 -1.040228,-3.107069 -1.274166,-4.190961 -1.013392,-4.695243 0.137525,-0.265944 0.689732,-0.494509 1.753458,-0.725778 0.155033,-0.03371 0.901171,-0.0809 1.658086,-0.104876 1.34981,-0.04275 1.382391,-0.0468 1.69829,-0.210764 0.914713,-0.474772 1.443057,-1.412106 1.443057,-2.560115 0,-1.142681 -0.556317,-2.010212 -1.508684,-2.352681 -0.413616,-0.148733 -1.230839,-0.09891 -1.834361,0.111838 -1.023714,0.357473 -1.722493,0.908737 -1.892287,1.492816 -0.06912,0.237744 -0.158994,0.386968 -0.316223,0.525018 -0.354464,0.311221 -0.892885,0.638953 -1.628666,0.991358 -0.378458,0.181263 -0.958165,0.459775 -1.288234,0.618917 -0.671165,0.323596 -1.104988,0.669416 -1.302139,1.037991 -0.111413,0.208281 -0.131888,0.340833 -0.13062,0.845364 0.0018,0.706561 0.08023,1.037362 0.579229,2.442735 0.402553,1.133716 0.405024,1.2031 0.05476,1.536298 -0.606789,0.577222 -1.728902,1.002021 -6.798521,2.573715 -1.711286,0.530536 -5.198181,1.621005 -7.748656,2.423262 -6.564656,2.064928 -8.016609,2.490865 -9.978033,2.927098 -1.627156,0.361889 -2.179382,0.409864 -2.31037,0.200713 -0.120113,-0.191786 0.133973,-0.412355 0.950233,-0.82489 1.211374,-0.612223 1.379576,-0.854775 1.369296,-1.974561 -0.0075,-0.819652 -0.138658,-1.479329 -0.367712,-1.849815 -0.307454,-0.497295 -0.835744,-0.660136 -2.61773,-0.806894 -1.439197,-0.118527 -3.610747,-0.244867 -3.64238,-0.211912 -0.01396,0.01455 0.06662,0.67267 0.179073,1.462494 0.293473,2.061213 0.601042,3.132742 1.159308,4.038875 0.447436,0.726242 0.323231,1.080315 -0.788935,2.249026 -1.049757,1.103129 -1.877527,2.17942 -2.947396,3.832292 -0.816805,1.261912 -1.389482,1.862239 -1.910227,2.002463 -0.28174,0.07586 -0.408413,0.04525 -1.593154,-0.385028 -2.620038,-0.951559 -5.093863,-1.373145 -7.225098,-1.231306 -2.388745,0.158976 -2.868736,0.535626 -2.985977,2.343104 -0.0833,1.28429 0.115926,1.355721 3.868546,1.387021 2.51619,0.02098 2.460792,0.01331 -0.612914,-0.08486 -2.00439,-0.06402 -2.517026,-0.101708 -2.46776,-0.181421 0.0154,-0.02492 0.34462,-0.108852 0.731602,-0.186524 0.642189,-0.128891 0.852455,-0.141103 2.408907,-0.13993 1.622362,0.0012 1.74168,0.0091 2.453243,0.162003 0.908697,0.195267 1.684345,0.416752 2.243819,0.640721 0.761357,0.304789 1.765138,0.798034 1.765138,0.867365 0,0.125385 -1.397747,2.212334 -4.803601,7.172169 -0.854186,1.24393 -1.566879,2.24787 -1.583762,2.23099 -0.03649,-0.0365 0.340027,-0.63478 2.130711,-3.38572 1.675588,-2.574116 2.022751,-3.134358 2.366973,-3.819746 0.529229,-1.053758 0.69398,-1.825739 0.490921,-2.300316 -0.233402,-0.545499 -0.967175,-0.857911 -2.131518,-0.907532 l -0.628269,-0.02677 0.52382,0.0555 c 2.268471,0.240346 2.717214,0.941446 1.817532,2.839652 -0.35645,0.752062 -0.953815,1.725138 -2.443124,3.979722 -0.706516,1.06955 -1.511164,2.31376 -1.788105,2.76492 l -0.50353,0.82027 -2.288696,0.002 -2.288696,0.002 V 86.245504 68.228223 L 40.872,69.08404 c 1.89746,1.800121 3.44684,3.746978 7.472736,9.389797 2.470529,3.462769 3.35975,4.487694 4.250386,4.899046 0.630355,0.291137 1.943985,0.23716 2.67815,-0.110045 0.733885,-0.347072 1.03849,-0.831774 1.079783,-1.718201 0.08129,-1.745092 -1.240604,-4.430559 -4.015111,-8.15679 -2.828532,-3.798789 -7.158886,-8.654603 -9.152643,-10.263257 -2.550079,-2.057522 -4.898751,-2.816214 -9.348507,-3.019852 -1.639808,-0.07504 -6.432675,-0.0747 -7.958079,5.98e-4 -2.428206,0.119821 -3.58956,0.382469 -4.773391,1.079536 -2.292374,1.349802 -3.952546,3.475934 -5.206843,6.668247 -1.570861,3.998 -2.374643,9.546525 -2.375022,16.394839 -2.99e-4,5.38852 0.495585,7.548235 1.890833,8.235113 0.342215,0.168472 0.464062,0.195003 1.006268,0.219123 2.073885,0.09223 2.826943,-0.675976 3.172975,-3.23682 0.153123,-1.133194 0.209664,-2.284022 0.269566,-5.486674 0.07016,-3.750952 0.102141,-4.736548 0.217474,-6.70154 0.129007,-2.197989 0.324692,-3.949122 0.441305,-3.949122 0.145356,0 0.301149,3.398059 0.422466,9.214617 0.04786,2.294579 0.164496,16.208851 0.175676,20.957265 l 0.0018,0.7629 H 15.257969 9.3941219 V 66.417075 Z m 22.7081619,-7.83965 c 1.347557,-0.210252 2.465154,-0.691413 3.395388,-1.461823 1.196082,-0.990581 2.047019,-2.221508 2.486799,-3.59729 0.254669,-0.796692 0.332691,-1.46882 0.291222,-2.508795 -0.08746,-2.193321 -0.933354,-4.111771 -2.436483,-5.525806 -1.413777,-1.32998 -3.18011,-2.013427 -5.2036,-2.013427 -2.95275,0 -5.639898,1.554217 -6.8977,3.989554 -0.596502,1.154938 -0.84309,2.221434 -0.841482,3.639432 0.0012,1.073918 0.115315,1.764841 0.44651,2.703856 0.492453,1.396218 1.449757,2.721642 2.560437,3.545023 1.511976,1.120874 3.881741,1.590811 6.198909,1.229276 z"
     id="path995"
     transform="scale(3)" /><path
     style="fill:#f9f9f9;stroke-width:0.0598352"
     d="m 9.3941231,66.417048 v -37.84575 h 9.0240719 9.024072 l 0.07345,2.827212 c 0.115243,4.435768 0.245387,6.385917 0.514113,7.703779 0.152707,0.748895 0.270165,1.074992 0.453091,1.257918 0.254541,0.254541 0.578874,0.06833 0.71794,-0.412191 0.241641,-0.834956 0.352273,-3.447776 0.355671,-8.399918 l 0.002,-2.9768 h 18.002233 18.002232 l 0.03553,17.486831 c 0.03951,19.446459 0.08113,22.145663 0.375257,24.33704 0.156402,1.165269 0.447293,1.658004 0.847105,1.434892 0.816688,-0.455749 0.911668,-3.634387 0.912223,-30.528829 l 2.63e-4,-12.729934 h 18.00048 18.000475 l 0.0404,22.393315 c 0.0222,12.316324 0.0667,23.779996 0.0988,25.474828 0.1073,5.656271 0.26934,7.75487 0.64898,8.404907 0.0851,0.145744 0.14604,0.181441 0.30965,0.181441 0.16173,0 0.22987,-0.03885 0.33078,-0.188584 0.33782,-0.501294 0.49783,-2.214048 0.63363,-6.782214 0.041,-1.378528 0.0755,-10.90608 0.0935,-25.833839 l 0.0286,-23.649854 h 3.5849 3.58491 v 10.23657 10.236569 l -0.16455,-0.03129 c -0.0905,-0.01721 -0.90501,-0.04682 -1.81001,-0.06578 -0.90501,-0.01897 -1.82722,-0.05015 -2.04936,-0.06929 l -0.40389,-0.0348 v 19.879809 19.87981 l 1.63051,-0.0393 c 0.89678,-0.02161 1.89304,-0.05581 2.2139,-0.076 l 0.5834,-0.0367 -7.8e-4,3.852117 -7.8e-4,3.852117 -0.54794,-0.58894 c -1.84748,-1.985678 -4.20243,-3.58527 -6.69782,-4.549472 -2.47359,-0.955777 -4.60775,-1.2205 -7.591762,-0.941698 -0.74046,0.06918 -1.457884,0.140637 -1.594272,0.158785 l -0.247975,0.033 -0.149444,-0.436527 c -0.08223,-0.240089 -1.091568,-3.142568 -2.243012,-6.449958 -3.059576,-8.788322 -3.424241,-9.943433 -3.424241,-10.846596 0,-0.538317 0.09613,-0.71374 0.4927,-0.899168 0.755958,-0.353466 1.42388,-0.467257 3.009028,-0.512639 l 1.317738,-0.03773 0.398622,-0.196293 c 0.468808,-0.230857 0.855266,-0.630238 1.117344,-1.154699 0.245193,-0.490679 0.326562,-0.935908 0.29196,-1.597614 -0.02538,-0.48549 -0.05632,-0.610418 -0.24639,-0.994995 -0.25741,-0.520844 -0.56102,-0.815946 -1.097999,-1.067226 -0.363349,-0.170032 -0.418613,-0.178991 -0.934823,-0.151529 -1.317529,0.07009 -2.703646,0.862969 -2.941994,1.68286 -0.07708,0.265137 -0.155081,0.384628 -0.37227,0.570274 -0.408184,0.348905 -1.12419,0.755798 -2.189412,1.244195 -1.081371,0.495803 -1.542909,0.787192 -1.819677,1.14883 -0.496961,0.649362 -0.411451,1.545185 0.347505,3.640539 0.227906,0.629217 0.297303,0.893609 0.266625,1.015834 -0.09259,0.368927 -0.740921,0.796027 -1.917173,1.262985 -0.901315,0.357811 -1.873948,0.675667 -5.804012,1.896756 -1.974561,0.613504 -5.461456,1.703968 -7.748656,2.423253 -6.015733,1.891844 -7.583211,2.345567 -9.633463,2.78851 -1.148533,0.248133 -1.80711,0.317439 -1.943197,0.204497 -0.256653,-0.213004 0.01296,-0.481027 0.921916,-0.916469 0.726921,-0.348237 1.090546,-0.655245 1.242516,-1.049055 0.197711,-0.512337 0.08476,-2.112744 -0.185643,-2.630354 -0.306502,-0.586715 -0.898362,-0.789281 -2.73546,-0.936222 -1.542229,-0.123356 -3.57463,-0.241783 -3.60415,-0.210012 -0.03641,0.03919 0.352185,2.708579 0.46554,3.197916 0.222002,0.958354 0.546569,1.795293 0.931769,2.40269 0.378303,0.596522 0.212316,1.035662 -0.790894,2.092415 -1.093711,1.152087 -1.726503,1.96316 -2.81849,3.612561 -0.381284,0.575914 -0.815341,1.201108 -0.964571,1.389325 -0.457453,0.576961 -1.008027,0.94256 -1.421481,0.943912 -0.05604,0 -0.419542,-0.117576 -0.807775,-0.261689 -1.91924,-0.712433 -3.476585,-1.112617 -5.159442,-1.32581 -1.468547,-0.186039 -3.787945,-0.06119 -4.516209,0.243099 -0.668284,0.279226 -0.945489,0.831954 -1.0315,2.05675 -0.0853,1.214738 0.127631,1.293565 3.628824,1.343312 2.48081,0.03526 2.3492,0.0049 -0.359011,-0.08282 -2.012803,-0.06519 -2.606732,-0.110468 -2.481589,-0.189175 0.03377,-0.02124 0.356883,-0.0988 0.718022,-0.172349 0.905244,-0.184358 3.216767,-0.234476 4.195371,-0.09096 0.815617,0.119611 1.918598,0.387236 2.622496,0.636312 0.731831,0.258966 2.066087,0.896271 2.066087,0.986861 0,0.08072 -1.049281,1.681602 -2.391116,3.648103 -2.516895,3.688595 -3.968743,5.776705 -3.996908,5.748545 -0.0383,-0.0383 0.28347,-0.55162 1.953156,-3.1158 1.876979,-2.882521 2.19169,-3.392861 2.582912,-4.18846 0.67449,-1.371661 0.715169,-2.11862 0.141148,-2.591772 -0.373504,-0.307876 -1.336869,-0.560285 -2.058809,-0.539426 -0.18027,0.0052 -0.209933,0.01484 -0.08975,0.02913 1.872439,0.222629 2.483159,0.562595 2.483159,1.382277 0,0.886949 -0.553391,1.926543 -3.039848,5.710631 -0.785014,1.1947 -1.586733,2.43447 -1.781597,2.75504 l -0.354297,0.58286 -2.288696,6e-4 -2.288696,5.9e-4 V 86.245686 68.228448 l 0.822734,0.778175 c 1.046313,0.989646 1.405799,1.368308 2.148294,2.262886 1.301127,1.567634 2.739916,3.47647 4.956811,6.576184 2.992535,4.184233 3.824467,5.151363 4.787137,5.565106 0.362905,0.155971 1.274963,0.186569 1.883821,0.0632 0.830321,-0.168245 1.333299,-0.508886 1.627427,-1.102174 0.122599,-0.247294 0.137235,-0.360046 0.133147,-1.025773 -0.0054,-0.875865 -0.118412,-1.321734 -0.641659,-2.531012 C 54.42547,75.897983 50.97304,71.255292 46.24709,66.119677 42.436726,61.979017 40.2419,60.736698 35.884652,60.254313 c -2.426286,-0.268611 -9.493224,-0.283738 -11.681327,-0.025 -1.68362,0.19908 -2.827695,0.66145 -4.188463,1.692737 -3.498524,2.651432 -5.622288,8.268311 -6.280921,16.611627 -0.220899,2.798268 -0.267307,7.59879 -0.09197,9.513793 0.19611,2.141908 0.558333,3.35311 1.199713,4.01159 0.459424,0.471669 0.968423,0.655883 1.810398,0.655207 0.929805,-7.78e-4 1.711617,-0.266272 2.077017,-0.705415 0.420605,-0.505493 0.713382,-1.378351 0.867129,-2.585172 0.152054,-1.193536 0.206316,-2.332019 0.268075,-5.624507 0.09978,-5.319567 0.273446,-8.52927 0.546248,-10.095814 0.125039,-0.718031 0.184289,-0.45938 0.290952,1.270125 0.204566,3.316979 0.312134,9.660527 0.396466,23.380596 l 0.03632,5.90872 H 15.264207 9.3941231 Z M 32.131491,58.567335 c 1.64572,-0.265156 2.807386,-0.851438 3.94894,-1.992992 1.558029,-1.558029 2.282157,-3.361376 2.196786,-5.470814 -0.08926,-2.205571 -0.834214,-3.99518 -2.256439,-5.420677 -1.093294,-1.095809 -2.408591,-1.800478 -3.919205,-2.09971 -0.632874,-0.125363 -2.379037,-0.110154 -3.021676,0.02632 -1.61309,0.342562 -2.985254,1.057155 -4.041285,2.104615 -1.067926,1.059256 -1.735127,2.345083 -2.033631,3.919204 -0.141353,0.745411 -0.143465,2.090217 -0.0045,2.872088 0.33024,1.858198 1.348299,3.60479 2.752422,4.722084 1.51714,1.207225 3.98477,1.725573 6.378598,1.339882 z"
     id="path1034"
     transform="scale(3)" /><path
     style="fill:#f9f9f9"
     d="m 9.3941231,66.417048 v -37.84575 h 9.0263749 9.026376 l 0.04099,1.750179 c 0.146955,6.27402 0.353414,8.724186 0.821308,9.746946 0.246698,0.539251 0.63806,0.527115 0.843485,-0.02616 0.278678,-0.750561 0.400705,-3.369665 0.404117,-8.673675 l 0.0018,-2.797294 h 18.010389 18.010389 l 0.0024,11.593066 c 0.0027,13.018003 0.08098,25.260067 0.17486,27.329718 0.131254,2.893611 0.334303,4.131468 0.710742,4.332933 0.433081,0.231777 0.701787,-0.216293 0.876062,-1.460845 0.283466,-2.024309 0.328513,-4.98974 0.370166,-24.367876 L 67.75101,28.571298 H 85.752607 103.7542 l 5e-5,9.468917 c 0,24.14296 0.0868,39.534933 0.24074,42.753302 0.14389,3.008228 0.34391,4.136577 0.7514,4.238851 0.54124,0.135841 0.75798,-0.73718 0.92264,-3.71636 0.16046,-2.903106 0.18917,-6.698808 0.22076,-29.184609 l 0.0331,-23.560101 h 3.5828 3.5828 v 10.237075 10.237075 l -0.22438,-0.03246 c -0.12341,-0.01785 -0.93792,-0.04768 -1.81002,-0.06628 -0.8721,-0.0186 -1.76738,-0.04948 -1.98952,-0.06863 l -0.40389,-0.03481 v 19.880181 19.88018 l 1.57068,-0.03996 c 0.86387,-0.02198 1.86012,-0.05671 2.2139,-0.07717 l 0.64323,-0.03722 v 3.840425 3.840419 L 112.176,95.212465 c -1.70695,-1.71663 -3.48093,-2.948606 -5.57963,-3.87489 -2.80283,-1.237063 -5.12252,-1.569549 -8.616175,-1.234981 -0.855595,0.08194 -1.563146,0.141457 -1.572337,0.132272 -0.01985,-0.01985 -2.038411,-5.80348 -3.540908,-10.145479 -1.886155,-5.450731 -2.276489,-6.74525 -2.276489,-7.549875 0,-0.643402 0.09967,-0.772109 0.80285,-1.036787 0.670459,-0.252361 1.299578,-0.341543 2.697507,-0.382395 1.261972,-0.03688 1.330639,-0.0451 1.661516,-0.19904 1.139417,-0.530088 1.766095,-2.098856 1.361591,-3.408485 -0.206539,-0.668695 -0.56421,-1.09614 -1.198134,-1.431847 -0.23651,-0.125247 -0.345673,-0.142043 -0.897527,-0.138083 -0.521584,0.0037 -0.709556,0.03243 -1.106951,0.168948 -1.057234,0.36319 -1.77011,0.940759 -1.939354,1.571257 -0.117929,0.43934 -0.81085,0.929005 -2.311983,1.633813 -1.698314,0.797383 -2.091084,1.091397 -2.272044,1.700752 -0.187954,0.632912 -0.08471,1.249978 0.488596,2.92017 0.279419,0.814013 0.379146,1.181941 0.350892,1.294511 -0.09014,0.359137 -0.81468,0.830084 -1.97501,1.283737 -0.824475,0.322343 -2.266951,0.795777 -5.056073,1.659442 -1.398647,0.433098 -4.804764,1.496448 -7.56915,2.362999 -5.566534,1.744939 -6.424198,2.00767 -7.68882,2.355343 -2.857549,0.785601 -4.563436,1.104765 -4.774847,0.893354 -0.216821,-0.216821 0.0312,-0.45699 0.945395,-0.915479 0.70168,-0.351905 0.948514,-0.532928 1.132415,-0.830486 0.177196,-0.286709 0.244702,-0.886776 0.178687,-1.588369 -0.156394,-1.662144 -0.527877,-1.963283 -2.657393,-2.154198 -0.862006,-0.07728 -3.379514,-0.243169 -3.694822,-0.243467 -0.209404,-1.79e-4 -0.224382,0.01176 -0.224382,0.179055 0,0.316101 0.358197,2.645181 0.487756,3.171504 0.19908,0.808743 0.455368,1.485705 0.77311,2.042106 0.503546,0.881762 0.419208,1.143934 -0.775647,2.411146 -0.936755,0.993483 -1.610322,1.862717 -2.669513,3.444991 -0.933166,1.39401 -1.312944,1.862137 -1.740431,2.145289 -0.470364,0.311556 -0.644868,0.304274 -1.670423,-0.0697 -1.623497,-0.592009 -2.874002,-0.933076 -4.342965,-1.184521 -0.682381,-0.116805 -1.021421,-0.137765 -2.268264,-0.14023 -3.131013,-0.0062 -3.721462,0.320004 -3.9051,2.157423 -0.140201,1.402806 0.01919,1.473621 3.483615,1.547673 0.936465,0.02002 1.690388,0.02465 1.675385,0.01029 -0.015,-0.01436 -0.897592,-0.05659 -1.961309,-0.09384 -2.519851,-0.08825 -2.82666,-0.131284 -2.092616,-0.293527 0.825957,-0.182564 1.562622,-0.248699 2.770108,-0.248699 1.696927,0 2.901139,0.192938 4.359067,0.698402 0.762275,0.264286 2.13305,0.912624 2.13305,1.008881 0,0.17795 -6.315593,9.468235 -6.387607,9.396225 -0.03891,-0.0389 0.245041,-0.49169 2.141965,-3.41539 1.800199,-2.774627 2.209388,-3.452338 2.538037,-4.203575 0.314231,-0.718279 0.413366,-1.123286 0.378339,-1.545662 -0.06008,-0.724473 -0.792066,-1.160222 -2.091463,-1.245033 l -0.498476,-0.03254 0.568435,0.08689 c 1.782317,0.272441 2.255381,0.816768 1.824737,2.09964 -0.305147,0.909016 -0.840099,1.826361 -2.840058,4.87019 -0.746,1.13538 -1.543001,2.36687 -1.771113,2.73665 l -0.414748,0.67233 -2.288696,8.3e-4 -2.288696,8.4e-4 V 86.246144 68.229448 l 0.816099,0.769206 c 1.126374,1.061654 1.621537,1.601499 2.708758,2.95319 1.197022,1.488201 2.635462,3.414007 4.580994,6.133106 3.452715,4.825556 4.11754,5.476172 5.594018,5.474467 0.903662,-10e-4 1.631342,-0.220857 2.086826,-0.630376 0.383615,-0.344904 0.543551,-0.691634 0.587159,-1.272925 0.143416,-1.911755 -1.444502,-4.975163 -4.867728,-9.390856 -2.132975,-2.75137 -5.590973,-6.668048 -7.224785,-8.183105 -2.86578,-2.657477 -5.088876,-3.587443 -9.367331,-3.918544 -1.288221,-0.09969 -6.943903,-0.143149 -8.629929,-0.06631 -2.664391,0.12143 -3.791351,0.347942 -4.982685,1.001489 -3.992931,2.190461 -6.446098,7.376218 -7.356096,15.550073 -0.372218,3.343363 -0.498177,8.65909 -0.269388,11.368684 0.204636,2.423534 0.690956,3.785311 1.548285,4.335459 0.957552,0.61446 2.898519,0.420331 3.543451,-0.354409 0.453619,-0.544919 0.752819,-1.562752 0.915218,-3.11344 0.09602,-0.916858 0.172159,-3.007028 0.272452,-7.479397 0.07941,-3.5409 0.234984,-6.112141 0.452379,-7.476447 0.135587,-0.850902 0.170375,-0.835265 0.259671,0.11672 0.230033,2.452361 0.38017,10.153117 0.458753,23.530184 L 21.1353,104.2628 H 15.264712 9.3941231 Z M 32.52042,58.50111 c 1.432522,-0.315 2.471834,-0.866522 3.473426,-1.84321 1.058378,-1.032065 1.742745,-2.184168 2.10521,-3.544034 0.13872,-0.520437 0.154449,-0.689817 0.156522,-1.68553 0.0025,-1.1926 -0.09379,-1.843391 -0.414207,-2.800067 -0.857567,-2.560422 -2.987545,-4.452298 -5.650045,-5.018447 -0.710207,-0.151018 -2.393739,-0.148598 -3.111429,0.0045 -3.282142,0.700019 -5.529224,2.944644 -6.075238,6.068594 -0.104626,0.598603 -0.122011,2.084514 -0.03104,2.652722 0.255228,1.594117 0.955697,3.037876 2.03417,4.192695 1.017606,1.089642 2.229137,1.721335 3.874699,2.020268 0.873804,0.158736 2.815401,0.133405 3.63793,-0.04746 z"
     id="path1073"
     transform="scale(3)" /><path
     style="fill:#f9f9f9;stroke-width:0.0598352"
     d="m 65.719545,64.876292 c -0.02551,-0.04114 -0.0573,-8.226589 -0.07064,-18.189894 l -0.02427,-18.1151 h 0.186785 0.186784 v 18.189894 c 0,17.965645 -0.0014,18.189894 -0.116139,18.189894 -0.06388,0 -0.13701,-0.03366 -0.162518,-0.07479 z"
     id="path1297"
     transform="scale(3)" /><path
     style="fill:#f9f9f9;stroke-width:0.0598352"
     d=""
     id="path1373"
     transform="scale(3)" /><path
     style="fill:#f9f9f9;stroke-width:0.0598352"
     d="M 60.076074,88.469404 C 59.944557,88.20783 59.755776,87.90136 59.65656,87.788359 c -0.239098,-0.272317 -0.228513,-0.365721 0.05093,-0.449445 0.127228,-0.03812 0.245863,-0.06931 0.263633,-0.06931 0.01777,0 0.07228,0.114435 0.121138,0.2543 0.04886,0.139864 0.184853,0.516826 0.302217,0.837692 l 0.213389,0.583393 H 60.46153 c -0.122895,0 -0.184641,-0.07618 -0.385458,-0.475589 z"
     id="path1449"
     transform="scale(3)" /><path
     style="fill:#f9f9f9;stroke-width:0.0598352"
     d="m 77.606227,97.679094 c 0,-0.07655 0.537801,-0.690947 1.453411,-1.660426 0.799377,-0.846406 3.039236,-3.221785 4.977466,-5.27862 7.320515,-7.768472 7.164328,-7.605874 7.287848,-7.587026 0.09861,0.01505 0.333891,0.661938 1.486376,4.086669 0.753072,2.237835 1.368056,4.095717 1.366629,4.128627 -0.0027,0.06337 -2.075803,1.106951 -2.198936,1.106951 -0.0397,0 -0.07219,-0.05241 -0.07219,-0.116468 0,-0.07538 0.296874,-0.3732 0.841577,-0.844254 0.462866,-0.400283 0.830331,-0.758491 0.816588,-0.796019 -0.01374,-0.03753 -0.543237,-1.624545 -1.176652,-3.526706 -0.633415,-1.902161 -1.171561,-3.450396 -1.19588,-3.440523 -0.04307,0.01749 -1.780274,1.843703 -9.565186,10.055302 -2.502284,2.639433 -3.826245,3.993999 -3.903759,3.993999 -0.078,0 -0.117295,-0.04071 -0.117295,-0.121506 z"
     id="path1488"
     transform="scale(3)" /><path
     style="fill:#f9f9f9;stroke-width:0.0598352"
     d="m 89.034853,82.138742 c 5.9e-5,-0.05759 0.161863,-0.320119 0.359565,-0.583393 0.324911,-0.432677 0.65958,-1.019684 0.744367,-1.305612 0.02105,-0.07098 0.07739,-0.102238 0.161795,-0.08975 0.09591,0.01419 0.156226,0.09802 0.23252,0.323158 l 0.10302,0.304002 -0.686172,0.728154 c -0.659973,0.700353 -0.915352,0.87434 -0.915095,0.623444 z"
     id="path1527"
     transform="scale(3)" /><path
     style="fill:#f9f9f9;stroke-width:0.0211549"
     d="m 108.67288,80.758946 v -7.806169 h 0.0529 0.0529 v 7.488846 7.488845 h 6.23013 6.23013 v -7.488845 -7.488846 h 0.1375 0.13751 v 7.615775 7.615775 l -0.1428,2.1e-5 c -0.13067,2.1e-5 -2.0668,0.05948 -9.64352,0.296122 -1.49051,0.04656 -2.78757,0.08465 -2.88236,0.08465 h -0.17236 z"
     id="path1603"
     transform="scale(3)" /><path
     style="fill:#f9f9f9;stroke-width:0.0211549"
     d="m 111.78265,78.410749 v -0.994282 h 0.99428 0.99429 v 0.994282 0.994282 h -0.99429 -0.99428 z"
     id="path1642"
     transform="scale(3)" /><path
     style="fill:#f9f9f9;stroke-width:0.0211549"
     d="m 116.22519,78.410749 v -0.994282 h 0.99428 0.99428 v 0.994282 0.994282 h -0.99428 -0.99428 z"
     id="path1681"
     transform="scale(3)" /><path
     style="fill:#f9f9f9;stroke-width:0.0211549"
     d="M 111.78265,74.518242 V 73.52396 h 0.99428 0.99429 v 0.994282 0.994282 h -0.99429 -0.99428 z"
     id="path1720"
     transform="scale(3)" /><path
     style="fill:#f9f9f9;stroke-width:0.0211549"
     d="M 116.22519,74.518242 V 73.52396 h 0.99428 0.99428 v 0.994282 0.994282 h -0.99428 -0.99428 z"
     id="path1759"
     transform="scale(3)" /><path
     style="fill:#f9f9f9;stroke-width:0.0211549"
     d="m 111.78265,70.64689 v -0.994282 h 0.99428 0.99429 v 0.994282 0.994282 h -0.99429 -0.99428 z"
     id="path1798"
     transform="scale(3)" /><path
     style="fill:#f9f9f9;stroke-width:0.0211549"
     d="m 116.22519,70.64689 v -0.994282 h 0.99428 0.99428 v 0.994282 0.994282 h -0.99428 -0.99428 z"
     id="path1837"
     transform="scale(3)" /><path
     style="fill:#f9f9f9;stroke-width:0.0211549"
     d="M 105.3304,73.32446 V 62.798411 h 0.26443 0.26444 l -3.2e-4,1.66595 c -5.4e-4,2.805021 -0.0399,9.92233 -0.0627,11.344332 -0.0671,4.179481 -0.16473,6.439276 -0.33501,7.753282 -0.0332,0.256506 -0.0388,0.275469 -0.0832,0.281774 l -0.0476,0.0068 z"
     id="path1876"
     transform="scale(3)" /><path
     style="fill:#f9f9f9;stroke-width:0.0211549"
     d="m 111.78265,66.775538 v -0.994282 h 0.99428 0.99429 v 0.994282 0.994281 h -0.99429 -0.99428 z"
     id="path1915"
     transform="scale(3)" /><path
     style="fill:#f9f9f9;stroke-width:0.0211549"
     d="m 116.22519,66.775538 v -0.994282 h 0.99428 0.99428 v 0.994282 0.994281 h -0.99428 -0.99428 z"
     id="path1954"
     transform="scale(3)" /><path
     style="fill:#f9f9f9;stroke-width:0.0211549"
     d="m 116.22519,62.893608 v -1.004859 h 0.99428 0.99428 v 1.004859 1.004859 h -0.99428 -0.99428 z"
     id="path1993"
     transform="scale(3)" /><path
     style="fill:#f9f9f9;stroke-width:0.0211549"
     d="m 111.78265,62.893608 v -1.004859 h 0.99428 0.99429 v 1.004859 1.004859 h -0.99429 -0.99428 z"
     id="path2032"
     transform="scale(3)" /><path
     style="fill:#f9f9f9;stroke-width:0.0211549"
     d="m 105.3304,59.413622 v -3.384789 h 0.2785 0.2785 l -0.014,1.983275 c -0.008,1.090801 -0.0141,2.613956 -0.0141,3.384789 l -1e-5,1.401514 h -0.26444 -0.26443 z"
     id="path2071"
     transform="scale(3)" /><path
     style="fill:#f9f9f9;stroke-width:0.0211549"
     d="m 103.90329,76.141883 c -0.0298,-0.09383 -0.0911,-12.120098 -0.0952,-18.669226 l -9e-4,-1.443824 h 0.0952 0.0952 V 66.09858 76.168327 h -0.043 c -0.0236,0 -0.0468,-0.0119 -0.0514,-0.02644 z"
     id="path2110"
     transform="scale(3)" /><path
     style="fill:#f9f9f9;stroke-width:0.0211549"
     d="m 93.430493,82.763376 c -0.06012,-0.16724 -3.627211,-10.769829 -3.631934,-10.795321 -0.0049,-0.02654 0.09956,-0.08508 0.437796,-0.245305 2.401899,-1.137819 2.27253,-1.072537 2.423752,-1.223068 0.08053,-0.08016 0.160635,-0.184749 0.190395,-0.24858 0.02826,-0.06061 0.06438,-0.110587 0.08028,-0.111063 0.0159,-4.76e-4 0.0873,0.05323 0.158662,0.119345 0.384889,0.356577 0.921749,0.582789 1.456054,0.613525 1.113932,0.06408 2.131768,-0.681458 2.408718,-1.764323 0.320567,-1.253406 -0.428798,-2.511239 -1.707734,-2.866487 -0.142765,-0.03965 -0.221169,-0.04611 -0.56759,-0.04672 -0.395699,-7e-4 -0.438588,0.0044 -0.714743,0.0858 -0.03253,0.0096 -0.03664,-1.25e-4 -0.02956,-0.06987 l 0.0082,-0.081 0.188715,-0.05574 c 0.314163,-0.09279 0.552358,-0.124078 0.944687,-0.124078 0.415014,0 0.520121,0.02043 0.811095,0.157626 0.263746,0.12436 0.43185,0.241885 0.634539,0.443616 0.296382,0.294984 0.505079,0.670951 0.623358,1.12298 0.04488,0.171507 0.04986,0.23626 0.05045,0.655708 7.24e-4,0.509769 -0.01889,0.653134 -0.138431,1.011928 -0.143193,0.429777 -0.358713,0.779852 -0.673689,1.094291 -0.248176,0.247753 -0.476555,0.402733 -0.74737,0.50717 -0.294785,0.113681 -0.425977,0.132293 -0.883244,0.125306 -0.871604,-0.01332 -1.343788,-0.0044 -1.660662,0.03123 -0.631438,0.07107 -1.134591,0.174776 -1.606234,0.331064 -0.558889,0.185199 -0.742614,0.299434 -0.857762,0.533334 -0.157178,0.319272 -0.133909,0.777863 0.08448,1.664992 0.26553,1.078616 0.766344,2.596824 2.472547,7.495469 0.315342,0.905372 0.573349,1.65029 0.573349,1.655373 0,0.0051 -0.0717,0.0092 -0.159326,0.0092 -0.108287,0 -0.162371,-0.0085 -0.168832,-0.02644 z"
     id="path2149"
     transform="scale(3)" /><path
     style="fill:#f9f9f9;stroke-width:0.0211549"
     d="M 108.67288,61.952213 V 50.95165 h 0.0529 0.0529 v 11.000563 11.000564 h -0.0529 -0.0529 z"
     id="path2188"
     transform="scale(3)" /><path
     style="fill:#f9f9f9;stroke-width:0.0211549"
     d="m 111.78265,59.011678 v -0.994282 h 0.99428 0.99429 v 0.994282 0.994282 h -0.99429 -0.99428 z"
     id="path2227"
     transform="scale(3)" /><path
     style="fill:#f9f9f9;stroke-width:0.0211549"
     d="m 116.22519,59.011678 v -0.994282 h 0.99428 0.99428 v 0.994282 0.994282 h -0.99428 -0.99428 z"
     id="path2266"
     transform="scale(3)" /><path
     style="fill:#f9f9f9;stroke-width:0.0211549"
     d="m 105.3304,48.413058 v -7.615775 h 0.27501 0.27502 v 7.615775 7.615775 h -0.27502 -0.27501 z"
     id="path2305"
     transform="scale(3)" /><path
     style="fill:#f9f9f9;stroke-width:0.0211549"
     d="m 121.23891,58.525115 v -9.033156 h -6.23013 -6.23013 v 0.729846 0.729845 h -0.0529 -0.0529 l -1e-5,-1.020726 v -1.020725 l 0.17453,0.0058 c 0.096,0.0032 1.40734,0.04366 2.9141,0.08993 1.50676,0.04626 4.26748,0.131695 6.13493,0.189847 1.86745,0.05815 3.44534,0.105743 3.50643,0.105757 l 0.11106,2.4e-5 v 9.128353 9.128352 h -0.13751 -0.1375 z"
     id="path2344"
     transform="scale(3)" /><path
     style="fill:#f9f9f9;stroke-width:0.0211549"
     d="m 103.80724,48.413058 v -7.615775 h 0.0952 0.0952 v 7.615775 7.615775 h -0.0952 -0.0952 z"
     id="path2383"
     transform="scale(3)" /><path
     style="fill:#f9f9f9;stroke-width:0.0149588"
     d="m 123.94857,64.981004 v -9.461438 h 0.30666 0.30665 v 9.461438 9.461438 h -0.30665 -0.30666 z"
     id="path2422"
     transform="scale(3)" /><path
     style="fill:#f9f9f9;stroke-width:0.0149588"
     d="m 121.22604,70.257719 3e-5,-2.696323 h 0.14211 0.14211 v 2.691557 2.691556 l -0.14214,0.0048 -0.14214,0.0048 3e-5,-2.696323 z"
     id="path2461"
     transform="scale(3)" /><path
     style="fill:#f9f9f9;stroke-width:0.0846197"
     d="M 123.96789,32.409353 V 9.3504792 H 90.204623 56.441354 V 9.0543102 8.7581411 H 90.500792 124.56023 V 32.113184 55.468227 h -0.29617 -0.29617 z"
     id="path2539"
     transform="scale(3)" /><path
     style="fill:#f9f9f9;stroke-width:0.0846197"
     d="M 56.441354,124.26406 V 124.0102 H 90.204623 123.96789 V 99.258933 74.507664 h 0.29617 0.29617 V 99.512792 124.51792 H 90.500792 56.441354 Z"
     id="path2578"
     transform="scale(3)" /><path
     style="fill:#f9f9f9;stroke-width:0.0211549"
     d="m 99.597412,119.62786 c -1.564689,-0.1061 -2.827178,-0.38225 -4.167521,-0.91157 -4.46004,-1.76132 -7.658643,-5.83433 -8.3026,-10.57229 -0.105356,-0.77517 -0.146223,-1.88296 -0.09717,-2.63401 0.04425,-0.67746 0.153718,-1.46737 0.278412,-2.00894 l 0.04396,-0.19095 h 0.147615 c 0.130756,0 0.146333,0.004 0.136394,0.037 -0.06641,0.21913 -0.226761,1.02249 -0.286074,1.43325 -0.310754,2.15208 -0.101575,4.18553 0.615859,5.98685 0.157644,0.3958 0.612586,1.32044 0.843109,1.71354 1.157297,1.97354 2.670048,3.60149 4.515574,4.85945 1.124785,0.76668 2.52222,1.4245 3.603293,1.6962 2.422385,0.6088 6.412107,0.27988 8.666727,-0.7145 0.92638,-0.40857 1.95688,-1.10047 3.03132,-2.03526 0.39855,-0.34675 1.29352,-1.24147 1.63797,-1.63751 1.21727,-1.39958 1.95078,-2.58734 2.36186,-3.82449 0.26489,-0.79717 0.46562,-1.83174 0.56322,-2.90277 0.12914,-1.41717 0.0706,-3.06738 -0.15547,-4.38436 l -0.039,-0.22742 h 0.14178 0.14177 l 0.0668,0.32261 c 0.47202,2.27882 0.33568,4.6723 -0.39125,6.8687 -0.36728,1.10972 -0.95648,2.30728 -1.60507,3.26228 -1.95379,2.87689 -4.89362,4.866 -8.26394,5.59147 -0.579,0.12463 -1.30265,0.22372 -1.93232,0.2646 -0.30203,0.0196 -1.308273,0.0249 -1.555243,0.008 z"
     id="path2617"
     transform="scale(3)" /><path
     style="fill:#f9f9f9;stroke-width:0.0211549"
     d="m 99.703187,122.53665 c -0.215252,-0.01 -0.403266,-0.0225 -0.41781,-0.0279 -0.01454,-0.005 -0.02644,-0.028 -0.02644,-0.0503 0,-0.0394 0.02142,-0.0402 0.766863,-0.0296 1.27703,0.0183 2.25671,-0.0677 3.43239,-0.30119 2.83803,-0.56371 5.44467,-1.87304 7.62635,-3.83077 0.37052,-0.33248 1.12526,-1.10371 1.43907,-1.4705 0.99099,-1.15828 1.82615,-2.46167 2.44902,-3.82205 0.0967,-0.21122 0.11496,-0.23799 0.16216,-0.23799 h 0.0532 l -0.0398,0.10048 c -0.45718,1.15324 -1.22804,2.52223 -2.00725,3.56472 -1.15609,1.54672 -2.70582,2.91366 -4.48917,3.95965 -0.43529,0.25532 -1.42338,0.74781 -1.8722,0.93315 -2.24388,0.92663 -4.58389,1.32751 -7.076329,1.21229 z"
     id="path2656"
     transform="scale(3)" /><path
     style="fill:#f9f9f9;stroke-width:0.0423099"
     d="m 43.346452,119.58502 c -0.209434,-0.0219 -0.533104,-0.0633 -0.719267,-0.092 -0.293212,-0.0453 -0.340197,-0.0643 -0.351327,-0.14232 -0.01033,-0.0724 0.01451,-0.095 0.12693,-0.11523 0.394378,-0.071 1.020407,-0.11538 2.149495,-0.15233 1.864562,-0.061 2.859917,-0.20755 4.230986,-0.62285 1.309082,-0.39651 2.676246,-1.11399 3.761892,-1.97419 0.327901,-0.25981 0.456417,-0.32292 0.522677,-0.25666 0.01396,0.014 0.0039,0.0724 -0.02228,0.12996 -0.03792,0.0832 -0.03518,0.11287 0.01341,0.14514 0.07671,0.0509 -0.103536,0.21838 -0.679956,0.63164 -1.748646,1.25366 -3.681944,2.03561 -5.859323,2.36989 -0.676645,0.10388 -2.500271,0.14927 -3.17324,0.079 z"
     id="path2695"
     transform="scale(3)" /><path
     style="fill:#f9f9f9;stroke-width:0.0423099"
     d="m 11.635212,124.24291 v -0.29617 l 22.413648,-1e-4 22.413649,-9e-5 -0.01405,0.29626 -0.01405,0.29626 H 34.034809 11.63521 Z"
     id="path2734"
     transform="scale(3)" /><path
     style="fill:#f9f9f9;stroke-width:0.0423099"
     d="m 21.754864,120.80523 -0.556531,-0.43368 -5.46e-4,-3.27372 -5.47e-4,-3.27373 0.132218,0.0264 c 0.07272,0.0145 0.147602,0.0264 0.166403,0.0264 0.0188,0 0.04119,1.19472 0.04975,2.65494 l 0.01557,2.65495 0.113386,0.4231 c 0.125639,0.46881 0.408117,1.07883 0.640511,1.38319 0.0833,0.10909 0.151455,0.20901 0.151455,0.22204 0,0.0969 -0.234959,-0.0385 -0.711672,-0.40998 z"
     id="path2773"
     transform="scale(3)" /><path
     style="fill:#f9f9f9;stroke-width:0.0423099"
     d="m 25.189685,123.06172 c -0.451248,-0.12234 -0.734586,-0.27745 -0.734586,-0.40213 v -0.10105 l 0.233098,0.0609 c 0.619026,0.16165 1.498053,0.14214 2.153489,-0.0478 0.434785,-0.126 0.405864,-0.12387 0.405864,-0.0299 0,0.0919 -0.424464,0.34987 -0.786162,0.47778 -0.362916,0.12834 -0.889576,0.14583 -1.271703,0.0422 z"
     id="path2812"
     transform="scale(3)" /><path
     style="fill:#f9f9f9;stroke-width:0.0423099"
     d="m 34.898363,123.09156 c -0.108716,-0.0227 -0.375268,-0.12993 -0.592338,-0.23828 -0.302873,-0.15117 -0.397816,-0.21914 -0.408192,-0.29219 -0.0074,-0.0524 -0.0015,-0.0952 0.01319,-0.0952 0.01469,0 0.192132,0.0474 0.394309,0.10538 0.691666,0.19828 1.529706,0.2152 2.178407,0.044 0.303404,-0.0801 0.283527,-0.0816 0.283527,0.022 0,0.0661 -0.07281,0.12104 -0.306747,0.23136 -0.551087,0.2599 -1.046681,0.33064 -1.562159,0.22298 z"
     id="path2851"
     transform="scale(3)" /><path
     style="fill:#f9f9f9;stroke-width:0.0211549"
     d="m 8.7792961,114.65972 v -9.88993 h 0.296169 0.296169 v 9.59376 9.59376 h 1.1317889 1.131789 v 0.29617 0.29617 H 10.207254 8.7792961 Z"
     id="path2929"
     transform="scale(3)" /><path
     style="fill:#f9f9f9;stroke-width:0.0423099"
     d="M 8.800451,86.862144 V 68.986228 H 9.0754651 9.3504792 V 86.862144 104.73806 H 9.0754651 8.800451 Z"
     id="path2968"
     transform="scale(3)" /><path
     style="fill:#f9f9f9;stroke-width:0.0423099"
     d="m 13.905346,89.728637 c -0.03498,-0.05665 -0.15383,-0.9453 -0.222103,-1.660662 -0.09081,-0.951474 -0.129793,-5.177372 -0.06291,-6.818825 0.08648,-2.122407 0.223517,-3.824557 0.449057,-5.577964 0.100513,-0.781417 0.338152,-2.28694 0.378998,-2.401085 0.01041,-0.02909 0.06375,-0.05289 0.118528,-0.05289 h 0.0996 l -0.09677,0.593607 c -0.242963,1.490395 -0.448838,3.520853 -0.568288,5.604787 -0.139661,2.43654 -0.101286,7.98057 0.06948,10.038015 0.02392,0.288243 0.02029,0.306746 -0.06027,0.306746 -0.04715,0 -0.09455,-0.01428 -0.105325,-0.03173 z"
     id="path3007"
     transform="scale(3)" /><path
     style="fill:#f9f9f9;stroke-width:0.0423099"
     d="m 8.800451,62.21665 v -6.769578 h 0.2750141 0.2750141 v 6.769578 6.769578 H 9.0754651 8.800451 Z"
     id="path3046"
     transform="scale(3)" /><path
     style="fill:#f9f9f9;stroke-width:0.0423099"
     d="M 8.800451,43.600311 V 31.75355 H 9.0754651 9.3504792 V 43.600311 55.447072 H 9.0754651 8.800451 Z"
     id="path3085"
     transform="scale(3)" /><path
     style="fill:#f9f9f9;stroke-width:0.0149588"
     d="m 8.7808125,24.064961 v -7.69256 H 9.072509 9.3642055 v 7.69256 7.69256 H 9.072509 8.7808125 Z"
     id="path3346"
     transform="scale(3)" /><path
     style="fill:#f9f9f9;stroke-width:0.0149588"
     d="M 8.7808125,12.572867 V 8.7733331 H 17.606501 26.43219 V 9.072509 9.3716849 H 17.898198 9.3642055 v 3.5003581 3.500358 H 9.072509 8.7808125 Z"
     id="path3385"
     transform="scale(3)" /><path
     style="fill:#f9f9f9;stroke-width:0.0149588"
     d="M 26.43219,9.072509 V 8.7733331 h 5.983518 5.983518 V 9.072509 9.3716849 H 32.415708 26.43219 Z"
     id="path3424"
     transform="scale(3)" /><path
     style="fill:#f9f9f9;stroke-width:0.0149588"
     d="M 38.399226,9.072509 V 8.7733331 h 6.58187 6.581869 V 9.072509 9.3716849 h -6.581869 -6.58187 z"
     id="path3463"
     transform="scale(3)" /><path
     style="fill:#f9f9f9;stroke-width:0.0149588"
     d="M 51.562965,9.072509 V 8.7733331 h 2.437683 2.437683 l 0.0043,0.2991913 0.0043,0.2991914 -2.442023,-1.55e-5 -2.442024,-1.54e-5 z"
     id="path3502"
     transform="scale(3)" /><path
     style="fill:#f9f9f9;stroke-width:0.0423099"
     d="m 48.719804,21.435028 c -0.553314,-0.146086 -0.922106,-0.621924 -0.922106,-1.18976 0,-0.681461 0.505387,-1.190285 1.18648,-1.194549 0.48303,-0.003 0.880338,0.23592 1.100531,0.661867 0.150924,0.291953 0.157195,0.753359 0.01426,1.049048 -0.113176,0.234124 -0.398197,0.510452 -0.623691,0.60467 -0.191385,0.07997 -0.579254,0.115249 -0.755473,0.06872 z"
     id="path3541"
     transform="scale(3)" /><path
     style="fill:#f9f9f9;stroke-width:0.0423099"
     d="m 57.562565,21.433435 c -0.370589,-0.102497 -0.672722,-0.347471 -0.828549,-0.671801 -0.135065,-0.281118 -0.135344,-0.711136 -6.58e-4,-1.013153 0.270733,-0.607084 1.030072,-0.878999 1.63211,-0.584449 0.888634,0.434768 0.897833,1.71639 0.01553,2.163487 -0.222665,0.112833 -0.611488,0.163151 -0.818433,0.105916 z"
     id="path3580"
     transform="scale(3)" /><path
     style="fill:#f9f9f9;stroke-width:0.0423099"
     d="m 66.334269,21.415693 c -0.354695,-0.09991 -0.659522,-0.382874 -0.795399,-0.738336 -0.291085,-0.761496 0.267552,-1.609736 1.072558,-1.628584 0.878632,-0.02057 1.472339,0.793284 1.187827,1.628279 -0.190884,0.560214 -0.874609,0.904946 -1.464986,0.738641 z"
     id="path3619"
     transform="scale(3)" /><path
     style="fill:#f9f9f9;stroke-width:0.0423099"
     d="m 43.409917,23.645923 v -0.280302 l 0.132218,0.02644 c 0.07272,0.01454 9.202131,0.02644 20.287578,0.02644 h 20.15536 v 0.253859 0.253859 H 63.697495 43.409917 Z"
     id="path3658"
     transform="scale(3)" /><path
     style="fill:#f9f9f9;stroke-width:0.0423099"
     d="m 27.820127,37.243255 c -0.02263,-0.06996 -0.09602,-1.226001 -0.149749,-2.358775 -0.0461,-0.971997 -0.253335,-8.417159 -0.253494,-9.107197 l -9.4e-5,-0.412522 h 28.284141 28.284142 v 0.232705 0.232704 H 55.997101 28.009128 v 5.732986 5.732986 h -0.08595 c -0.04727,0 -0.09364,-0.0238 -0.103053,-0.05289 z"
     id="path3697"
     transform="scale(3)" /><path
     style="fill:#f9f9f9;stroke-width:0.0423099"
     d="m 75.108674,21.39211 c -0.313811,-0.108392 -0.514446,-0.285872 -0.679318,-0.600919 -0.132092,-0.252408 -0.140516,-0.292579 -0.123362,-0.588233 0.01212,-0.20891 0.04844,-0.375144 0.106307,-0.486563 0.392248,-0.755259 1.392419,-0.896833 1.970413,-0.278911 0.605391,0.647212 0.31434,1.719277 -0.535257,1.97158 -0.277065,0.08228 -0.4639,0.07799 -0.738783,-0.01695 z"
     id="path3773"
     transform="scale(3)" /><path
     style="fill:#f9f9f9;stroke-width:0.0423099"
     d="m 83.951435,21.394683 c -0.285328,-0.101831 -0.50369,-0.278188 -0.664474,-0.536655 -0.116733,-0.187652 -0.12693,-0.234908 -0.12693,-0.588219 0,-0.439248 0.06584,-0.619259 0.319182,-0.872596 0.488282,-0.488282 1.286088,-0.467327 1.747523,0.0459 0.423963,0.47155 0.426076,1.130413 0.0051,1.598611 -0.341386,0.379704 -0.828923,0.514097 -1.280427,0.35296 z"
     id="path3812"
     transform="scale(3)" /><path
     style="fill:#f9f9f9;stroke-width:0.0423099"
     d="m 83.985073,23.672367 v -0.253859 h 2.829472 c 1.55621,0 2.88897,-0.0119 2.96169,-0.02644 l 0.132219,-0.02644 v 0.280302 0.280303 h -2.96169 -2.961691 z"
     id="path3851"
     transform="scale(3)" /><path
     style="fill:#f9f9f9;stroke-width:0.0423099"
     d="m 83.985073,25.597466 v -0.232705 h 8.461972 8.461975 v 0.232705 0.232704 h -8.461975 -8.461972 z"
     id="path3890"
     transform="scale(3)" /><path
     style="fill:#f9f9f9;stroke-width:0.0149588"
     d="m 67.329535,31.480783 v -4.308132 h 5.325331 5.325331 v 0.127149 0.12715 h -5.145826 -5.145825 v 4.180983 4.180983 H 67.50904 67.329535 Z"
     id="path3929"
     transform="scale(3)" /><path
     style="fill:#f9f9f9;stroke-width:0.0149588"
     d="M 65.624232,27.995384 V 27.42695 H 57.883056 50.14188 V 27.2998 27.172651 h 7.928161 7.928161 v 0.695584 0.695583 h -0.186985 -0.186985 z"
     id="path3968"
     transform="scale(3)" /><path
     style="fill:#f9f9f9;stroke-width:0.0299176"
     d="m 67.344494,43.574969 v -7.778573 h 0.164546 0.164547 v 7.778573 7.778573 H 67.50904 67.344494 Z"
     id="path4007"
     transform="scale(3)" /><path
     style="fill:#f9f9f9;stroke-width:0.0211549"
     d="m 105.3304,33.308438 v -7.488846 h -2.21069 -2.21069 v -0.232704 -0.232704 h 2.4857 2.48571 v 7.72155 7.721549 h -0.27502 -0.27501 z"
     id="path4142"
     transform="scale(3)" /><path
     style="fill:#f9f9f9;stroke-width:0.0211549"
     d="M 103.80724,34.112325 V 27.427367 H 92.129722 80.4522 v -0.126929 -0.12693 h 11.772719 11.772721 v 6.811888 6.811887 h -0.0952 -0.0952 z"
     id="path4181"
     transform="scale(3)" /></svg>
