<?xml version="1.0" encoding="utf-8"?>
<!-- Generator: Adobe Illustrator 24.1.0, SVG Export Plug-In . SVG Version: 6.00 Build 0)  -->
<svg version="1.1" id="Layer_1" xmlns="http://www.w3.org/2000/svg" xmlns:xlink="http://www.w3.org/1999/xlink" x="0px" y="0px"
	 viewBox="0 0 83.5 75" style="enable-background:new 0 0 83.5 75;" xml:space="preserve">
<style type="text/css">
	.st0{fill:#FFFFFF;}
	.st1{fill:#941A1D;}
</style>
<rect x="35.2" y="18.5" class="st0" width="14.3" height="43.7"/>
<g id="Layer_2_1_">
</g>
<path class="st1" d="M81.3,51.4L55.1,7.6C52.3,2.9,47.3,0,41.7,0S31.1,2.8,28.3,7.6L2.2,51.4c-2.9,4.8-3,10.7-0.2,15.7
	S9.8,75,15.5,75h52.4c5.7,0,10.7-2.9,13.5-7.9C84.2,62.2,84.2,56.3,81.3,51.4z M41.7,61.7c-2.9,0-5.2-2.3-5.2-5.2
	c0-2.8,2.3-5.2,5.2-5.2s5.2,2.3,5.2,5.2S44.6,61.7,41.7,61.7z M47.3,24.4l-1.7,19.7c-0.1,1.1-0.5,1.9-1.3,2.5
	c-0.7,0.6-1.6,0.9-2.5,0.9c-0.1,0-0.3,0-0.4,0c-1.8-0.2-3.3-1.6-3.4-3.4l-1.7-19.7c-0.1-1.5,0.4-2.9,1.2-4c1-1.1,2.3-1.8,3.8-1.9
	s2.9,0.4,4,1.2c1.1,1,1.8,2.3,1.9,3.8C47.3,23.7,47.3,24.1,47.3,24.4z"/>
</svg>
