<?xml version="1.0" encoding="utf-8"?>
<!-- Generator: Adobe Illustrator 24.1.0, SVG Export Plug-In . SVG Version: 6.00 Build 0)  -->
<svg version="1.1" id="Layer_1" xmlns="http://www.w3.org/2000/svg" xmlns:xlink="http://www.w3.org/1999/xlink" x="0px" y="0px"
	 viewBox="0 0 100 125" style="enable-background:new 0 0 100 125;" xml:space="preserve">
<style type="text/css">
	.st0{fill:#FFFFFF;}
	.st1{fill:#941A1D;}
</style>
<rect x="38.1" y="31.3" class="st0" width="14.3" height="43.7"/>
<g id="Layer_2_1_">
</g>
<path class="st1" d="M84.2,64.2L58,20.4c-2.8-4.7-7.8-7.6-13.4-7.6s-10.6,2.8-13.4,7.6L5.1,64.2c-2.9,4.8-3,10.7-0.2,15.7
	s7.8,7.9,13.5,7.9h52.4c5.7,0,10.7-2.9,13.5-7.9C87.1,75,87.1,69.1,84.2,64.2z M44.6,74.5c-2.9,0-5.2-2.3-5.2-5.2
	c0-2.8,2.3-5.2,5.2-5.2c2.9,0,5.2,2.3,5.2,5.2S47.5,74.5,44.6,74.5z M50.2,37.2l-1.7,19.7c-0.1,1.1-0.5,1.9-1.3,2.5
	c-0.7,0.6-1.6,0.9-2.5,0.9c-0.1,0-0.3,0-0.4,0c-1.8-0.2-3.3-1.6-3.4-3.4l-1.7-19.7c-0.1-1.5,0.4-2.9,1.2-4c1-1.1,2.3-1.8,3.8-1.9
	c1.5-0.1,2.9,0.4,4,1.2c1.1,1,1.8,2.3,1.9,3.8C50.2,36.5,50.2,36.9,50.2,37.2z"/>
</svg>
