<?xml version="1.0" encoding="utf-8"?>
<!-- Generator: Adobe Illustrator 24.1.0, SVG Export Plug-In . SVG Version: 6.00 Build 0)  -->
<svg version="1.1" id="Layer_1" xmlns="http://www.w3.org/2000/svg" xmlns:xlink="http://www.w3.org/1999/xlink" x="0px" y="0px"
	 viewBox="0 0 75 75" style="enable-background:new 0 0 75 75;" xml:space="preserve">
<style type="text/css">
	.st0{fill:#FFFFFF;}
	.st1{fill:#2B3C97;}
</style>
<g>
	<rect x="28" y="15.6" class="st0" width="19.8" height="46.7"/>
	<g>
		<g>
			<path class="st1" d="M37.5,0C16.8,0,0,16.8,0,37.5S16.8,75,37.5,75S75,58.2,75,37.5S58.2,0,37.5,0z M33.1,53.7V36.5
				c0-2.4,1.9-4.3,4.3-4.3c2.4,0,4.3,1.9,4.3,4.3v17.2c0,2.4-1.9,4.3-4.3,4.3C35.1,58,33.1,56.1,33.1,53.7z M37.5,27.4
				c-2.9,0-5.2-2.3-5.2-5.2s2.3-5.2,5.2-5.2s5.2,2.3,5.2,5.2l0,0C42.7,25.1,40.4,27.4,37.5,27.4z"/>
		</g>
	</g>
</g>
</svg>
