<?xml version="1.0" encoding="utf-8"?>
<!-- Generator: Adobe Illustrator 24.1.0, SVG Export Plug-In . SVG Version: 6.00 Build 0)  -->
<svg version="1.1" id="Layer_1" xmlns="http://www.w3.org/2000/svg" xmlns:xlink="http://www.w3.org/1999/xlink" x="0px" y="0px"
	 viewBox="0 0 450 480" style="enable-background:new 0 0 450 480;" xml:space="preserve">
<style type="text/css">
	.st0{fill:#FFFFFF;}
	.st1{fill:#2B3C97;}
</style>
<g>
	<rect x="153.7" y="123.5" class="st0" width="19.8" height="46.7"/>
	<g>
		<g>
			<path class="st1" d="M163.2,107.9c-20.7,0-37.5,16.8-37.5,37.5s16.8,37.5,37.5,37.5s37.5-16.8,37.5-37.5S183.9,107.9,163.2,107.9
				z M158.8,161.6v-17.2c0-2.4,1.9-4.3,4.3-4.3c2.4,0,4.3,1.9,4.3,4.3v17.2c0,2.4-1.9,4.3-4.3,4.3
				C160.8,165.9,158.8,164,158.8,161.6z M163.2,135.3c-2.9,0-5.2-2.3-5.2-5.2s2.3-5.2,5.2-5.2c2.9,0,5.2,2.3,5.2,5.2l0,0
				C168.4,133,166.1,135.3,163.2,135.3z"/>
		</g>
	</g>
</g>
</svg>
