<?xml version="1.0" encoding="utf-8"?>
<!-- Generator: Adobe Illustrator 24.1.0, SVG Export Plug-In . SVG Version: 6.00 Build 0)  -->
<svg version="1.1" id="Layer_1" xmlns="http://www.w3.org/2000/svg" xmlns:xlink="http://www.w3.org/1999/xlink" x="0px" y="0px"
	 width="75px" height="75px" viewBox="0 0 75 75" enable-background="new 0 0 75 75" xml:space="preserve">
<circle fill="#D0D2D4" cx="37.5" cy="37.5" r="37.5"/>
<path fill="#444547" d="M73.8109,45.6145c-0.2064,0.0762-0.4018,0.1695-0.6077,0.2211c-2.6074,0.6526-5.2165,1.2986-7.8249,1.9476
	c-1.7159,0.4269-3.4309,0.8577-5.1476,1.2811c-0.1412,0.0348-0.2932,0.0258-0.4402,0.0372c0.0325-0.1869,0.203-0.2202,0.3314-0.3057
	c1.2926-0.8604,2.5804-1.7281,3.8745-2.5863c0.9444-0.6264,0.946-0.6188,0.0393-1.222c-1.2666-0.8426-2.5312-1.6883-3.7943-2.5362
	c-0.1473-0.0989-0.3568-0.1468-0.3645-0.3822c0.1531,0.0205,0.3099,0.0264,0.4588,0.0636
	c4.3223,1.0794,8.6442,2.1605,12.9642,3.2492C73.4665,45.424,73.685,45.3696,73.8109,45.6145z"/>
<path fill="#444547" d="M59.5449,40.0277c0.9522-1.4245,1.891-2.8582,2.8641-4.2683c0.3373-0.4888,0.4014-0.7091-0.3159-0.829
	c-1.6219-0.271-3.2303-0.6236-4.8428-0.9498c-0.1445-0.0292-0.3889-0.0932-0.3984-0.1656c-0.0322-0.2464,0.2082-0.1507,0.3329-0.169
	c4.4454-0.6526,8.8915-1.3002,13.3388-1.9398c0.158-0.0227,0.392-0.2288,0.4734-0.0011c0.0691,0.1933-0.2179,0.2743-0.3621,0.3813
	c-2.8287,2.1002-5.6584,4.1991-8.4944,6.2894c-0.8145,0.6003-1.6492,1.1732-2.4747,1.7586
	C59.6282,40.0958,59.5879,40.0602,59.5449,40.0277z"/>
<path fill="#444547" d="M63.0619,19.8636c0.2306,0.3323-0.0854,0.5317-0.2134,0.7466c-2.2239,3.7331-4.46,7.459-6.7005,11.1821
	c-0.1066,0.1771-0.1748,0.5472-0.3992,0.4467c-0.1955-0.0876,0.0411-0.3909,0.0819-0.5994
	c0.3094-1.5815,0.6052-3.1659,0.9377-4.7425c0.1165-0.5523,0.0877-0.734-0.5748-0.5795c-1.6319,0.3806-3.2854,0.6689-4.9307,0.9919
	c-0.1455,0.0286-0.2974,0.1129-0.4392-0.0156c0.1072-0.0947,0.2027-0.2091,0.3233-0.2813
	c3.9733-2.3783,7.9491-4.7525,11.9245-7.1274L63.0619,19.8636z"/>
<path fill="#444547" d="M32.2686,23.476c-0.3768,0.2398-0.5875-0.1036-0.827-0.2615c-1.1919-0.7857-2.3869-1.5688-3.5462-2.401
	c-0.6534-0.4691-0.9538-0.5138-1.0962,0.4272c-0.2365,1.5623-0.5962,3.106-0.9101,4.6563
	c-0.0348,0.1719-0.0085,0.3941-0.2577,0.4495c-0.0186-0.1493-0.0341-0.299-0.0563-0.4478
	c-0.6633-4.4407-1.3279-8.8812-1.9885-13.3223c-0.0254-0.1709-0.1876-0.4216,0.0508-0.4975
	c0.2022-0.0644,0.2513,0.2294,0.3545,0.3681c2.593,3.4867,5.179,6.9786,7.7697,10.467c0.1497,0.2016,0.3292,0.3811,0.4948,0.5708
	L32.2686,23.476z"/>
<path fill="#444547" d="M43.0266,23.3074c2.6749-3.653,5.3494-7.3062,8.026-10.9579c0.0881-0.1201,0.1661-0.3217,0.3429-0.2425
	c0.0573,0.0257,0.0313,0.2844,0.0098,0.4317c-0.4253,2.9072-0.8548,5.8137-1.285,8.7202c-0.222,1.4996-0.448,2.9986-0.6695,4.4982
	c-0.0263,0.178,0.031,0.3856-0.197,0.4787c-0.0451-0.1485-0.1023-0.2945-0.1333-0.4459c-0.31-1.5173-0.654-3.0291-0.9078-4.5558
	c-0.1486-0.8937-0.415-0.9189-1.1051-0.4207c-1.2833,0.9266-2.6293,1.7662-3.9492,2.6419
	C43.1143,23.4059,43.0705,23.3566,43.0266,23.3074z"/>
<path fill="#444547" d="M15.0008,42.0281c0.0607,0.0098,0.1652,0.0063,0.1745,0.0344c0.0616,0.1855-0.1312,0.1904-0.2172,0.2484
	c-1.3674,0.922-2.7236,1.8626-4.1214,2.7367c-0.6503,0.4067-0.7036,0.6261-0.0145,1.0551c1.3987,0.8708,2.7512,1.8157,4.121,2.7328
	c0.0958,0.0642,0.2749,0.0845,0.221,0.2484c-0.0118,0.0358-0.2211,0.0341-0.3288,0.0071c-4.4217-1.1094-8.8423-2.223-13.2617-3.3411
	c-0.1331-0.0337-0.324-0.0158-0.3504-0.2121c-0.0034-0.0254,0.1539-0.0858,0.2422-0.1081
	c4.4802-1.1286,8.9611-2.2548,13.4419-3.3811C14.9381,42.0408,14.9695,42.0357,15.0008,42.0281z"/>
<path fill="#444547" d="M41.0266,23.0486c-0.0087,0.0349-0.0274,0.1095-0.0461,0.1841c-0.0877-0.0839-0.1942-0.1552-0.2602-0.2536
	c-0.8659-1.2903-1.7244-2.5856-2.5884-3.8772c-0.6372-0.9526-0.6384-0.9501-1.2957,0.041c-0.8411,1.2683-1.6842,2.5353-2.527,3.8025
	c-0.0805,0.1211-0.1432,0.2891-0.3281,0.2229c-0.0243-0.0087,0.0148-0.2301,0.0442-0.3481
	c1.0946-4.3857,2.1909-8.771,3.2904-13.1555c0.0341-0.136,0.1044-0.2629,0.1577-0.394c0.0688,0.0982,0.1742,0.1872,0.2013,0.2958
	c1.1074,4.4474,2.2077,8.8966,3.3092,13.3455C40.9915,22.9427,41.0027,22.9726,41.0266,23.0486z"/>
<path fill="#444547" d="M18.125,33.7045c-0.068,0.3199-0.2993,0.2494-0.4692,0.2843c-1.5805,0.3243-3.1546,0.6884-4.7459,0.9473
	c-0.7391,0.1203-0.6524,0.3521-0.324,0.8266c0.884,1.2774,1.7503,2.5671,2.608,3.8623c0.0868,0.131,0.3202,0.275,0.1387,0.4713
	c-0.0295,0.032-0.2646-0.0933-0.3805-0.1786c-3.5758-2.6327-7.1493-5.2686-10.7191-7.9094c-0.119-0.088-0.3014-0.2932-0.2747-0.3389
	c0.0986-0.1687,0.2617-0.0129,0.3999,0.0074c4.4432,0.6519,8.8862,1.305,13.3292,1.9583
	C17.8311,33.6562,17.9743,33.6805,18.125,33.7045z"/>
<path fill="#444547" d="M19.217,32.3024c-1.9893-3.2814-3.9811-6.5613-5.9659-9.8454c-0.459-0.7594-0.894-1.5333-1.3401-2.3005
	c0.0512-0.0546,0.1023-0.1092,0.1535-0.1638c3.9519,2.3617,7.9039,4.7231,11.8545,7.0871c0.0957,0.0573,0.1744,0.1428,0.2611,0.2151
	c-0.1152,0.0149-0.2365,0.061-0.3448,0.0401c-1.678-0.3247-3.3617-0.6256-5.0274-1.0054c-0.6635-0.1513-0.6723,0.036-0.5758,0.595
	c0.3111,1.8017,0.8631,3.5602,0.9732,5.3974L19.217,32.3024z"/>
<path fill="#F6FB75" d="M23.41,42.1792c2.5235-0.356,3.6681,1.606,3.837,3.5844c0.1495,1.7512-1.7333,3.8376-3.785,3.7363
	c-2.17-0.1071-3.9109-1.7685-3.8661-3.5541C19.6603,43.38,20.7859,42.1988,23.41,42.1792z M23.3433,43.7281
	c-1.385-0.1252-1.7464,0.4539-1.8325,1.8479c-0.0774,1.2545,0.6854,2.1004,1.7399,2.1082c1.285,0.0096,2.0765-0.7019,2.0859-1.8753
	C25.3488,44.2996,24.8087,43.7358,23.3433,43.7281z"/>
<path fill="#F6FB75" d="M35.256,45.6514c-0.0005,2.4225-1.3411,3.7416-3.669,3.8318c-1.9316,0.0748-3.7663-1.8208-3.897-3.6384
	c-0.1439-2.0002,1.8146-3.9913,3.8065-3.9833C33.3526,41.8691,35.5803,43.3157,35.256,45.6514z M31.6152,43.729
	c-1.207-0.0128-2.0635,0.7702-2.0869,1.9076c-0.022,1.0719,0.9056,2.1177,1.9423,2.1898c1.0219,0.0711,2.1932-0.9743,2.2266-1.9873
	C33.7346,44.7067,32.7821,43.7413,31.6152,43.729z"/>
<path fill="#F6FB75" d="M42.8719,45.8346c0,0.9198,0.0134,1.8399-0.0079,2.7592c-0.0067,0.287,0.1528,0.6735-0.2652,0.8197
	c-0.3472,0.1214-0.509-0.1977-0.6991-0.3849c-0.9875-0.9725-1.9547-1.9656-2.947-2.9331c-0.1372-0.1338-0.2867-0.4249-0.5284-0.2738
	c-0.1083,0.0677-0.1197,0.3385-0.1227,0.5179c-0.0121,0.7292,0.0124,1.4593-0.0118,2.188c-0.009,0.272,0.1301,0.7555-0.402,0.6503
	c-0.403-0.0796-1.1098,0.2114-1.1254-0.5355c-0.0418-1.9968-0.0146-3.9951-0.0088-5.9929c0.0006-0.2017,0.0875-0.3775,0.3131-0.414
	c0.2567-0.0415,0.5618-0.0582,0.7,0.1788c0.7109,1.2187,1.9048,1.9623,2.8404,2.9574c0.1456,0.1548,0.2667,0.2756,0.4699,0.2212
	c0.2262-0.0606,0.2458-0.2682,0.2464-0.4606c0.0025-0.7293,0.0167-1.4592-0.0094-2.1877c-0.0211-0.5881,0.2537-0.7601,0.8057-0.7673
	c0.5954-0.0078,0.7718,0.2458,0.7549,0.8028c-0.0288,0.9507-0.0079,1.9028-0.0079,2.8543
	C42.8685,45.8346,42.8702,45.8346,42.8719,45.8346z"/>
<path fill="#F6FB75" d="M50.5281,45.7755c-0.0011-0.9211,0.0316-1.8438-0.0124-2.7628c-0.0305-0.6372,0.2307-0.8489,0.8312-0.8362
	c1.1435,0.0242,2.288,0.0291,3.4317,0.011c0.5594-0.0088,0.713,0.2546,0.6893,0.7632c-0.022,0.4715-0.1183,0.8076-0.6967,0.7801
	c-0.5388-0.0256-1.0798,0.0012-1.6195-0.0121c-0.4257-0.0105-0.7591,0.0443-0.7504,0.5957c0.0089,0.5648,0.3774,0.5721,0.7825,0.566
	c0.3812-0.0058,0.7626-0.003,1.1439,0.0026c0.3638,0.0053,0.718,0.0183,0.7151,0.5338c-0.0027,0.4868-0.1113,0.9093-0.6709,0.981
	c-0.3753,0.0481-0.7623,0.0306-1.1422,0.0092c-0.5131-0.0289-0.8508,0.0599-0.848,0.7024c0.0027,0.6218,0.2327,0.8662,0.852,0.8125
	c0.4416-0.0383,0.8893-0.0008,1.3339-0.0113c0.5335-0.0127,0.9053,0.0693,0.9036,0.7662c-0.0016,0.6671-0.2923,0.79-0.8704,0.7739
	c-1.1113-0.031-2.2244-0.0186-3.3363,0.0032c-0.5229,0.0102-0.7524-0.1874-0.7412-0.7234
	C50.5439,47.7458,50.5292,46.7605,50.5281,45.7755z"/>
<path fill="#F6FB75" d="M44.7429,45.7224c0-0.9203,0.0164-1.8409-0.0066-2.7606c-0.0124-0.4947,0.1079-0.7903,0.6762-0.7795
	c1.0153,0.0193,2.0326-0.023,3.0464,0.0211c0.4411,0.0192,0.9447,0.0538,0.9051,0.7702c-0.0367,0.6641-0.386,0.7823-0.9416,0.7519
	c-0.4743-0.0259-0.9515,0.0034-1.4273-0.0006c-0.3894-0.0033-0.6884,0.07-0.6939,0.5602c-0.0053,0.4705,0.244,0.6014,0.6588,0.5899
	c0.3804-0.0106,0.7628,0.0216,1.142-0.0023c0.5729-0.0361,0.8692,0.1113,0.8606,0.7843c-0.0087,0.6828-0.3321,0.8037-0.8927,0.7598
	c-0.3154-0.0247-0.6347,0.0026-0.951-0.0152c-0.5162-0.0291-0.8291,0.0843-0.8302,0.7183c-0.0011,0.6408,0.2562,0.847,0.854,0.8052
	c0.4421-0.0309,0.8886,0.0061,1.3322-0.0117c0.5542-0.0223,0.8893,0.1031,0.8931,0.7793c0.0039,0.6873-0.3327,0.7724-0.889,0.7564
	c-0.9514-0.0273-1.9063-0.0444-2.8557,0.0071c-0.6819,0.0371-0.9004-0.2379-0.8821-0.8777c0.0272-0.9513,0.007-1.904,0.007-2.8561
	C44.7464,45.7224,44.7446,45.7224,44.7429,45.7224z"/>
<path fill="#444547" d="M63.0716,19.8852c0.0277-0.0136,0.0543-0.0313,0.0836-0.0382c0.0089-0.0021,0.0249,0.0254,0.0376,0.0393
	c-0.0433-0.0067-0.0866-0.0134-0.1304-0.0214C63.0619,19.8636,63.0716,19.8852,63.0716,19.8852z"/>
<path fill="#444547" d="M11.911,20.1565c-0.0253-0.0712-0.0507-0.1425-0.076-0.2137c0.0764,0.0168,0.1528,0.0337,0.2294,0.0502
	C12.0134,20.0474,11.9622,20.1019,11.911,20.1565z"/>
<path fill="#444547" d="M42.8738,23.5314c0.0509-0.0747,0.1019-0.1493,0.1528-0.224c0.0439,0.0492,0.0878,0.0985,0.1317,0.1478
	c-0.092,0.0686-0.1777,0.1686-0.3052,0.062L42.8738,23.5314z"/>
<path fill="#444547" d="M32.2564,23.485c-0.0169,0.0424-0.0337,0.0848-0.0506,0.1272c-0.0015-0.023-0.0116-0.0504-0.0024-0.0678
	c0.0136-0.0259,0.0408-0.0447,0.0637-0.0674C32.2686,23.476,32.2564,23.485,32.2564,23.485z"/>
<path fill="#444547" d="M42.8531,23.5173c-0.0028,0.042-0.0056,0.084-0.0084,0.126c-0.1501-0.079-0.0039-0.0806,0.0291-0.1118
	C42.8738,23.5314,42.8531,23.5173,42.8531,23.5173z"/>
<path fill="#444547" d="M19.2053,32.3219c0.0388,0.0082,0.0776,0.0164,0.1164,0.0246c-0.017,0.0076-0.0426,0.0262-0.0495,0.0209
	c-0.022-0.0171-0.0371-0.0431-0.055-0.0653C19.217,32.3024,19.2053,32.3219,19.2053,32.3219z"/>
<path fill="#444547" d="M59.5176,40.3472c-0.086-0.1148-0.0482-0.2187,0.0278-0.3193c0.0425,0.0323,0.0828,0.0679,0.1203,0.1066
	c-0.0556,0.0729-0.1112,0.1458-0.1667,0.2187L59.5176,40.3472z"/>
<polygon fill="#444547" points="59.499,40.3532 59.4688,40.3331 59.5171,40.3472 "/>
</svg>
