<?xml version="1.0" encoding="utf-8"?>
<!-- Generator: Adobe Illustrator 24.1.0, SVG Export Plug-In . SVG Version: 6.00 Build 0)  -->
<svg version="1.1" id="Layer_1" xmlns="http://www.w3.org/2000/svg" xmlns:xlink="http://www.w3.org/1999/xlink" x="0px" y="0px"
	 viewBox="0 0 77.1 60.6" style="enable-background:new 0 0 77.1 60.6;" xml:space="preserve">
<g>
	<path d="M37.5,11.4c-1.1,0.8-2,1.8-2.6,2.8l-4.7-2.3l-0.1-0.3l0.3-1.4c0-0.2,0-0.4,0-0.6c-0.1-1.3-0.9-2.4-2.1-2.9l-9.4-3.3
		c-1.7-0.6-3.5,0.3-4.1,2c0,0.1-0.1,0.3-0.1,0.4c0,0.1-0.1,0.3-0.1,0.4l-1.3,11.1c-0.1,1.1,0.6,2.1,1.7,2.3l-2,1.4
		c-0.3,0.2-0.4,0.5-0.2,0.8c0.2,0.3,0.6,0.3,0.8,0.1l2.7-1.9l0.5,1.2c0,0,0,0.1,0,0.1l0.8,1.8l0.7,2.3c-0.8,0.3-1.5,0.7-2.2,1.2
		C12,29.6,11,35.3,14,39.5c2.9,4.1,8.7,5.1,12.8,2.2c4.1-2.9,5.1-8.7,2.2-12.8c-2.2-3.1-5.9-4.4-9.4-3.7l-0.4-1.3l10.2,1.9l2.9,2.2
		c0.8,0.6,1.8,0.6,2.6,0c0.2-0.1,0.3-0.3,0.4-0.4c0.4-0.5,0.5-1.1,0.4-1.7l0.6-0.5c3.1,3.2,8.2,3.8,12,1.1c4.1-2.9,5.1-8.7,2.2-12.8
		C47.4,9.4,41.7,8.5,37.5,11.4z M27.7,29.7c2.5,3.4,1.7,8.3-1.8,10.7c-3.4,2.5-8.3,1.7-10.7-1.8c-2.5-3.4-1.7-8.3,1.8-10.7
		c0.5-0.4,1.1-0.7,1.7-0.9l2.1,7.4c0.1,0.3,0.5,0.5,0.8,0.4c0.1,0,0.1-0.1,0.2-0.1c0.2-0.2,0.3-0.4,0.2-0.7L20,26.6
		C22.8,26,25.9,27.1,27.7,29.7z M28.7,19.8l1-5.5l2.9,8.5L28.7,19.8z M18.5,10.1l7.1,2.5l-0.3,1.7l-7.8,5.5l-0.4-1c0,0,0,0,0,0
		c0.2-0.3,0.3-0.6,0.4-1L18.5,10.1z M18.7,22.4l-0.5-1l6.6-4.7l-0.7,3.7c-0.1,0.8,0.2,1.6,0.8,2.1l2,1.5L18.7,22.4z M35.4,24.2
		C35.4,24.2,35.5,24.2,35.4,24.2L35,24.6c-0.1,0-0.1-0.1-0.2-0.1l-0.3-0.2l-3.7-10.6l3.5,1.7C33.2,18.2,33.5,21.6,35.4,24.2z
		 M35.7,16.1l6,2.9l-5.1,4.2C35.1,21.1,34.8,18.4,35.7,16.1z M47.3,25.2c-3.1,2.2-7.3,1.8-9.9-0.9l5.9-4.9c0.2-0.1,0.3-0.4,0.2-0.6
		c0-0.2-0.2-0.4-0.4-0.5L36.3,15c0.5-0.9,1.2-1.7,2.1-2.3c3.5-2.5,8.3-1.7,10.7,1.8C51.6,17.9,50.8,22.7,47.3,25.2z"/>
	<circle cx="10.8" cy="3.4" r="3.4"/>
	<polygon points="0,60.6 77.1,5.9 77.1,60.6 	"/>
</g>
</svg>
