<?xml version="1.0" encoding="utf-8"?>
<!-- Generator: Adobe Illustrator 24.1.0, SVG Export Plug-In . SVG Version: 6.00 Build 0)  -->
<svg version="1.1" id="Layer_1" xmlns="http://www.w3.org/2000/svg" xmlns:xlink="http://www.w3.org/1999/xlink" x="0px" y="0px"
	 width="77.1px" height="61.1058px" viewBox="0 0 77.1 61.1058" enable-background="new 0 0 77.1 61.1058" xml:space="preserve">
<g>
	<path fill="#A81E22" stroke="#000000" stroke-width="0.75" stroke-miterlimit="10" d="M37.5,11.9058c-1.1,0.8-2,1.8-2.6,2.8
		l-4.7-2.3l-0.1-0.3l0.3-1.4c0-0.2,0-0.4,0-0.6c-0.1-1.3-0.9-2.4-2.1-2.9l-9.4-3.3c-1.7-0.6-3.5,0.3-4.1,2c0,0.1-0.1,0.3-0.1,0.4
		s-0.1,0.3-0.1,0.4l-1.3,11.1c-0.1,1.1,0.6,2.1,1.7,2.3l-2,1.4c-0.3,0.2-0.4,0.5-0.2,0.8s0.6,0.3,0.8,0.1l2.7-1.9l0.5,1.2v0.1
		l0.8,1.8l0.7,2.3c-0.8,0.3-1.5,0.7-2.2,1.2c-4.1,3-5.1,8.7-2.1,12.9c2.9,4.1,8.7,5.1,12.8,2.2c4.1-2.9,5.1-8.7,2.2-12.8
		c-2.2-3.1-5.9-4.4-9.4-3.7l-0.4-1.3l10.2,1.9l2.9,2.2c0.8,0.6,1.8,0.6,2.6,0c0.2-0.1,0.3-0.3,0.4-0.4c0.4-0.5,0.5-1.1,0.4-1.7
		l0.6-0.5c3.1,3.2,8.2,3.8,12,1.1c4.1-2.9,5.1-8.7,2.2-12.8C47.4,9.9058,41.7,9.0058,37.5,11.9058z M27.7,30.2058
		c2.5,3.4,1.7,8.3-1.8,10.7c-3.4,2.5-8.3,1.7-10.7-1.8c-2.5-3.4-1.7-8.3,1.8-10.7c0.5-0.4,1.1-0.7,1.7-0.9l2.1,7.4
		c0.1,0.3,0.5,0.5,0.8,0.4c0.1,0,0.1-0.1,0.2-0.1c0.2-0.2,0.3-0.4,0.2-0.7l-2-7.4C22.8,26.5058,25.9,27.6058,27.7,30.2058z
		 M28.7,20.3058l1-5.5l2.9,8.5L28.7,20.3058z M18.5,10.6058l7.1,2.5l-0.3,1.7l-7.8,5.5l-0.4-1l0,0c0.2-0.3,0.3-0.6,0.4-1
		L18.5,10.6058z M18.7,22.9058l-0.5-1l6.6-4.7l-0.7,3.7c-0.1,0.8,0.2,1.6,0.8,2.1l2,1.5L18.7,22.9058z M35.4,24.7058
		C35.4,24.7058,35.5,24.7058,35.4,24.7058l-0.4,0.4c-0.1,0-0.1-0.1-0.2-0.1l-0.3-0.2l-3.7-10.6l3.5,1.7
		C33.2,18.7058,33.5,22.1058,35.4,24.7058z M35.7,16.6058l6,2.9l-5.1,4.2C35.1,21.6058,34.8,18.9058,35.7,16.6058z M47.3,25.7058
		c-3.1,2.2-7.3,1.8-9.9-0.9l5.9-4.9c0.2-0.1,0.3-0.4,0.2-0.6c0-0.2-0.2-0.4-0.4-0.5l-6.8-3.3c0.5-0.9,1.2-1.7,2.1-2.3
		c3.5-2.5,8.3-1.7,10.7,1.8C51.6,18.4058,50.8,23.2058,47.3,25.7058z"/>
	<circle fill="#A81E22" stroke="#000000" stroke-width="0.75" stroke-miterlimit="10" cx="10.8" cy="3.9058" r="3.4"/>
	<polygon fill="#A81E22" stroke="#000000" stroke-width="0.75" stroke-miterlimit="10" points="0,61.1058 77.1,6.4058 77.1,61.1058 
			"/>
</g>
</svg>
