<?xml version="1.0" encoding="utf-8"?>
<!-- Generator: Adobe Illustrator 24.1.0, SVG Export Plug-In . SVG Version: 6.00 Build 0)  -->
<svg version="1.1" id="Layer_1" xmlns="http://www.w3.org/2000/svg" xmlns:xlink="http://www.w3.org/1999/xlink" x="0px" y="0px"
	 viewBox="0 0 67.1 67.3" style="enable-background:new 0 0 67.1 67.3;" xml:space="preserve">
<g>
	<path d="M35.3,33.7c-0.3-0.1-0.7-0.3-1.1-0.5c-0.3-0.1-0.6-0.2-1-0.4h-5.4l-0.4,2.7h11.8L35.3,33.7z"/>
	<path d="M5.7,58.4c-0.9-1.5-1.4-3.3-1.4-5.2c0-5,3.7-9.2,8.5-10c0.1-1,0.2-1.9,0.3-2.7C6.7,41.1,1.6,46.7,1.6,53.2
		c0,1.7,0.3,3.4,1,5c0.4,1,1,1.9,1.6,2.8c0.2-0.7,0.5-1.3,1-1.9C5.4,58.8,5.5,58.6,5.7,58.4z"/>
	<path d="M24.3,51.5h-4.1c-0.3,0.9-0.6,1.8-1,2.6h5.2c-0.5,5.1-4.9,9.1-10.1,9.1c-0.6,0-1.2-0.1-1.8-0.2l-0.4,0.5
		c-0.6,0.7-1.2,1.2-2,1.6c1.3,0.5,2.7,0.7,4.2,0.7c5.1,0,9.8-3.1,11.8-7.8c0.2-0.5,0.4-1,0.5-1.5c0-0.1-0.1-0.1-0.1-0.2L24.3,51.5z"
		/>
	<path d="M34.5,53.4C34.6,53.4,34.6,53.4,34.5,53.4l11.2-16.8c-0.6,0.3-1.3,0.5-2,0.5c-0.5,0-0.9-0.1-1.4-0.2l-9,13.6l-0.2-0.3
		c0.1,0.2,0.2,0.4,0.2,0.5C33.8,51.6,34.2,52.5,34.5,53.4z"/>
	<path d="M64.5,48c-2-4.6-6.7-7.6-11.7-7.6c-0.9,0-1.7,0.1-2.6,0.3L45.1,25C45,24.4,44.4,24,43.8,24h-6.5c-0.7,0-1.3,0.6-1.3,1.3
		c0,0.3,0.1,0.6,0.3,0.9c0.2,0.1,0.3,0.2,0.5,0.4c0.2,0.1,0.3,0.1,0.5,0.1h5.6l1.1,3.4c0.5,0.2,1,0.4,1.5,0.6c2,0.9,2.4,2.4,2.2,3.6
		c-0.2,0.9-0.8,1.6-1.6,2.1l1.6,5c-1.5,0.6-2.8,1.5-4,2.7c-7.2,7.2-3.1,20.1,7,21.7c4.8,0.8,9.8-1.3,12.6-5.3
		C65.9,56.8,66.2,52.1,64.5,48z M52.8,63.3c-5.6,0-10.2-4.6-10.2-10.2c0-4.1,2.4-7.6,5.9-9.2l3,9.3c0.5,1.6,3.1,1,2.5-0.8l-3-9.2
		c0.6-0.1,1.2-0.2,1.7-0.2c5.5,0,10.2,4.6,10.2,10.2C62.9,58.7,58.3,63.3,52.8,63.3z"/>
	<circle cx="25.2" cy="5.7" r="5.7"/>
	<path d="M33.8,54.1c-1.2-2.9-2.4-5.8-3.7-8.8c-0.5-1.2-1.1-2.4-1.6-3.7c-0.9-1.9-2.3-3.8-2-5.9c0-0.1,0-0.2,0-0.2
		c0.1-0.9,0.3-1.8,0.4-2.7c0.4-2.5,0.7-5,1.1-7.5c0.8,1.4,1.6,3.4,2.7,4.6c0.8,1.4,3.8,2.2,5.1,2.8c0.1,0,0.1,0.1,0.2,0.1
		c1.9,0.9,3.8,1.8,5.8,2.7L43,36c0.3,0.1,0.5,0.1,0.8,0.1c2.7,0,4.3-3.1,1.3-4.5c-0.2-0.1-0.4-0.2-0.6-0.3
		c-3.1-1.3-8.5-3.2-10.1-5.9c-2.2-3.8-4.1-12.6-11.8-12.6c0,0,0,0-0.1,0c-3.4,0-8.9,5.6-12.9,8.2c-1.8,1.2-1.8,4.4-2.1,6.3
		c-0.4,2.5-0.8,5-1.3,7.5c-0.3,1.8,0.7,2.9,2.1,2.9c0.5,0,1-0.1,1.6-0.4c1.1-0.6,1.6-2.1,1.8-3.3c0.5-3,1.2-5.3,1.7-8.3l3.6-2.9
		l-3,17.6c-0.1,0.8-0.2,1.7-0.3,2.7c0,0.4-0.1,0.8-0.1,1.2c-0.3,2.9-0.7,5.9-1.4,6.8c-2.1,2.8-3.8,5.5-5.9,8.3
		c-0.1,0.1-0.2,0.2-0.3,0.4c-0.7,0.8-0.9,1.6-0.9,2.3c0,1.6,1.4,2.8,3.1,2.8c0.2,0,0.4,0,0.6-0.1c0.9-0.1,1.9-0.6,2.6-1.6
		c0,0,0.1-0.1,0.1-0.1c2-2.5,3.9-5,5.9-7.5c0.3-0.4,0.6-0.8,0.8-1.2c0.5-0.8,0.8-1.7,1.1-2.6c0.6-2.1,0.9-4.4,1.1-6.6
		c0.1-1,0.2-2,0.4-2.9c0-0.2,0.1-0.4,0.1-0.5c0.1,0.3,0.2,0.5,0.4,0.8l9.5,20.4c0.7,1.6,2,2.2,3.2,2.2c2,0,3.9-1.9,2.6-4.6
		C35.5,58.3,34.6,56.2,33.8,54.1z"/>
</g>
</svg>
