<?xml version="1.0" encoding="utf-8"?>
<!-- Generator: Adobe Illustrator 24.1.0, SVG Export Plug-In . SVG Version: 6.00 Build 0)  -->
<svg version="1.1" id="Layer_1" xmlns="http://www.w3.org/2000/svg" xmlns:xlink="http://www.w3.org/1999/xlink" x="0px" y="0px"
	 width="67.1px" height="67.3px" viewBox="0 0 67.1 67.3" enable-background="new 0 0 67.1 67.3" xml:space="preserve">
<g>
	<path fill="#72BF44" stroke="#000000" stroke-width="2" stroke-miterlimit="10" d="M35.3,34.6508
		c-0.3-0.0971-0.7-0.2912-1.1-0.4853c-0.3-0.0971-0.6-0.1941-1-0.3882h-5.4l-0.4,2.6204h11.8L35.3,34.6508z"/>
	<path fill="#72BF44" stroke="#000000" stroke-width="2" stroke-miterlimit="10" d="M5.7,58.623c-0.9-1.4558-1.4-3.2028-1.4-5.0468
		c0-4.8527,3.7-8.9289,8.5-9.7053c0.1-0.9705,0.2-1.844,0.3-2.6204C6.7,41.8327,1.6,47.2677,1.6,53.5762
		c0,1.6499,0.3,3.2998,1,4.8527c0.4,0.9705,1,1.844,1.6,2.7175c0.2-0.6794,0.5-1.2617,1-1.844C5.4,59.0112,5.5,58.8171,5.7,58.623z"
		/>
	<path fill="#72BF44" stroke="#000000" stroke-width="2" stroke-miterlimit="10" d="M24.3,51.9263h-4.1
		c-0.3,0.8735-0.6,1.747-1,2.5234h5.2c-0.5,4.9497-4.9,8.8319-10.1,8.8319c-0.6,0-1.2-0.0971-1.8-0.1941l-0.4,0.4853
		c-0.6,0.6794-1.2,1.1646-2,1.5529c1.3,0.4853,2.7,0.6794,4.2,0.6794c5.1,0,9.8-3.0087,11.8-7.5702
		c0.2-0.4853,0.4-0.9705,0.5-1.4558c0-0.0971-0.1-0.0971-0.1-0.1941L24.3,51.9263z"/>
	<path fill="#72BF44" stroke="#000000" stroke-width="2" stroke-miterlimit="10" d="M34.5,53.7703
		C34.6,53.7703,34.6,53.7703,34.5,53.7703l11.2-16.305c-0.6,0.2912-1.3,0.4853-2,0.4853c-0.5,0-0.9-0.0971-1.4-0.1941l-9,13.1993
		l-0.2-0.2912c0.1,0.1941,0.2,0.3882,0.2,0.4853C33.8,52.0234,34.2,52.8968,34.5,53.7703z"/>
	<path fill="#72BF44" stroke="#000000" stroke-width="2" stroke-miterlimit="10" d="M64.5,48.5294c-2-4.4645-6.7-7.3761-11.7-7.3761
		c-0.9,0-1.7,0.097-2.6,0.2912l-5.1-15.2374c-0.1-0.5823-0.7-0.9705-1.3-0.9705h-6.5c-0.7,0-1.3,0.5823-1.3,1.2617
		c0,0.2912,0.1,0.5823,0.3,0.8735c0.2,0.0971,0.3,0.1941,0.5,0.3882c0.2,0.0971,0.3,0.0971,0.5,0.0971h5.6l1.1,3.2998
		c0.5,0.1941,1,0.3882,1.5,0.5823c2,0.8735,2.4,2.3293,2.2,3.4939c-0.2,0.8735-0.8,1.5529-1.6,2.0381l1.6,4.8527
		c-1.5,0.5823-2.8,1.4558-4,2.6204c-7.2,6.9879-3.1,19.5078,7,21.0606c4.8,0.7764,9.8-1.2617,12.6-5.1438
		C65.9,57.0701,66.2,52.5086,64.5,48.5294z M52.8,63.3786c-5.6,0-10.2-4.4645-10.2-9.8995c0-3.9792,2.4-7.3761,5.9-8.9289l3,9.026
		c0.5,1.5529,3.1,0.9705,2.5-0.7764l-3-8.9289c0.6-0.0971,1.2-0.1941,1.7-0.1941c5.5,0,10.2,4.4645,10.2,9.8995
		C62.9,58.9142,58.3,63.3786,52.8,63.3786z"/>
	<ellipse fill="#72BF44" stroke="#000000" stroke-width="2" stroke-miterlimit="10" cx="25.2" cy="7.4758" rx="5.7" ry="5.5321"/>
	<path fill="#72BF44" stroke="#000000" stroke-width="2" stroke-miterlimit="10" d="M33.8,54.4497
		c-1.2-2.8146-2.4-5.6291-3.7-8.5407c-0.5-1.1646-1.1-2.3293-1.6-3.591c-0.9-1.844-2.3-3.688-2-5.7262c0-0.0971,0-0.1941,0-0.1941
		c0.1-0.8735,0.3-1.747,0.4-2.6204c0.4-2.4263,0.7-4.8527,1.1-7.279c0.8,1.3587,1.6,3.2998,2.7,4.4645
		c0.8,1.3587,3.8,2.1352,5.1,2.7175c0.1,0,0.1,0.097,0.2,0.097c1.9,0.8735,3.8,1.747,5.8,2.6204L43,36.883
		c0.3,0.097,0.5,0.097,0.8,0.097c2.7,0,4.3-3.0087,1.3-4.3674c-0.2-0.0971-0.4-0.1941-0.6-0.2912
		c-3.1-1.2617-8.5-3.1057-10.1-5.7262c-2.2-3.688-4.1-12.2287-11.8-12.2287c0,0,0,0-0.1,0c-3.4,0-8.9,5.435-12.9,7.9584
		c-1.8,1.1646-1.8,4.2704-2.1,6.1144c-0.4,2.4263-0.8,4.8527-1.3,7.279c-0.3,1.747,0.7,2.8146,2.1,2.8146c0.5,0,1-0.0971,1.6-0.3882
		c1.1-0.5823,1.6-2.0381,1.8-3.2028c0.5-2.9116,1.2-5.1438,1.7-8.0554l3.6-2.8146l-3,17.0814c-0.1,0.7764-0.2,1.6499-0.3,2.6204
		c0,0.3882-0.1,0.7764-0.1,1.1646c-0.3,2.8146-0.7,5.7262-1.4,6.5996c-2.1,2.7175-3.8,5.3379-5.9,8.0554
		c-0.1,0.0971-0.2,0.1941-0.3,0.3882c-0.7,0.7764-0.9,1.5529-0.9,2.2322c0,1.5529,1.4,2.7175,3.1,2.7175c0.2,0,0.4,0,0.6-0.0971
		c0.9-0.0971,1.9-0.5823,2.6-1.5529l0.1-0.0971c2-2.4263,3.9-4.8527,5.9-7.279c0.3-0.3882,0.6-0.7764,0.8-1.1646
		c0.5-0.7764,0.8-1.6499,1.1-2.5234c0.6-2.0381,0.9-4.2704,1.1-6.4055c0.1-0.9705,0.2-1.9411,0.4-2.8146
		c0-0.1941,0.1-0.3882,0.1-0.4853c0.1,0.2912,0.2,0.4853,0.4,0.7764l9.5,19.7989c0.7,1.5529,2,2.1352,3.2,2.1352
		c2,0,3.9-1.844,2.6-4.4645C35.5,58.5259,34.6,56.4878,33.8,54.4497z"/>
</g>
</svg>
