<?xml version="1.0" encoding="UTF-8" standalone="no"?>
<svg
   id="svg"
   version="1.1"
   width="97.585915"
   height="97.580704"
   viewBox="0 0 400.10225 400.08089"
   sodipodi:docname="estrail.svg"
   inkscape:version="1.1 (c4e8f9e, 2021-05-24)"
   xmlns:inkscape="http://www.inkscape.org/namespaces/inkscape"
   xmlns:sodipodi="http://sodipodi.sourceforge.net/DTD/sodipodi-0.dtd"
   xmlns="http://www.w3.org/2000/svg"
   xmlns:svg="http://www.w3.org/2000/svg">
  <defs
     id="defs9" />
  <sodipodi:namedview
     id="namedview7"
     pagecolor="#505050"
     bordercolor="#ffffff"
     borderopacity="1"
     inkscape:pageshadow="0"
     inkscape:pageopacity="0"
     inkscape:pagecheckerboard="1"
     showgrid="false"
     scale-x="4.1"
     fit-margin-top="0"
     fit-margin-left="0"
     fit-margin-right="0"
     fit-margin-bottom="0"
     inkscape:zoom="1.8825"
     inkscape:cx="41.168659"
     inkscape:cy="200"
     inkscape:window-width="1296"
     inkscape:window-height="997"
     inkscape:window-x="0"
     inkscape:window-y="25"
     inkscape:window-maximized="0"
     inkscape:current-layer="svg" />
  <g
     id="svgg"
     transform="translate(0.06641565,0.04790197)">
    <path
       id="path0"
       d="m 183.398,0.559 c -0.288,0.405 -2.162,0.677 -6.799,0.986 -3.521,0.235 -6.941,0.612 -7.6,0.837 -0.659,0.225 -2.999,0.676 -5.199,1.002 -2.2,0.326 -4.984,0.868 -6.187,1.205 -1.203,0.336 -2.681,0.611 -3.285,0.611 -0.604,0 -2.012,0.36 -3.128,0.8 -1.116,0.44 -2.388,0.8 -2.825,0.8 -0.726,0 -4.589,1.117 -9.175,2.654 -0.99,0.331 -2.52,0.79 -3.4,1.02 -0.88,0.23 -2.332,0.757 -3.226,1.172 -0.895,0.415 -1.887,0.754 -2.206,0.754 -0.319,0 -1.252,0.36 -2.072,0.8 -0.821,0.44 -1.719,0.802 -1.995,0.804 -0.275,0.002 -1.401,0.446 -2.501,0.987 -1.1,0.541 -2.215,0.99 -2.479,0.996 -0.263,0.007 -1.325,0.463 -2.359,1.013 -1.035,0.55 -2.102,1 -2.373,1 -0.27,0 -0.711,0.265 -0.98,0.589 -0.269,0.325 -1.103,0.705 -1.854,0.846 -0.75,0.141 -1.459,0.41 -1.576,0.6 -0.117,0.189 -1.78,1.103 -3.696,2.032 -1.916,0.928 -3.573,1.813 -3.683,1.965 -0.11,0.153 -0.83,0.575 -1.6,0.937 -0.77,0.363 -2.12,1.102 -3,1.642 -0.88,0.541 -2.154,1.244 -2.832,1.563 -0.677,0.319 -1.464,0.86 -1.749,1.203 C 95.335,29.72 94.916,30 94.688,30 93.986,30 82.951,37.607 76.679,42.414 68.717,48.516 58.162,58.348 51.6,65.776 c -2.09,2.366 -4.261,4.787 -4.825,5.381 -0.564,0.594 -1.82,2.151 -2.791,3.461 -0.971,1.31 -2.777,3.642 -4.012,5.182 -1.236,1.54 -2.479,3.239 -2.764,3.775 -0.284,0.536 -0.669,1.166 -0.856,1.4 -1.211,1.515 -2.309,3.036 -3.193,4.425 -0.561,0.88 -1.747,2.695 -2.635,4.034 -1.587,2.389 -6.22,10.38 -7.245,12.492 -0.286,0.591 -0.687,1.344 -0.891,1.674 -0.204,0.33 -1.015,1.95 -1.803,3.6 -0.788,1.65 -1.608,3.27 -1.821,3.6 -0.213,0.33 -0.5,0.94 -0.637,1.355 -0.137,0.416 -0.672,1.55 -1.188,2.522 -0.517,0.971 -0.939,1.982 -0.939,2.247 0,0.265 -0.45,1.328 -1,2.361 -0.55,1.033 -1.001,2.202 -1.003,2.597 -10e-4,0.395 -0.36,1.258 -0.797,1.918 -0.437,0.66 -0.796,1.563 -0.797,2.006 -0.002,0.443 -0.35,1.454 -0.775,2.246 -0.424,0.792 -0.901,2.139 -1.058,2.994 -0.158,0.855 -0.621,2.181 -1.029,2.948 -0.407,0.767 -0.745,1.847 -0.75,2.4 -0.005,0.553 -0.352,1.764 -0.773,2.689 -0.42,0.926 -0.89,2.546 -1.043,3.6 -0.153,1.055 -0.518,2.389 -0.811,2.967 -0.293,0.577 -0.722,2.238 -0.954,3.69 -0.232,1.452 -0.609,3.131 -0.837,3.732 -0.229,0.601 -0.673,2.925 -0.987,5.166 -0.315,2.241 -0.762,4.572 -0.993,5.18 -0.231,0.608 -0.607,3.553 -0.836,6.544 -0.293,3.838 -0.584,5.569 -0.986,5.882 -0.841,0.654 -0.854,36.042 -0.014,36.712 0.398,0.318 0.684,2.319 1.004,7.044 0.246,3.63 0.697,7.422 1.002,8.428 0.305,1.005 0.687,3.255 0.849,5 0.161,1.744 0.63,4.23 1.041,5.524 0.411,1.294 0.755,2.914 0.765,3.6 0.009,0.686 0.283,1.968 0.607,2.848 0.325,0.88 0.844,2.68 1.153,4 0.309,1.32 0.838,3.12 1.175,4 0.336,0.88 0.62,2.012 0.629,2.516 0.01,0.504 0.363,1.592 0.785,2.419 0.421,0.826 0.898,2.214 1.058,3.084 0.161,0.869 0.626,2.208 1.034,2.975 0.407,0.767 0.742,1.757 0.744,2.2 10e-4,0.443 0.36,1.346 0.797,2.006 0.437,0.66 0.798,1.47 0.801,1.8 0.003,0.33 0.449,1.5 0.99,2.6 0.541,1.1 0.99,2.215 0.996,2.479 0.007,0.263 0.435,1.273 0.952,2.244 0.516,0.972 1.051,2.106 1.188,2.522 0.137,0.415 0.424,1.025 0.637,1.355 0.213,0.33 1.074,2.015 1.912,3.744 2.195,4.53 2.524,5.187 2.927,5.856 0.199,0.33 1.383,2.4 2.631,4.6 1.248,2.2 2.696,4.509 3.217,5.131 0.522,0.622 0.949,1.29 0.949,1.486 0,0.195 0.545,1.126 1.211,2.069 0.666,0.943 2.004,2.884 2.975,4.314 3.046,4.489 4.812,7.016 5.324,7.618 0.272,0.32 2.234,2.742 4.361,5.382 5.376,6.674 13.509,15.563 17.433,19.055 1.813,1.613 4.286,3.866 5.496,5.007 2.558,2.413 11.473,9.738 11.851,9.738 0.142,0 0.664,0.405 1.162,0.9 1.71,1.702 13.64,9.874 14.438,9.891 0.248,0.005 0.67,0.273 0.938,0.596 0.695,0.837 6.983,4.491 12.694,7.376 1.806,0.912 3.383,1.82 3.505,2.017 0.121,0.197 0.804,0.486 1.517,0.641 0.712,0.156 1.724,0.62 2.249,1.031 0.525,0.411 1.25,0.748 1.611,0.748 0.361,0 1.102,0.312 1.646,0.694 0.544,0.382 1.799,0.99 2.789,1.351 0.99,0.361 2.7,1.022 3.8,1.469 1.1,0.446 2.63,1.033 3.4,1.303 0.77,0.271 2.21,0.813 3.2,1.206 2.17,0.86 4.967,1.792 8.2,2.733 1.32,0.384 2.76,0.888 3.2,1.12 0.44,0.232 1.7,0.55 2.8,0.708 1.1,0.157 3.029,0.63 4.287,1.051 1.258,0.421 2.72,0.765 3.248,0.765 0.529,0 2.019,0.335 3.313,0.745 1.294,0.409 3.668,0.871 5.277,1.026 1.609,0.155 3.769,0.543 4.8,0.861 1.031,0.319 4.821,0.79 8.421,1.048 4.32,0.309 6.724,0.647 7.071,0.994 0.623,0.623 34.183,0.789 34.183,0.169 0,-0.563 1.375,-0.777 8,-1.241 3.41,-0.24 7.031,-0.681 8.046,-0.981 1.015,-0.3 3.085,-0.677 4.6,-0.837 1.515,-0.159 3.812,-0.626 5.106,-1.037 1.294,-0.411 2.873,-0.747 3.51,-0.747 0.637,0 2.156,-0.351 3.377,-0.78 1.22,-0.429 3.054,-0.905 4.076,-1.058 1.022,-0.153 2.585,-0.609 3.472,-1.012 0.887,-0.403 2.117,-0.736 2.733,-0.741 0.616,-0.005 1.696,-0.307 2.4,-0.671 0.704,-0.365 2.09,-0.896 3.08,-1.182 3.062,-0.884 6.513,-2.19 7.365,-2.786 0.447,-0.314 1.141,-0.57 1.542,-0.57 0.401,0 1.575,-0.45 2.608,-1 1.033,-0.55 2.096,-1 2.361,-1 0.265,0 1.276,-0.422 2.247,-0.939 0.972,-0.516 2.106,-1.051 2.522,-1.188 0.415,-0.137 1.025,-0.431 1.355,-0.652 0.33,-0.221 1.23,-0.672 2,-1.003 0.77,-0.331 1.67,-0.766 2,-0.967 0.33,-0.201 1.05,-0.574 1.6,-0.828 1.46,-0.675 3.312,-1.612 4,-2.024 0.33,-0.197 2.4,-1.388 4.6,-2.645 2.2,-1.257 4.509,-2.706 5.131,-3.22 0.622,-0.514 1.281,-0.934 1.466,-0.934 0.305,0 3.653,-2.197 7.803,-5.12 0.88,-0.62 2.517,-1.758 3.639,-2.53 1.121,-0.772 2.291,-1.616 2.6,-1.876 0.308,-0.259 3.189,-2.607 6.402,-5.217 3.212,-2.61 6.992,-5.829 8.4,-7.154 1.407,-1.325 3.149,-2.9 3.87,-3.501 1.143,-0.951 6.485,-6.637 11.484,-12.221 0.877,-0.979 3.35,-3.941 5.495,-6.581 2.145,-2.64 4.128,-5.063 4.405,-5.385 0.278,-0.321 1.135,-1.512 1.905,-2.646 0.77,-1.134 2.3,-3.368 3.4,-4.964 1.1,-1.596 2.196,-3.239 2.436,-3.651 0.239,-0.412 0.734,-1.079 1.1,-1.483 0.365,-0.404 0.664,-0.931 0.664,-1.172 0,-0.241 0.412,-0.946 0.916,-1.568 0.503,-0.622 1.137,-1.581 1.408,-2.131 0.27,-0.55 0.926,-1.72 1.457,-2.6 2.19,-3.628 2.844,-4.756 3.34,-5.752 0.286,-0.577 0.693,-1.318 0.903,-1.648 0.21,-0.33 0.561,-1.005 0.779,-1.5 0.218,-0.495 0.576,-1.305 0.794,-1.8 0.218,-0.495 0.567,-1.17 0.774,-1.5 0.349,-0.556 1.527,-3.11 3.229,-7 0.385,-0.88 1.173,-2.608 1.75,-3.84 0.578,-1.232 1.05,-2.554 1.05,-2.937 0,-0.383 0.36,-1.154 0.8,-1.714 0.44,-0.559 0.8,-1.364 0.8,-1.789 0,-0.424 0.351,-1.615 0.781,-2.646 0.429,-1.031 0.987,-2.684 1.239,-3.674 0.252,-0.99 0.62,-1.998 0.818,-2.24 0.198,-0.241 0.54,-1.411 0.759,-2.6 0.22,-1.188 0.582,-2.52 0.804,-2.96 0.534,-1.059 1.94,-6.239 2.442,-9 0.22,-1.21 0.743,-3.55 1.162,-5.2 0.42,-1.65 0.879,-4.134 1.021,-5.521 0.141,-1.386 0.507,-3.456 0.812,-4.6 0.304,-1.143 0.766,-5.021 1.026,-8.618 0.341,-4.724 0.62,-6.595 1.004,-6.742 0.629,-0.242 0.803,-29.719 0.175,-29.719 -0.584,0 -0.821,-1.6 -1.223,-8.274 -0.211,-3.489 -0.639,-7.33 -0.952,-8.535 -0.313,-1.205 -0.697,-3.541 -0.852,-5.191 -0.156,-1.65 -0.628,-4.144 -1.049,-5.542 -0.422,-1.398 -0.767,-3.068 -0.767,-3.71 0,-0.642 -0.342,-2.141 -0.76,-3.331 -0.418,-1.19 -0.882,-2.941 -1.03,-3.89 -0.147,-0.95 -0.596,-2.627 -0.997,-3.727 -0.401,-1.1 -0.909,-2.72 -1.127,-3.6 -0.219,-0.88 -0.621,-2.23 -0.894,-3 -0.272,-0.77 -0.899,-2.57 -1.392,-4 -0.884,-2.564 -1.198,-3.456 -2.604,-7.4 -0.392,-1.1 -1,-2.54 -1.352,-3.2 -0.351,-0.66 -0.64,-1.375 -0.642,-1.588 -0.005,-0.877 -7.917,-16.679 -10.62,-21.212 -0.524,-0.88 -1.227,-2.173 -1.562,-2.873 -0.334,-0.7 -0.793,-1.387 -1.02,-1.527 -0.227,-0.14 -0.689,-0.827 -1.028,-1.527 -0.937,-1.939 -1.937,-3.652 -2.506,-4.294 -0.464,-0.523 -1.598,-2.213 -2.669,-3.978 -0.221,-0.365 -0.671,-0.953 -1,-1.308 C 363.269,84.738 362.55,83.8 362,83.007 361.112,81.728 360.207,80.492 358.187,77.8 350.53,67.592 334.939,51.68 325.574,44.515 c -1.664,-1.273 -3.284,-2.546 -3.6,-2.828 -1.619,-1.447 -10.865,-8.126 -13.12,-9.479 -0.36,-0.216 -1.824,-1.139 -3.254,-2.053 -1.43,-0.914 -3.088,-1.907 -3.684,-2.208 -0.596,-0.301 -2.666,-1.459 -4.6,-2.575 -4.273,-2.464 -18.234,-9.367 -18.98,-9.385 -0.295,-0.006 -1.436,-0.455 -2.536,-0.996 -1.1,-0.541 -2.27,-0.987 -2.6,-0.99 -0.33,-0.003 -1.14,-0.364 -1.8,-0.801 -0.66,-0.437 -1.563,-0.796 -2.006,-0.797 -0.443,-0.002 -1.433,-0.339 -2.2,-0.75 -0.767,-0.41 -2.024,-0.874 -2.794,-1.03 -0.77,-0.155 -2.3,-0.612 -3.4,-1.015 -4.048,-1.483 -10.701,-3.315 -15.811,-4.356 -1.876,-0.382 -3.645,-0.839 -3.93,-1.016 -0.285,-0.176 -2.35,-0.558 -4.589,-0.848 -2.238,-0.29 -5.33,-0.808 -6.87,-1.151 -1.54,-0.343 -3.79,-0.632 -5,-0.643 -3.322,-0.03 -7.763,-0.684 -7.924,-1.166 -0.238,-0.715 -32.968,-0.586 -33.478,0.131 m 29.528,9.855 c 4.881,0.227 10.224,0.679 11.874,1.003 1.65,0.324 4.71,0.756 6.8,0.959 2.09,0.203 4.34,0.561 5,0.796 0.66,0.235 2.55,0.674 4.2,0.977 5.085,0.932 9.71,2.12 15.8,4.057 1.1,0.35 2.81,0.889 3.8,1.197 3.216,1.002 6.564,2.233 8.226,3.023 0.895,0.426 1.89,0.774 2.211,0.774 0.322,0 0.94,0.246 1.374,0.546 0.434,0.3 1.239,0.683 1.789,0.849 0.55,0.167 2.35,0.933 4,1.704 1.65,0.771 3.72,1.736 4.6,2.146 0.88,0.41 1.87,0.918 2.2,1.129 0.55,0.352 1.038,0.607 4,2.086 2.357,1.178 7.596,4.183 10,5.736 5.412,3.497 13.571,8.985 14.415,9.696 0.322,0.271 2.745,2.238 5.385,4.372 5.352,4.325 5.388,4.356 8.94,7.539 2.763,2.477 2.924,2.625 6.103,5.649 2.465,2.345 8.67,9.048 9.539,10.306 0.32,0.463 0.792,1.022 1.05,1.242 0.517,0.441 5.501,6.594 6.768,8.356 0.44,0.612 1.641,2.171 2.669,3.466 1.028,1.295 1.986,2.72 2.127,3.166 0.142,0.447 0.395,0.812 0.564,0.812 0.168,0 0.901,0.945 1.63,2.1 0.728,1.155 2.079,3.27 3.001,4.7 2.834,4.395 3.189,4.967 3.722,6 0.284,0.55 0.949,1.72 1.479,2.6 0.964,1.604 6.848,13.397 8.181,16.4 0.391,0.88 1.097,2.41 1.57,3.4 0.472,0.99 0.86,2.07 0.862,2.4 10e-4,0.33 0.445,1.5 0.986,2.6 0.541,1.1 0.996,2.27 1.01,2.6 0.014,0.33 0.374,1.32 0.799,2.2 0.425,0.88 0.777,1.87 0.783,2.2 0.005,0.33 0.476,2.04 1.047,3.8 1.947,6 2.516,7.999 2.789,9.8 0.151,0.99 0.451,2.137 0.667,2.548 0.217,0.412 0.632,2.122 0.922,3.8 0.291,1.679 0.809,4.492 1.151,6.252 1.867,9.596 3.933,33.711 3.272,38.195 -0.114,0.773 -0.4,5.095 -0.637,9.605 -0.237,4.51 -0.684,9.55 -0.994,11.2 -0.31,1.65 -0.755,4.662 -0.989,6.693 -0.234,2.032 -0.603,4.159 -0.819,4.728 -0.216,0.569 -0.581,2.327 -0.81,3.907 -0.228,1.58 -0.671,3.592 -0.983,4.472 -0.313,0.88 -0.748,2.743 -0.968,4.14 -0.22,1.397 -0.588,2.767 -0.819,3.045 -0.23,0.278 -0.611,1.565 -0.846,2.86 -0.235,1.295 -0.66,2.718 -0.944,3.161 -0.284,0.443 -0.711,1.613 -0.947,2.6 -0.547,2.28 -1.902,6.12 -2.901,8.22 -0.426,0.895 -0.774,1.84 -0.774,2.102 0,0.261 -0.36,1.147 -0.8,1.968 -0.44,0.82 -0.8,1.729 -0.8,2.019 0,0.29 -0.348,1.192 -0.773,2.006 -0.425,0.813 -2.143,4.269 -3.817,7.679 -1.673,3.41 -3.57,7.1 -4.215,8.2 -0.645,1.1 -1.403,2.45 -1.685,3 -0.523,1.021 -0.793,1.456 -3.713,6 -3.37,5.243 -6.744,10.226 -7.991,11.8 -1.081,1.364 -8.361,10.356 -9.206,11.369 -0.799,0.959 -4.491,5.084 -5.74,6.413 -3.44,3.663 -5.29,5.501 -8.47,8.418 -2.038,1.87 -4.085,3.662 -4.548,3.982 -0.463,0.32 -1.022,0.792 -1.242,1.05 -0.634,0.743 -7.424,6.167 -7.727,6.173 -0.15,0.003 -0.998,0.678 -1.883,1.5 -2.119,1.967 -6.401,4.907 -16.79,11.527 -0.66,0.421 -1.65,0.996 -2.2,1.278 -0.55,0.282 -1.9,1.039 -3,1.682 -1.1,0.643 -4.79,2.538 -8.2,4.212 -3.41,1.674 -6.866,3.392 -7.679,3.82 -0.814,0.427 -1.716,0.776 -2.006,0.776 -0.29,0 -1.199,0.36 -2.019,0.8 -0.821,0.44 -1.719,0.802 -1.995,0.804 -0.275,0.002 -1.401,0.446 -2.501,0.987 -1.1,0.541 -2.324,0.99 -2.72,0.996 -0.396,0.007 -1.292,0.309 -1.991,0.67 -0.698,0.362 -2.175,0.887 -3.28,1.168 -1.105,0.28 -2.819,0.778 -3.809,1.107 -5.265,1.746 -7.085,2.268 -7.898,2.268 -0.495,0 -1.935,0.35 -3.2,0.778 -1.266,0.427 -3.202,0.892 -4.302,1.031 -1.1,0.14 -2.972,0.522 -4.159,0.851 -1.188,0.328 -4.338,0.849 -7,1.157 -2.663,0.308 -5.741,0.729 -6.841,0.936 -7.381,1.386 -37.804,1.39 -45.2,0.005 -1.1,-0.206 -4.102,-0.63 -6.671,-0.942 -2.568,-0.312 -5.616,-0.848 -6.772,-1.192 -1.156,-0.343 -2.57,-0.624 -3.142,-0.624 -0.573,0 -2.025,-0.284 -3.228,-0.631 -1.203,-0.347 -3.357,-0.86 -4.787,-1.141 -1.43,-0.28 -3.5,-0.793 -4.6,-1.139 -1.1,-0.347 -3.62,-1.106 -5.6,-1.688 -1.98,-0.581 -4.37,-1.404 -5.311,-1.829 -0.941,-0.425 -1.962,-0.772 -2.269,-0.772 -0.623,0 -5.787,-2.013 -7.632,-2.976 -0.654,-0.34 -1.433,-0.62 -1.734,-0.622 -0.3,-10e-4 -1.2,-0.348 -2,-0.771 -0.799,-0.423 -2.714,-1.327 -4.254,-2.009 -1.54,-0.681 -3.07,-1.402 -3.4,-1.602 -0.33,-0.199 -2.275,-1.21 -4.321,-2.246 -2.047,-1.036 -4.477,-2.396 -5.4,-3.021 -0.924,-0.626 -1.846,-1.142 -2.05,-1.146 -0.358,-0.007 -1.593,-0.794 -9.173,-5.845 -6.671,-4.445 -7.73,-5.179 -8.33,-5.77 -0.329,-0.326 -1.202,-1.042 -1.938,-1.592 -2.398,-1.792 -8.146,-6.505 -9.966,-8.172 -5.551,-5.083 -6.882,-6.334 -10.031,-9.428 -2.978,-2.925 -9.821,-10.42 -12.417,-13.6 -0.449,-0.55 -1.261,-1.54 -1.803,-2.2 -0.542,-0.66 -1.476,-1.903 -2.076,-2.762 -0.599,-0.859 -1.597,-2.105 -2.218,-2.77 -0.621,-0.664 -1.409,-1.749 -1.75,-2.41 -0.342,-0.661 -1.275,-2.062 -2.074,-3.115 -1.947,-2.565 -5.253,-7.744 -5.253,-8.229 0,-0.215 -0.36,-0.716 -0.8,-1.114 -0.44,-0.398 -0.8,-0.89 -0.8,-1.092 0,-0.203 -0.7,-1.57 -1.557,-3.038 -1.405,-2.412 -5.403,-10.288 -8.176,-16.11 -0.587,-1.232 -1.068,-2.492 -1.07,-2.8 -0.001,-0.308 -0.36,-1.1 -0.797,-1.76 -0.437,-0.66 -0.802,-1.47 -0.81,-1.8 -0.008,-0.33 -0.458,-1.5 -0.999,-2.6 -0.541,-1.1 -0.985,-2.322 -0.987,-2.716 -0.002,-0.394 -0.34,-1.384 -0.75,-2.2 -0.41,-0.816 -0.868,-2.157 -1.017,-2.978 -0.149,-0.822 -0.62,-2.262 -1.045,-3.2 -0.426,-0.939 -0.778,-2.063 -0.783,-2.498 -0.005,-0.436 -0.352,-1.696 -0.771,-2.8 -0.42,-1.105 -0.937,-2.908 -1.151,-4.008 -0.213,-1.1 -0.688,-3.26 -1.054,-4.8 -1.574,-6.613 -2.205,-9.747 -2.417,-12 -0.125,-1.32 -0.488,-3.66 -0.809,-5.2 -0.538,-2.59 -1.135,-10.757 -1.68,-23 -0.271,-6.081 0.832,-24.186 1.729,-28.39 0.352,-1.645 0.78,-4.345 0.953,-6 0.439,-4.205 3.12,-16.302 4.391,-19.81 0.398,-1.1 0.818,-2.666 0.933,-3.48 0.116,-0.813 0.472,-2.073 0.791,-2.8 0.577,-1.311 1.989,-5.42 2.654,-7.72 0.356,-1.234 1.584,-4.379 2.81,-7.2 0.704,-1.619 1.332,-3.009 3.574,-7.901 0.681,-1.486 1.238,-2.859 1.238,-3.051 0,-0.193 0.252,-0.559 0.561,-0.815 0.308,-0.256 0.665,-0.882 0.793,-1.391 0.127,-0.509 1.405,-3.022 2.839,-5.584 1.434,-2.563 2.607,-4.811 2.607,-4.997 0,-0.185 0.36,-0.663 0.8,-1.061 0.44,-0.398 0.804,-0.921 0.809,-1.162 0.01,-0.467 3.09,-5.267 5.274,-8.219 0.724,-0.979 1.57,-2.239 1.88,-2.8 6.41,-11.617 31.365,-36.274 48.098,-47.526 4.632,-3.114 7.918,-5.239 8.924,-5.769 0.547,-0.288 2.754,-1.52 4.905,-2.736 2.15,-1.217 5.08,-2.806 6.51,-3.532 1.43,-0.725 2.87,-1.473 3.2,-1.66 0.33,-0.188 1.86,-0.902 3.4,-1.587 1.54,-0.684 3.43,-1.574 4.2,-1.977 0.77,-0.402 1.973,-0.856 2.672,-1.008 0.7,-0.151 1.472,-0.515 1.715,-0.808 0.243,-0.293 1.03,-0.643 1.75,-0.778 0.719,-0.135 2.011,-0.604 2.87,-1.042 0.859,-0.438 1.839,-0.802 2.178,-0.81 0.338,-0.007 1.335,-0.361 2.215,-0.786 0.88,-0.425 1.894,-0.779 2.252,-0.786 0.359,-0.008 1.848,-0.464 3.31,-1.014 1.461,-0.55 3.057,-1.006 3.547,-1.014 0.49,-0.007 1.611,-0.361 2.491,-0.786 0.88,-0.425 2.076,-0.779 2.658,-0.786 0.582,-0.008 2.208,-0.369 3.613,-0.803 1.406,-0.435 3.72,-0.958 5.143,-1.164 1.422,-0.205 3.091,-0.57 3.708,-0.809 0.618,-0.239 2.778,-0.619 4.8,-0.844 2.023,-0.225 5.118,-0.681 6.878,-1.014 6.279,-1.188 23.346,-1.627 37.526,-0.966 m -26.526,15.303 -1,0.506 -0.117,8.989 c -0.181,13.896 0.504,28.043 1.389,28.69 0.842,0.616 22.401,0.248 23.217,-0.396 1.594,-1.257 0.639,-5.658 -1.335,-6.153 -0.501,-0.126 -3.485,-0.072 -6.632,0.119 -7.384,0.449 -7.522,0.357 -7.522,-5 0,-5.221 0.448,-5.694 5.108,-5.395 5.348,0.342 6.492,-0.263 6.492,-3.433 0,-3.048 0.087,-3.004 -6.4,-3.244 l -5.4,-0.2 v -4 -4 l 6.724,-0.2 c 8.233,-0.245 10.219,-1.748 7.449,-5.638 l -0.827,-1.162 -10.073,0.006 c -7.314,0.004 -10.347,0.144 -11.073,0.511 m -32.6,5.499 c -1.32,0.425 -2.67,0.777 -3,0.782 -0.33,0.005 -1.5,0.452 -2.6,0.993 -1.1,0.541 -2.205,0.99 -2.456,0.996 -0.251,0.007 -1.151,0.632 -2,1.389 l -1.544,1.375 0.76,2.125 c 0.418,1.168 0.993,3.204 1.277,4.524 0.651,3.025 1.541,6.462 2.54,9.8 1.105,3.696 1.996,7.025 2.623,9.8 0.298,1.32 0.817,3.12 1.154,4 0.336,0.88 0.619,1.983 0.628,2.451 0.034,1.631 1.668,2.211 4.823,1.713 3.89,-0.615 4.703,-2.309 3.2,-6.662 -2.102,-6.086 -2.086,-9.302 0.047,-9.302 0.41,0 3.542,2.701 7.148,6.165 4.207,4.04 5.076,4.636 6.754,4.631 2.701,-0.009 4.388,-0.489 5.718,-1.63 l 1.328,-1.138 -2.608,-2.514 c -1.435,-1.383 -4,-3.767 -5.7,-5.298 -3.42,-3.079 -3.833,-4.18 -2.16,-5.752 3.864,-3.63 3.609,-11.016 -0.55,-15.928 -2.682,-3.168 -9.765,-4.329 -15.382,-2.52 m 91.18,2.323 c -7.398,2.42 -9.785,11.699 -4.456,17.321 2.017,2.127 6.766,5.94 7.399,5.94 1.042,0 4.477,4.221 4.477,5.502 0,2.427 -1.907,3.863 -4.737,3.568 -2.583,-0.27 -7.81,-2.72 -9.477,-4.442 -2.986,-3.083 -4.185,-3.466 -5.771,-1.844 -2.811,2.876 -1.962,4.99 3.501,8.716 0.726,0.495 1.419,0.9 1.54,0.9 0.121,0 0.698,0.333 1.282,0.74 5.428,3.781 15.82,3.739 19.46,-0.08 6.221,-6.526 4.58,-12.93 -5.141,-20.06 -6.846,-5.021 -8.084,-7.659 -4.333,-9.226 3.004,-1.255 6.811,0.02 11.782,3.944 l 1.416,1.118 1.279,-0.778 c 2.604,-1.584 3.239,-3.473 1.759,-5.232 -4.112,-4.888 -14.227,-7.969 -19.98,-6.087 m -84.864,4.029 c 5.206,1.979 4.531,9.295 -1.03,11.173 -4.177,1.411 -4.92,0.583 -6.351,-7.076 -0.655,-3.506 3.243,-5.67 7.381,-4.097 M 127.8,41.147 c -4.245,1.372 -6.433,4.365 -4.415,6.04 0.321,0.267 0.702,0.874 0.847,1.349 0.332,1.089 2.092,5.067 2.595,5.864 0.208,0.33 0.581,1.05 0.829,1.6 0.247,0.55 0.949,2.08 1.559,3.4 3.201,6.925 4.617,9.933 6.22,13.215 0.971,1.989 1.765,3.827 1.765,4.086 0,1.606 3.013,1.637 5.808,0.06 2.783,-1.571 3.066,-2.483 1.643,-5.296 -0.578,-1.142 -1.051,-2.277 -1.051,-2.522 0,-0.245 -0.258,-0.66 -0.574,-0.922 -0.316,-0.262 -0.7,-1.049 -0.852,-1.749 -0.153,-0.699 -0.615,-1.701 -1.026,-2.226 -0.411,-0.525 -0.748,-1.19 -0.748,-1.479 0,-0.288 -0.422,-1.319 -0.939,-2.29 -0.516,-0.972 -1.051,-2.106 -1.188,-2.522 C 138.136,57.34 137.85,56.73 137.639,56.4 137.427,56.07 136.69,54.54 136,53 c -0.69,-1.54 -1.423,-3.07 -1.63,-3.4 -0.206,-0.33 -0.486,-0.87 -0.622,-1.2 -0.136,-0.33 -0.765,-1.694 -1.398,-3.032 -0.632,-1.337 -1.15,-2.62 -1.15,-2.851 0,-0.977 -2.054,-1.805 -3.4,-1.37 m 147.049,2.601 c -2.723,2.898 -1.553,5.071 4.198,7.797 2.622,1.243 2.65,2.398 0.151,6.255 -0.427,0.66 -1.238,2.01 -1.802,3 -0.563,0.99 -1.423,2.457 -1.91,3.259 -0.487,0.803 -1.664,2.783 -2.615,4.4 -2.396,4.077 -3.191,5.381 -4.946,8.121 -2.414,3.767 -1.71,5.444 3.19,7.6 l 1.714,0.755 1.171,-1.368 c 0.644,-0.752 1.288,-1.727 1.432,-2.167 0.143,-0.44 0.576,-1.16 0.962,-1.6 0.386,-0.44 0.951,-1.271 1.254,-1.848 0.676,-1.284 1.752,-3.115 5.14,-8.752 2.239,-3.725 2.73,-4.558 4.315,-7.33 2.004,-3.506 2.816,-3.912 4.915,-2.458 0.784,0.544 1.595,0.991 1.804,0.995 0.208,0.004 1.135,0.521 2.061,1.148 2.184,1.481 3.439,1.27 4.745,-0.799 1.681,-2.663 1.598,-2.801 -3.828,-6.361 -0.99,-0.649 -2.003,-1.184 -2.251,-1.188 -0.248,-0.004 -0.684,-0.287 -0.968,-0.63 -0.285,-0.343 -1.072,-0.884 -1.749,-1.203 -0.678,-0.319 -1.952,-1.02 -2.832,-1.558 -0.88,-0.537 -2.05,-1.201 -2.6,-1.474 -0.55,-0.273 -1.303,-0.749 -1.672,-1.056 -0.727,-0.605 -2.594,-1.686 -4.56,-2.641 -0.677,-0.33 -1.464,-0.879 -1.749,-1.222 -0.768,-0.926 -2.547,-0.764 -3.57,0.325 m -168.836,9.724 c -2.822,0.591 -7.618,3.855 -11.913,8.109 -3.388,3.355 -3.813,4.248 -2.603,5.459 0.384,0.384 0.879,1.005 1.1,1.38 0.222,0.376 1.303,1.989 2.403,3.585 1.1,1.596 2.632,3.823 3.405,4.948 0.773,1.126 2.251,3.217 3.285,4.647 3.451,4.771 7.013,9.828 8.311,11.8 1.04,1.58 2.241,1.849 4.114,0.92 3.753,-1.862 4.752,-3.628 3.298,-5.835 -1.841,-2.794 -4.342,-6.285 -4.653,-6.493 -0.322,-0.216 -1.16,-2.208 -1.16,-2.759 0,-0.173 1.125,-1.195 2.5,-2.271 9.047,-7.08 9.94,-15.224 2.379,-21.683 l -2.16,-1.846 -3.66,-0.084 c -2.012,-0.046 -4.103,0.009 -4.646,0.123 m 4.373,8.181 c 1.239,0.916 2.498,2.721 2.999,4.299 0.29,0.914 -1.122,4.25 -2.185,5.163 -3.346,2.872 -4.136,2.832 -6.239,-0.315 -0.515,-0.77 -1.569,-2.3 -2.342,-3.4 -2.093,-2.976 -1.38,-4.386 3.381,-6.69 0.986,-0.477 3.072,-0.029 4.386,0.943 M 314.6,72.762 c -1.1,0.388 -2.54,0.983 -3.2,1.323 -0.66,0.339 -2.01,0.976 -3,1.416 -0.99,0.439 -2.808,1.272 -4.04,1.849 -1.232,0.578 -2.515,1.05 -2.851,1.05 -0.336,0 -0.82,0.252 -1.076,0.561 -0.256,0.308 -0.948,0.681 -1.536,0.829 -1.197,0.3 -4.721,1.829 -6.976,3.025 -0.814,0.432 -1.68,0.785 -1.925,0.785 -0.525,0 -4.238,1.632 -6.796,2.987 -2.571,1.361 -2.571,2.325 0,4.936 2.491,2.53 3.586,2.872 5.772,1.802 0.895,-0.438 2.465,-1.175 3.489,-1.637 l 1.861,-0.839 5.042,4.875 c 3.62,3.502 5.058,5.158 5.1,5.876 0.075,1.286 -0.78,4.345 -1.503,5.377 -0.954,1.362 -0.653,2.709 1.048,4.694 1.345,1.569 4.15,3.216 4.546,2.669 0.354,-0.49 2.212,-4.715 2.435,-5.54 0.149,-0.55 0.598,-1.72 0.998,-2.6 1.803,-3.969 2.412,-5.454 2.412,-5.884 0,-0.255 0.35,-1.195 0.777,-2.09 0.427,-0.894 1.076,-2.436 1.442,-3.426 1.082,-2.931 2.019,-5.303 2.722,-6.887 0.362,-0.818 0.659,-1.697 0.659,-1.953 0,-0.256 0.338,-1.027 0.751,-1.713 0.414,-0.686 0.868,-1.904 1.011,-2.707 0.143,-0.803 0.524,-1.68 0.849,-1.949 1.439,-1.194 -0.543,-4.986 -3.574,-6.834 -1.485,-0.905 -1.858,-0.905 -4.437,0.005 M 73.103,79.5 c -0.784,0.605 -1.938,2.044 -2.564,3.197 l -1.139,2.098 1.174,2.102 c 0.645,1.157 1.762,2.945 2.482,3.974 0.72,1.029 1.583,2.469 1.918,3.2 0.336,0.731 0.839,1.678 1.118,2.106 1.051,1.607 3.323,5.155 3.698,5.777 0.215,0.355 0.821,1.316 1.347,2.135 1.636,2.547 0.666,3.326 -2.426,1.949 -2.306,-1.027 -8.026,-2.838 -8.965,-2.838 -0.417,0 -1.385,-0.334 -2.152,-0.741 -0.767,-0.408 -2.067,-0.866 -2.888,-1.017 -0.822,-0.152 -2.262,-0.625 -3.2,-1.05 -2.711,-1.231 -3.642,-1.051 -5.745,1.108 -3.537,3.63 -3.454,4.601 0.739,8.636 1.815,1.746 5.194,4.995 7.508,7.219 2.315,2.225 6.582,6.34 9.482,9.145 6.486,6.273 7.4,6.395 10.61,1.414 1.362,-2.112 -1.224,-5.392 -10.371,-13.156 -2.983,-2.533 -1.94,-3.804 1.652,-2.011 0.938,0.469 2.104,0.853 2.589,0.853 0.485,0 1.725,0.351 2.756,0.781 1.031,0.429 2.624,0.972 3.541,1.206 0.916,0.234 2.176,0.692 2.8,1.017 3.643,1.9 8.469,-3.179 6.196,-6.52 -1.658,-2.437 -2.856,-4.382 -3.771,-6.126 -0.532,-1.012 -1.271,-2.272 -1.643,-2.8 -3.181,-4.508 -3.482,-6.894 -0.609,-4.828 0.512,0.369 1.51,1.03 2.218,1.47 0.708,0.44 3.345,2.195 5.861,3.9 6.168,4.181 7.409,4.034 10.2,-1.208 l 0.97,-1.822 -0.945,-0.753 c -0.971,-0.776 -1.142,-0.89 -5.544,-3.721 -1.43,-0.92 -4.194,-2.735 -6.143,-4.034 -1.949,-1.299 -3.839,-2.538 -4.2,-2.754 C 88.308,86.603 83.508,83.539 80.871,81.8 79.37,80.81 77.957,80 77.733,80 77.508,80 76.998,79.64 76.6,79.2 75.624,78.122 74.798,78.193 73.103,79.5 M 189.8,78.636 c -1.59,0.153 -8.573,1.141 -12.4,1.755 -3.907,0.627 -12.254,2.782 -15.6,4.027 -1.1,0.41 -2.54,0.871 -3.2,1.025 -0.66,0.154 -1.827,0.612 -2.594,1.018 -0.767,0.407 -1.667,0.74 -2,0.74 -0.333,0.001 -1.146,0.331 -1.806,0.733 -0.66,0.402 -1.726,0.862 -2.368,1.023 -0.643,0.161 -1.612,0.641 -2.154,1.068 -0.542,0.426 -1.287,0.775 -1.655,0.775 -0.369,0 -1.019,0.27 -1.447,0.6 -0.427,0.33 -1.496,0.958 -2.376,1.394 -4.597,2.282 -15.306,9.229 -17.77,11.527 -0.4,0.374 -1.504,1.309 -2.452,2.079 -5.561,4.514 -10.412,9.388 -16.268,16.343 -0.489,0.581 -1.125,1.332 -1.412,1.669 -0.287,0.336 -1.144,1.506 -1.906,2.6 -0.761,1.093 -2.035,2.798 -2.832,3.788 -0.797,0.99 -1.75,2.34 -2.117,3 -0.367,0.66 -1.021,1.74 -1.453,2.4 -0.432,0.66 -1.16,1.92 -1.618,2.8 -2.025,3.891 -2.6,4.927 -3.023,5.447 -0.248,0.304 -0.584,1.003 -0.747,1.553 -0.163,0.55 -0.531,1.27 -0.818,1.6 -0.287,0.33 -0.65,1.14 -0.807,1.8 -0.156,0.66 -0.503,1.47 -0.77,1.8 -0.267,0.33 -0.769,1.41 -1.116,2.4 -0.347,0.99 -1.008,2.88 -1.468,4.2 -0.459,1.32 -0.99,2.676 -1.179,3.013 -0.188,0.337 -0.468,1.237 -0.621,2 -0.153,0.763 -0.62,2.467 -1.038,3.787 -0.992,3.136 -2,7.403 -2.457,10.4 -0.201,1.32 -0.672,4.02 -1.047,6 -1.012,5.348 -0.983,29.524 0.04,33.572 1.086,4.295 1.138,4.315 4.85,1.865 0.864,-0.57 2.754,-1.667 4.2,-2.437 2.148,-1.144 2.652,-1.601 2.756,-2.5 0.122,-1.068 0.873,-1.593 0.873,-0.611 0,0.269 0.264,0.113 0.586,-0.347 0.322,-0.46 1.14,-0.947 1.818,-1.083 2.009,-0.402 3.996,-2.157 3.996,-3.53 0,-0.695 0.166,-1.073 0.407,-0.925 0.223,0.138 0.297,0.464 0.165,0.724 -0.133,0.259 0.11,0.04 0.54,-0.488 0.458,-0.562 0.694,-1.294 0.571,-1.767 -0.159,-0.607 -0.059,-0.749 0.404,-0.572 0.339,0.13 0.804,0.048 1.035,-0.183 0.724,-0.724 2.376,0.023 3.278,1.481 0.476,0.771 1.016,1.401 1.2,1.401 0.184,0 0.621,0.11 0.972,0.245 0.481,0.184 0.571,0.073 0.369,-0.455 -0.19,-0.495 -0.104,-0.644 0.295,-0.509 0.736,0.247 1.534,-0.818 1.557,-2.081 0.013,-0.669 0.127,-0.831 0.344,-0.489 0.404,0.637 1.263,-1.076 1.263,-2.517 0,-0.639 0.18,-0.9 0.529,-0.766 0.588,0.226 1.673,-1.671 1.502,-2.628 -0.059,-0.33 0.03,-0.465 0.199,-0.299 0.168,0.165 0.59,0.047 0.938,-0.263 1.703,-1.52 6.141,-2.302 12.3,-2.167 l 5.932,0.129 4.8,2.4 4.8,2.4 6.574,-0.093 c 3.616,-0.052 7.576,-0.287 8.8,-0.523 1.224,-0.236 8.436,-0.587 16.026,-0.779 13.417,-0.34 13.881,-0.379 16.701,-1.392 4.049,-1.454 7.899,-3.746 7.899,-4.704 0,-0.684 2.586,-0.764 3.521,-0.109 0.471,0.33 1.092,0.6 1.378,0.6 0.287,0 2.232,0.81 4.322,1.8 2.091,0.99 4.153,1.8 4.582,1.8 0.429,0 1.909,0.348 3.289,0.774 7.683,2.372 11.289,2.715 18.746,1.785 1.409,-0.176 2.529,0.021 4.8,0.847 1.629,0.592 3.879,1.399 5.001,1.794 7.746,2.729 10.929,7.435 8.372,12.378 -0.323,0.626 -0.7,1.922 -0.836,2.88 -0.662,4.661 -3.443,11.554 -5.811,14.403 -2.804,3.375 -2.91,6.966 -0.228,7.765 1.73,0.516 10.001,6.412 11.172,7.965 0.43,0.57 -0.023,2.904 -0.932,4.809 -0.42,0.88 -1.137,3.94 -1.593,6.8 -1.048,6.569 -2.229,7.643 -5.016,4.563 -0.38,-0.419 -0.888,-0.764 -1.129,-0.765 -0.241,-0.002 -1.608,-0.811 -3.038,-1.798 -1.43,-0.987 -2.812,-1.796 -3.071,-1.798 -0.26,-10e-4 -0.71,-0.231 -1,-0.51 -0.815,-0.784 -4.549,-3.092 -5.002,-3.092 -0.222,0 -0.725,-0.355 -1.118,-0.79 -0.393,-0.434 -1.096,-0.905 -1.562,-1.047 -0.466,-0.142 -1.168,-0.539 -1.56,-0.884 -0.67,-0.589 -3.741,-1.295 -5.823,-1.339 -0.686,-0.015 -0.888,-0.205 -0.756,-0.712 0.1,-0.38 -0.064,-1.026 -0.363,-1.436 -0.3,-0.41 -0.545,-0.531 -0.545,-0.268 0,1.017 -0.802,0.413 -0.828,-0.624 -0.04,-1.567 -0.557,-2.771 -0.931,-2.167 -0.706,1.142 -1.082,-0.235 -1.004,-3.671 l 0.083,-3.662 -2.933,-2.86 c -1.884,-1.836 -3.146,-2.777 -3.529,-2.63 -0.428,0.164 -0.526,0.043 -0.345,-0.428 0.291,-0.757 -0.396,-1.314 -1.413,-1.147 -0.385,0.063 -0.7,-0.076 -0.7,-0.31 0,-0.234 0.225,-0.432 0.5,-0.441 0.275,-0.008 -0.106,-0.278 -0.846,-0.6 -1.821,-0.79 -126.786,-0.892 -127.574,-0.104 -0.912,0.912 0.194,5.854 2.363,10.564 0.416,0.904 0.757,1.948 0.757,2.321 0,0.372 0.348,1.342 0.774,2.156 0.426,0.813 1.214,2.469 1.752,3.679 0.537,1.21 1.177,2.65 1.422,3.2 0.246,0.55 0.628,1.27 0.849,1.6 0.222,0.33 0.594,1.05 0.827,1.6 0.234,0.55 0.943,1.9 1.576,3 0.633,1.1 1.324,2.367 1.534,2.816 0.211,0.449 0.671,1.057 1.024,1.349 0.353,0.293 0.645,0.736 0.648,0.984 0.003,0.248 0.639,1.351 1.411,2.451 0.773,1.1 1.711,2.45 2.084,3 0.598,0.881 1.777,2.395 7.013,9 4.475,5.646 18.024,17.72 24.239,21.6 0.352,0.22 1.151,0.805 1.775,1.3 0.623,0.495 1.368,0.9 1.654,0.9 0.286,0 0.753,0.28 1.037,0.623 0.285,0.343 1.072,0.884 1.749,1.203 0.678,0.319 1.952,1.02 2.832,1.558 0.88,0.538 1.87,1.097 2.2,1.243 0.33,0.145 2.22,1.033 4.2,1.972 5.683,2.695 8.254,3.801 8.838,3.801 0.297,0 1.31,0.348 2.251,0.772 2.215,1 5.152,1.968 7.911,2.608 1.21,0.28 3.19,0.792 4.4,1.138 13.732,3.922 39.596,4.773 51,1.678 1.1,-0.298 2.99,-0.664 4.2,-0.814 1.21,-0.149 2.79,-0.514 3.512,-0.811 0.721,-0.297 2.412,-0.74 3.756,-0.983 1.345,-0.244 2.825,-0.688 3.289,-0.986 0.463,-0.299 1.563,-0.673 2.443,-0.831 0.88,-0.159 2.227,-0.622 2.994,-1.03 0.767,-0.407 1.6,-0.741 1.852,-0.741 0.251,0 1.514,-0.464 2.806,-1.03 1.291,-0.567 3.041,-1.332 3.888,-1.7 0.847,-0.369 2.827,-1.346 4.4,-2.171 1.573,-0.826 3.535,-1.799 4.36,-2.161 0.825,-0.363 1.5,-0.798 1.5,-0.968 0,-0.169 0.608,-0.509 1.352,-0.754 0.743,-0.245 1.671,-0.799 2.062,-1.231 0.39,-0.432 0.856,-0.785 1.034,-0.785 0.178,0 1.028,-0.495 1.89,-1.1 0.861,-0.605 2.713,-1.892 4.114,-2.86 2.493,-1.721 5.694,-4.233 7.405,-5.809 0.471,-0.434 0.773,-1.009 0.669,-1.278 -0.107,-0.282 0.208,-0.545 0.743,-0.621 0.611,-0.087 0.975,-0.443 1.06,-1.038 0.07,-0.498 0.298,-0.801 0.506,-0.672 0.208,0.128 0.249,0.446 0.09,0.706 -0.158,0.259 1.144,-0.918 2.894,-2.617 3.072,-2.982 3.862,-4.984 1.718,-4.353 -0.295,0.087 -2.668,0.212 -5.273,0.277 -3.503,0.089 -4.988,0.286 -5.709,0.758 -0.535,0.35 -1.978,0.823 -3.205,1.05 -1.228,0.227 -2.942,0.783 -3.81,1.235 -1.193,0.622 -2.25,0.809 -4.335,0.766 -2.201,-0.045 -2.834,0.078 -3.132,0.611 -0.244,0.437 -0.623,0.573 -1.09,0.394 -0.487,-0.187 -0.586,-0.406 -0.309,-0.683 0.56,-0.56 0.157,-2.379 -0.591,-2.666 -0.368,-0.142 -0.943,0.164 -1.447,0.768 -0.889,1.067 -3.043,1.311 -3.353,0.381 -0.309,-0.926 0.327,-2.531 0.913,-2.306 0.325,0.125 0.662,-0.094 0.796,-0.518 0.257,-0.808 2.391,-2.383 4.691,-3.462 1.055,-0.494 1.556,-1.028 1.737,-1.853 0.153,-0.698 0.621,-1.298 1.178,-1.509 0.508,-0.194 1.048,-0.552 1.2,-0.798 0.579,-0.936 4.763,-2.465 6.002,-2.193 3.496,0.769 6.586,0.668 8.505,-0.277 1.719,-0.846 2.472,-0.938 8.095,-0.988 6.925,-0.062 7.963,-0.329 10.55,-2.715 0.853,-0.786 1.631,-1.43 1.729,-1.43 0.374,0 1.273,-1.115 1.065,-1.322 -0.519,-0.52 0.318,-1.924 0.873,-1.464 0.586,0.487 1.171,-0.828 0.908,-2.04 -0.075,-0.342 0.159,-0.551 0.578,-0.518 0.691,0.055 0.93,-0.477 1.195,-2.656 0.073,-0.604 0.34,-0.952 0.675,-0.879 0.756,0.166 1.214,-0.666 1.221,-2.221 0.003,-0.715 0.186,-1.3 0.406,-1.3 0.22,0 0.403,0.225 0.406,0.5 0.004,0.333 0.136,0.3 0.394,-0.1 0.213,-0.33 0.391,-1.386 0.394,-2.347 0.005,-1.548 0.097,-1.723 0.806,-1.537 0.719,0.188 0.8,0.012 0.8,-1.73 0,-1.917 0.609,-2.943 1.189,-2.003 0.385,0.621 0.798,-0.846 0.806,-2.859 0.003,-0.812 0.185,-1.588 0.405,-1.724 0.22,-0.136 0.403,-0.012 0.406,0.276 0.019,1.609 0.784,-0.969 0.794,-2.676 0.014,-2.365 0.58,-3.639 1.06,-2.389 0.444,1.156 0.849,-0.501 0.9,-3.687 0.035,-2.17 0.799,-4.153 0.865,-2.248 0.078,2.21 0.85,-1.673 0.811,-4.076 -0.049,-3.074 0.391,-4.396 1.064,-3.193 0.535,0.956 0.821,-1.413 0.895,-7.407 0.059,-4.825 0.759,-7.239 0.864,-2.98 l 0.059,2.38 0.294,-2.4 c 0.396,-3.235 0.408,-26.639 0.014,-29.4 -0.218,-1.532 -0.33,-1.805 -0.37,-0.9 -0.031,0.715 -0.213,1.3 -0.404,1.3 -0.52,0 -0.928,-3.819 -0.625,-5.84 0.418,-2.789 -0.157,-6.612 -0.811,-5.389 -0.63,1.177 -1.051,-0.484 -1.021,-4.035 0.018,-2.143 -0.661,-6.163 -0.749,-4.436 -0.098,1.911 -0.846,0.785 -0.846,-1.274 0,-2.501 -0.661,-4.699 -1.167,-3.88 -0.39,0.632 -0.926,-1.638 -0.592,-2.509 0.121,-0.314 -0.057,-1.081 -0.395,-1.704 -0.338,-0.623 -0.621,-0.897 -0.63,-0.609 -0.009,0.288 -0.208,0.404 -0.443,0.259 -0.235,-0.145 -0.389,-0.831 -0.342,-1.523 0.156,-2.327 -0.792,-4.382 -1.366,-2.96 -0.111,0.275 -0.216,-0.167 -0.233,-0.981 -0.041,-1.921 -0.77,-3.518 -1.482,-3.245 -0.403,0.155 -0.55,-0.166 -0.55,-1.198 0,-1.875 -0.343,-2.673 -1.033,-2.408 -0.527,0.202 -0.735,-0.244 -0.61,-1.311 0.029,-0.244 -0.213,-1.054 -0.537,-1.8 -0.388,-0.895 -0.594,-1.096 -0.604,-0.59 -0.019,0.916 -0.523,0.532 -0.612,-0.467 -0.137,-1.536 -0.679,-2.626 -1.026,-2.064 -0.457,0.74 -0.742,0.356 -0.916,-1.235 -0.101,-0.925 -0.413,-1.439 -1.004,-1.658 -0.476,-0.176 -0.858,-0.665 -0.858,-1.097 0,-1.325 -0.458,-2.199 -0.834,-1.591 -0.353,0.572 -0.485,0.33 -0.929,-1.711 -0.149,-0.683 -0.476,-1.036 -0.926,-1 -0.443,0.036 -0.714,-0.247 -0.746,-0.776 -0.055,-0.931 -0.934,-2.652 -0.953,-1.868 -0.025,1.028 -0.813,0.455 -0.825,-0.6 -0.015,-1.323 -0.993,-2.826 -1.315,-2.021 -0.115,0.287 -0.223,0.138 -0.24,-0.33 -0.034,-0.913 -0.941,-1.906 -1.359,-1.488 -0.14,0.139 -0.375,-0.087 -0.523,-0.504 -0.503,-1.418 -2.206,-3.379 -2.837,-3.268 -0.347,0.061 -0.718,-0.143 -0.826,-0.453 -0.139,-0.399 0.007,-0.486 0.498,-0.297 0.381,0.146 -0.162,-0.59 -1.207,-1.636 -4.28,-4.286 -5.924,-5.863 -5.652,-5.423 0.158,0.256 0.104,0.578 -0.119,0.716 -0.224,0.138 -0.406,-0.074 -0.404,-0.472 0.004,-0.846 -4.248,-4.924 -5.134,-4.924 -0.331,0 -0.491,-0.111 -0.355,-0.247 0.323,-0.323 -3.257,-3.027 -9.777,-7.382 -5.244,-3.504 -7.687,-4.909 -13.537,-7.789 -3.856,-1.899 -10.532,-4.678 -13,-5.411 -0.88,-0.261 -1.78,-0.615 -2,-0.786 -0.22,-0.171 -1.431,-0.501 -2.69,-0.733 -1.26,-0.231 -2.79,-0.674 -3.4,-0.982 -0.611,-0.309 -2.047,-0.681 -3.192,-0.827 -1.145,-0.146 -2.783,-0.513 -3.64,-0.816 -0.857,-0.302 -3.603,-0.765 -6.101,-1.029 -2.498,-0.264 -5,-0.665 -5.559,-0.89 -0.991,-0.398 -20.156,-0.785 -23.418,-0.472 m 121.955,5.291 c 0.221,0.358 -0.704,3.427 -1.396,4.628 -0.239,0.416 -0.697,1.639 -1.018,2.718 -0.983,3.312 -1.926,3.287 -5.326,-0.141 -1.548,-1.561 -2.815,-2.951 -2.815,-3.09 0,-0.292 4.926,-2.664 6.381,-3.072 0.54,-0.152 1.228,-0.522 1.529,-0.823 0.598,-0.598 2.322,-0.742 2.645,-0.22 M 334.7,94.052 c -2.108,1.722 -1.567,3.643 2.491,8.836 1.123,1.438 0.685,2.232 -2.295,4.16 -1.263,0.816 -3.26,2.13 -4.438,2.918 -1.178,0.789 -2.441,1.614 -2.808,1.834 -0.367,0.22 -1.231,0.805 -1.92,1.3 -0.689,0.495 -1.354,0.9 -1.478,0.9 -0.123,0 -0.995,0.547 -1.938,1.215 -2.306,1.633 -4.69,3.222 -5.956,3.97 -4.538,2.679 -4.781,3.39 -2.422,7.08 1.871,2.926 2.931,3.112 6.037,1.057 1.445,-0.956 2.897,-1.912 3.227,-2.124 3.655,-2.35 7.018,-4.543 8.942,-5.831 1.288,-0.862 2.638,-1.751 3,-1.975 1.052,-0.653 3.723,-2.468 5.458,-3.71 2.009,-1.438 2.741,-1.076 5.025,2.485 3.248,5.064 4.069,5.55 6.137,3.633 0.594,-0.55 1.25,-1 1.459,-1 1.349,0 0.065,-3.672 -2.4,-6.863 -0.451,-0.585 -0.833,-1.215 -0.848,-1.4 -0.014,-0.185 -0.635,-1.147 -1.38,-2.137 -0.745,-0.99 -1.986,-2.898 -2.759,-4.239 -0.773,-1.341 -1.681,-2.668 -2.019,-2.949 -0.338,-0.28 -0.615,-0.744 -0.615,-1.03 0,-0.286 -0.45,-1.055 -1,-1.709 -0.55,-0.654 -1,-1.36 -1,-1.569 0,-0.209 -0.36,-0.706 -0.8,-1.104 -0.44,-0.398 -0.8,-0.953 -0.8,-1.233 0,-1.954 -2.78,-2.246 -4.9,-0.515 m -69.706,16.742 c 0.639,0.705 0.668,1.047 0.262,3.067 -0.251,1.25 -0.456,2.879 -0.456,3.62 0,0.741 -0.285,1.782 -0.634,2.314 -0.469,0.716 -0.593,1.672 -0.477,3.686 0.155,2.716 0.325,3.536 2.143,10.339 1.164,4.356 1.198,5.379 0.219,6.626 -0.412,0.525 -0.875,1.764 -1.03,2.754 -0.154,0.99 -0.563,2.568 -0.907,3.506 -0.59,1.605 -0.582,1.755 0.129,2.541 0.67,0.739 0.78,1.711 0.957,8.469 l 0.2,7.635 1.222,0.316 c 2.261,0.584 2.892,1.728 3.161,5.733 0.521,7.761 0.663,27.749 0.212,29.881 -0.246,1.166 -0.784,3.829 -1.195,5.919 -0.41,2.09 -1.028,4.873 -1.373,6.184 -0.345,1.311 -0.627,2.858 -0.627,3.437 0,0.58 -0.38,2.117 -0.845,3.416 -0.946,2.642 -1.093,14.671 -0.376,30.763 0.378,8.465 0.415,8.284 -2.266,11.055 -2.73,2.823 -2.921,3.403 -1.808,5.501 0.879,1.656 0.897,1.832 0.314,3.061 -0.341,0.717 -0.619,1.404 -0.619,1.526 0,0.316 -1.805,3.024 -3.038,4.557 -2.206,2.743 -2.927,0.818 -1.536,-4.1 0.311,-1.1 0.748,-4.573 0.971,-7.719 0.415,-5.841 0.806,-7.234 2.855,-10.143 0.625,-0.886 0.748,-1.813 0.748,-5.612 v -4.55 l -1.3,-1.191 c -0.715,-0.656 -2.297,-1.948 -3.516,-2.872 -1.218,-0.924 -3.001,-2.406 -3.962,-3.293 l -1.747,-1.612 0.665,-1.504 c 0.366,-0.827 0.839,-2.449 1.052,-3.604 0.213,-1.155 0.641,-2.595 0.95,-3.2 0.31,-0.605 0.695,-1.89 0.855,-2.856 0.161,-0.966 0.628,-2.496 1.039,-3.4 0.41,-0.904 0.75,-2.116 0.755,-2.693 0.005,-0.577 0.387,-1.903 0.849,-2.947 1.074,-2.43 1.192,-6.009 0.243,-7.436 -2.007,-3.019 -2.202,-8.917 -0.576,-17.368 1.136,-5.898 0.519,-12.186 -1.491,-15.218 -1.024,-1.544 -1.004,-3.622 0.057,-5.815 2.639,-5.458 2.732,-5.833 2.647,-10.734 -0.045,-2.548 -0.135,-7.988 -0.2,-12.089 -0.1,-6.216 -0.229,-7.58 -0.774,-8.2 -0.884,-1.005 -1.893,-17.374 -1.194,-19.378 0.68,-1.95 0.566,-6.019 -0.198,-7.111 -0.84,-1.199 -0.406,-1.573 2.046,-1.759 5.435,-0.413 6.855,-0.32 7.594,0.498 m -14.82,0.364 c 0.121,0.197 0.41,4.832 0.642,10.3 0.231,5.468 0.591,11.022 0.799,12.342 1.752,11.097 1.73,29.179 -0.039,32.647 -0.427,0.837 -0.776,1.882 -0.776,2.322 0,0.441 -0.36,1.715 -0.8,2.831 -0.44,1.116 -0.8,2.805 -0.8,3.753 0,1.215 0.236,1.936 0.8,2.447 0.44,0.398 0.8,0.942 0.8,1.208 0,0.266 0.397,0.989 0.882,1.606 1.15,1.461 1.126,5.675 -0.056,9.983 -0.454,1.656 -0.828,3.775 -0.831,4.707 -0.014,4.186 0.115,4.173 -9.595,0.937 -5.473,-1.824 -10.106,-2.227 -13.459,-1.17 -2.065,0.651 -2.186,0.646 -4.035,-0.181 -1.048,-0.469 -2.515,-0.97 -3.26,-1.115 -0.744,-0.144 -2.094,-0.599 -3,-1.01 -0.905,-0.411 -2.003,-0.751 -2.438,-0.756 -0.436,-0.005 -1.696,-0.346 -2.8,-0.757 -3.06,-1.14 -5.781,-2.041 -8.188,-2.712 -1.199,-0.334 -2.544,-0.862 -2.989,-1.173 -1.702,-1.193 -3.208,-0.729 -6.601,2.033 -1.757,1.43 -3.36,2.6 -3.561,2.6 -0.202,0 -1.245,0.394 -2.318,0.875 -1.759,0.788 -2.936,0.906 -11.951,1.196 -5.5,0.177 -11.17,0.516 -12.6,0.753 -1.43,0.237 -6.706,0.526 -11.723,0.642 l -9.124,0.211 -3.398,-1.653 c -1.869,-0.909 -4.243,-1.822 -5.276,-2.028 -1.034,-0.206 -2.763,-0.65 -3.843,-0.985 -5.688,-1.769 -16.283,0.235 -21.723,4.109 -2.287,1.628 -3.253,0.781 -3.396,-2.978 l -0.117,-3.091 -1.587,-0.826 c -3.41,-1.774 -3.471,-5.756 -0.101,-6.645 0.929,-0.245 2.588,-0.766 3.688,-1.158 6.873,-2.446 7.941,-2.573 17.731,-2.116 13.144,0.614 14.481,0.917 16.26,3.68 2.119,3.289 3.685,3.92 5.678,2.288 3.707,-3.037 10.177,-3.964 13.452,-1.928 1.979,1.23 3.254,0.967 5.395,-1.111 0.915,-0.888 2.164,-1.733 2.774,-1.878 0.611,-0.145 2.4,-1.319 3.977,-2.61 1.576,-1.291 3.006,-2.347 3.178,-2.347 0.172,0 0.992,-0.471 1.823,-1.047 1.082,-0.75 1.997,-1.04 3.222,-1.02 4.572,0.072 6.929,-4.718 4.719,-9.589 -1.603,-3.532 -0.188,-9.022 2.6,-10.092 0.956,-0.367 0.745,-2.542 -0.301,-3.101 -0.491,-0.263 -1.208,-0.879 -1.594,-1.37 -0.386,-0.49 -1.154,-1.005 -1.708,-1.144 -2.912,-0.731 0.35,-4.345 4.426,-4.903 2.307,-0.317 3.824,-1.288 6.421,-4.111 1.071,-1.164 2.352,-2.555 2.847,-3.09 0.647,-0.701 0.9,-1.465 0.9,-2.72 0,-1.658 0.136,-1.863 2.7,-4.079 1.485,-1.284 2.79,-2.43 2.9,-2.548 0.11,-0.117 0.722,-0.614 1.359,-1.104 0.981,-0.754 3.817,-3.281 9.067,-8.082 2.064,-1.888 2.84,-2.319 4.667,-2.593 1.007,-0.151 2.335,-0.647 2.951,-1.103 1.057,-0.781 1.811,-0.842 13.305,-1.066 6.702,-0.131 12.32,-0.373 12.485,-0.538 0.409,-0.41 1.271,-0.378 1.54,0.058 M 42.159,126.376 c -0.479,0.202 -1.109,1.103 -1.462,2.089 -0.342,0.954 -0.911,2.545 -1.264,3.535 -0.354,0.99 -0.891,2.25 -1.192,2.8 -0.302,0.55 -0.68,1.615 -0.841,2.367 -0.161,0.751 -0.631,1.921 -1.045,2.6 -0.414,0.678 -0.753,1.506 -0.754,1.839 0,0.333 -0.361,1.278 -0.801,2.098 -1.405,2.622 0.314,5.496 3.287,5.496 0.299,0 1.229,0.35 2.067,0.777 0.838,0.427 2.092,0.896 2.785,1.043 0.694,0.146 1.822,0.607 2.508,1.023 0.686,0.416 1.586,0.758 2,0.759 0.414,0.002 1.293,0.285 1.953,0.629 0.66,0.344 2.1,0.954 3.2,1.356 1.1,0.401 2.81,1.024 3.8,1.384 0.99,0.361 2.34,0.9 3,1.2 8.366,3.794 10.989,3.964 11.585,0.752 0.155,-0.838 0.627,-2.084 1.049,-2.77 0.421,-0.686 0.767,-1.586 0.767,-2 0.001,-0.414 0.34,-1.308 0.754,-1.986 0.414,-0.679 0.887,-1.849 1.052,-2.6 0.165,-0.752 0.636,-1.994 1.046,-2.761 0.411,-0.767 0.747,-1.669 0.747,-2.006 0,-0.337 0.36,-1.284 0.8,-2.104 1.55,-2.892 0.348,-5.096 -2.777,-5.096 -1.939,0 -2.668,0.628 -3.233,2.788 -0.258,0.984 -0.721,2.149 -1.029,2.589 -0.309,0.441 -0.561,1.046 -0.561,1.345 0,0.58 -2.307,6.08 -2.754,6.568 -0.37,0.404 -8.912,-2.378 -9.638,-3.138 -0.341,-0.357 1.03,-4.327 2.427,-7.031 1.45,-2.805 0.852,-4.303 -2.067,-5.178 -1.964,-0.588 -3.511,0.334 -4.194,2.5 -0.236,0.746 -0.731,2.026 -1.101,2.844 -0.37,0.818 -0.673,1.831 -0.673,2.251 0,1.938 -1.755,2.049 -5.709,0.362 -3.005,-1.282 -2.884,-0.98 -1.739,-4.356 1.851,-5.459 2.257,-6.54 2.853,-7.606 1.435,-2.562 -1.932,-5.593 -4.846,-4.362 m 313.041,2.058 c -1.21,0.445 -2.969,1.062 -3.909,1.371 -0.94,0.309 -2.105,0.839 -2.589,1.179 -0.484,0.339 -1.248,0.616 -1.697,0.616 -0.449,0 -1.444,0.336 -2.211,0.747 -0.767,0.41 -2.024,0.881 -2.794,1.046 -0.77,0.165 -1.599,0.459 -1.843,0.655 -0.244,0.195 -1.459,0.715 -2.7,1.154 -5.209,1.842 -6.518,2.347 -7.657,2.954 -0.66,0.351 -1.433,0.64 -1.717,0.642 -0.284,0.001 -1.654,0.534 -3.044,1.184 l -2.527,1.181 0.75,2.319 c 0.413,1.275 0.946,2.659 1.184,3.076 0.238,0.417 0.755,1.677 1.148,2.8 1.527,4.36 1.727,4.892 2.434,6.442 0.402,0.88 0.825,2.065 0.942,2.633 0.901,4.397 3.956,6.073 6.661,3.656 l 1.243,-1.111 -0.673,-2.389 c -0.371,-1.314 -1.018,-3.121 -1.438,-4.015 -0.419,-0.895 -0.763,-1.847 -0.763,-2.116 0,-0.27 -0.37,-1.216 -0.823,-2.103 -1.163,-2.28 -0.923,-3.991 0.623,-4.45 0.66,-0.196 1.92,-0.691 2.8,-1.1 3.934,-1.831 5.5,-1.395 6.632,1.845 0.375,1.072 1.024,2.85 1.442,3.95 l 0.76,2 2.093,0.121 c 1.873,0.109 2.218,-0.005 3.295,-1.082 l 1.204,-1.203 -0.659,-1.518 c -0.363,-0.835 -0.888,-2.238 -1.168,-3.118 -0.279,-0.88 -0.834,-2.279 -1.231,-3.108 -0.869,-1.811 -0.645,-2.117 2.506,-3.429 3.521,-1.465 5.043,-1.029 5.741,1.644 0.243,0.931 0.789,2.425 1.214,3.319 0.424,0.895 0.771,1.843 0.771,2.108 0,3.109 3.299,5.347 5.611,3.807 2.094,-1.394 2.158,-3.136 0.251,-6.821 -0.364,-0.704 -0.662,-1.475 -0.662,-1.713 0,-0.238 -0.297,-1.102 -0.659,-1.92 -0.691,-1.558 -1.695,-4.12 -2.543,-6.487 -1.972,-5.506 -2.608,-6.011 -5.998,-4.766 m 0.8,47.004 c -1.21,0.265 -3.245,0.604 -4.522,0.753 -3.228,0.378 -3.668,2.852 -1.847,10.409 1.659,6.885 0.381,33.966 -2.05,43.448 -0.429,1.677 -0.781,3.521 -0.781,4.099 0,0.577 -0.358,2.086 -0.795,3.351 -0.437,1.266 -0.965,3.112 -1.174,4.102 -0.363,1.722 -1.173,4.431 -2.093,7 -0.237,0.66 -0.694,2.01 -1.016,3 -0.722,2.219 -1.946,5.279 -2.96,7.4 -0.42,0.88 -0.764,1.777 -0.763,1.994 10e-4,0.217 -0.427,1.297 -0.95,2.4 -0.524,1.103 -1.162,2.456 -1.42,3.006 -0.811,1.732 -1.657,3.378 -2.055,4 -0.211,0.33 -0.744,1.32 -1.185,2.2 -0.44,0.88 -1.236,2.32 -1.768,3.2 -1.738,2.874 -2.81,4.686 -3.421,5.782 -0.33,0.592 -0.83,1.333 -1.111,1.647 -0.28,0.314 -1.08,1.471 -1.777,2.571 -0.697,1.1 -1.913,2.81 -2.702,3.8 -0.789,0.99 -1.921,2.52 -2.517,3.4 -0.595,0.88 -1.849,2.42 -2.787,3.423 -0.939,1.003 -2.966,3.249 -4.506,4.992 -1.54,1.743 -4.628,4.972 -6.862,7.177 -4.742,4.678 -4.784,4.778 -2.898,6.836 0.791,0.865 2.157,2.364 3.034,3.332 2.098,2.316 2.59,2.161 7.165,-2.251 7.987,-7.703 17.372,-18.957 22.608,-27.109 0.706,-1.1 1.925,-2.99 2.708,-4.2 2.442,-3.773 10.844,-20.193 10.848,-21.2 10e-4,-0.33 0.36,-1.14 0.797,-1.8 0.437,-0.66 0.798,-1.47 0.801,-1.8 0.003,-0.33 0.449,-1.5 0.99,-2.6 0.541,-1.1 0.99,-2.327 0.996,-2.726 0.007,-0.399 0.344,-1.569 0.748,-2.6 1.4,-3.569 2.139,-5.885 2.642,-8.274 0.278,-1.32 0.802,-3.261 1.164,-4.314 0.362,-1.053 0.659,-2.429 0.659,-3.058 0,-0.629 0.344,-2.288 0.764,-3.686 0.42,-1.398 0.958,-4.252 1.195,-6.342 0.238,-2.09 0.641,-4.43 0.896,-5.2 0.66,-1.994 0.96,-31.048 0.369,-35.8 -1.326,-10.669 -1.47,-11.008 -4.424,-10.362 m -313.273,2.185 c -1.155,0.663 -1.867,6.421 -2.543,20.577 -0.292,6.113 0.769,23.46 1.674,27.378 0.328,1.418 0.763,4.049 0.967,5.847 0.204,1.798 0.619,3.878 0.922,4.622 0.302,0.744 0.673,2.326 0.823,3.516 0.151,1.189 0.517,2.631 0.813,3.205 0.297,0.573 0.671,1.94 0.831,3.037 0.16,1.097 0.603,2.625 0.984,3.395 0.382,0.77 0.824,2.12 0.984,3 0.159,0.88 0.454,1.799 0.655,2.043 0.202,0.244 0.705,1.414 1.119,2.6 1.673,4.793 2.036,5.69 4.437,10.957 0.401,0.88 0.925,2.05 1.165,2.6 0.24,0.55 0.606,1.27 0.814,1.6 0.207,0.33 0.637,1.14 0.954,1.8 1.243,2.588 4.015,7.69 5.108,9.4 0.632,0.99 1.324,2.193 1.538,2.673 0.213,0.48 1.182,2.01 2.153,3.4 0.971,1.39 2.196,3.157 2.722,3.927 1.331,1.948 5.924,8.032 6.794,9 0.396,0.44 1.404,1.6 2.239,2.577 6.325,7.396 16.225,17.223 17.352,17.223 0.47,0 1.567,-1.081 4.468,-4.407 1.767,-2.025 2.598,-4.393 1.542,-4.393 -0.387,0 -9.758,-9.171 -12.058,-11.8 -3.161,-3.615 -9.074,-10.841 -9.327,-11.4 -0.149,-0.33 -0.807,-1.32 -1.463,-2.2 -1.112,-1.494 -4.791,-7.003 -5.877,-8.801 C 69.038,273.237 62,259.224 62,258.059 c 0,-0.254 -0.36,-1.134 -0.8,-1.955 -0.44,-0.82 -0.8,-1.767 -0.8,-2.104 0,-0.337 -0.347,-1.26 -0.772,-2.052 -0.424,-0.792 -0.898,-2.139 -1.054,-2.994 -0.155,-0.855 -0.618,-2.222 -1.028,-3.038 -0.41,-0.816 -0.746,-1.947 -0.746,-2.513 0,-0.566 -0.284,-1.698 -0.63,-2.516 -0.347,-0.818 -0.868,-2.747 -1.158,-4.287 -0.29,-1.54 -0.802,-3.97 -1.138,-5.4 -0.336,-1.43 -0.815,-4.04 -1.066,-5.8 -0.25,-1.76 -0.658,-4.28 -0.907,-5.6 -0.663,-3.528 -0.613,-32.351 0.063,-36 0.957,-5.164 0.891,-5.292 -3.006,-5.811 -1.517,-0.201 -3.388,-0.453 -4.158,-0.559 -0.77,-0.106 -1.703,-0.019 -2.073,0.193 m 209.195,109.254 c 0.132,0.698 -1.716,1.923 -2.902,1.923 -0.754,0 -0.839,-1.621 -0.122,-2.338 0.713,-0.713 2.866,-0.417 3.024,0.415 m -126.543,29.829 c -2.872,2.004 -2.183,6.894 0.972,6.894 0.379,0 0.908,0.219 1.175,0.486 0.268,0.268 1.249,0.853 2.18,1.3 2.005,0.963 2.405,2.366 1.173,4.115 -0.426,0.604 -0.909,1.549 -1.074,2.099 -0.165,0.55 -0.527,1.27 -0.805,1.6 -0.278,0.33 -0.64,1.05 -0.805,1.6 -0.165,0.55 -0.636,1.478 -1.047,2.062 -0.412,0.584 -0.748,1.224 -0.748,1.422 0,0.198 -1.604,3.539 -3.566,7.426 -4.915,9.74 -4.912,9.623 -0.306,12.072 3.453,1.836 3.397,1.903 11.055,-13.496 6.49,-13.052 7.103,-13.948 8.697,-12.694 0.527,0.414 1.487,0.869 2.134,1.011 0.647,0.142 1.281,0.427 1.409,0.634 0.313,0.507 2.895,1.563 3.821,1.563 0.845,0 2.522,-2.419 2.837,-4.094 0.262,-1.392 0.416,-1.297 -14.081,-8.578 -11.157,-5.603 -12.162,-6.022 -13.021,-5.422 m 132.221,6.792 c -0.55,0.099 -1.855,0.733 -2.9,1.408 -2.776,1.795 -2.755,1.899 2.118,10.894 1.073,1.98 2.768,5.22 3.768,7.2 0.999,1.98 1.967,3.87 2.151,4.2 0.435,0.782 1.219,2.284 3.236,6.2 0.907,1.76 1.824,3.47 2.038,3.8 0.214,0.33 0.563,1.09 0.775,1.689 0.404,1.14 2.281,1.966 2.757,1.212 0.238,-0.376 2.046,-1.401 4.457,-2.526 0.55,-0.256 1.36,-0.634 1.8,-0.839 0.44,-0.204 1.52,-0.785 2.4,-1.291 0.88,-0.505 2.95,-1.612 4.6,-2.459 5.217,-2.68 6.038,-4.261 3.576,-6.888 -1.28,-1.365 -2.571,-1.46 -3.976,-0.292 -0.33,0.275 -1.05,0.635 -1.6,0.802 -0.55,0.166 -1.429,0.637 -1.954,1.047 -0.525,0.41 -1.175,0.745 -1.446,0.745 -0.271,0 -0.945,0.356 -1.499,0.792 -2.561,2.015 -3.38,1.51 -6.15,-3.792 -3.155,-6.039 -5.367,-10.302 -7.499,-14.45 -0.919,-1.787 -1.877,-3.498 -2.129,-3.802 -0.252,-0.304 -0.581,-1.039 -0.73,-1.634 -0.421,-1.678 -1.747,-2.383 -3.793,-2.016 m -21.53,8.376 -1.729,1.042 0.274,2.042 c 0.15,1.123 0.542,2.672 0.87,3.442 0.328,0.77 0.831,2.39 1.116,3.6 0.286,1.21 0.8,2.92 1.142,3.8 0.342,0.88 0.63,2.012 0.639,2.516 0.01,0.504 0.353,1.584 0.762,2.4 0.409,0.816 0.861,2.247 1.004,3.178 0.143,0.932 0.51,2.282 0.816,3 0.815,1.913 2.514,7.472 2.813,9.202 0.437,2.533 3.109,3.09 7.071,1.477 1.956,-0.797 2.171,-4.176 0.471,-7.373 -0.235,-0.44 -0.558,-1.61 -0.72,-2.6 -0.161,-0.99 -0.532,-2.266 -0.824,-2.836 -0.291,-0.57 -0.803,-2.1 -1.137,-3.4 -1.21,-4.703 -2.079,-7.581 -2.541,-8.414 -0.259,-0.467 -0.591,-1.637 -0.737,-2.6 -0.146,-0.962 -0.582,-2.47 -0.968,-3.35 -0.387,-0.88 -0.83,-2.369 -0.984,-3.308 -0.523,-3.179 -3.753,-3.979 -7.338,-1.818 m -74.93,1.336 c -0.849,0.495 -2.164,4.87 -2.734,9.096 -0.245,1.819 -0.681,3.979 -0.968,4.8 -0.287,0.822 -0.649,2.664 -0.806,4.094 -0.156,1.43 -0.632,3.939 -1.058,5.575 -0.426,1.637 -0.774,3.655 -0.774,4.486 0,0.831 -0.257,2.282 -0.572,3.225 -0.315,0.943 -0.692,2.376 -0.839,3.184 l -0.267,1.471 2.294,1.049 c 5.296,2.423 7.079,0.847 8.114,-7.172 0.79,-6.121 4.209,-7.375 5.503,-2.018 0.159,0.66 0.622,1.827 1.028,2.594 0.407,0.767 0.739,1.647 0.739,1.956 0,0.309 0.343,1.302 0.762,2.206 0.419,0.904 1.009,2.359 1.312,3.233 0.883,2.547 3.028,3.781 6.602,3.798 3.399,0.015 3.612,-0.198 2.54,-2.552 -0.449,-0.985 -0.817,-2.026 -0.819,-2.313 -0.001,-0.287 -0.36,-1.062 -0.797,-1.722 -0.437,-0.66 -0.796,-1.526 -0.797,-1.925 -0.002,-0.398 -0.463,-1.698 -1.026,-2.887 -1.598,-3.377 -1.535,-5.483 0.179,-5.986 7.753,-2.279 9.448,-15.214 2.625,-20.037 -4.434,-3.135 -17.422,-5.801 -20.241,-4.155 m 47.781,3.078 c -1.652,0.206 -3.551,2.339 -4.102,4.607 -0.228,0.938 -0.578,2.155 -0.779,2.705 -0.2,0.55 -0.543,1.54 -0.76,2.2 -0.218,0.66 -0.7,2.1 -1.071,3.2 -0.371,1.1 -0.919,2.9 -1.217,4 -0.525,1.932 -1.122,3.775 -2.591,8 -1.572,4.52 -2.801,8.536 -2.801,9.15 0,0.359 -0.36,1.325 -0.8,2.146 -1.075,2.005 -1.019,2.378 0.5,3.332 3.524,2.212 8.158,-0.697 8.944,-5.614 0.455,-2.842 1.8,-3.328 10.589,-3.82 l 5.033,-0.282 1.267,1.723 c 0.697,0.947 1.272,2.002 1.278,2.344 0.033,1.936 2.229,3.421 5.06,3.421 5.264,0 5.736,-0.533 3.736,-4.208 -0.657,-1.206 -1.377,-2.642 -1.601,-3.192 -0.224,-0.55 -0.676,-1.45 -1.004,-2 -0.574,-0.961 -5.047,-9.663 -6.123,-11.912 -0.286,-0.598 -0.693,-1.358 -0.903,-1.688 -0.21,-0.33 -0.58,-1.05 -0.822,-1.6 -0.242,-0.55 -0.602,-1.27 -0.802,-1.6 -0.333,-0.552 -1.021,-1.879 -2.59,-5 -0.332,-0.66 -0.772,-1.47 -0.979,-1.8 -0.206,-0.33 -0.744,-1.282 -1.195,-2.116 -1.145,-2.115 -2.321,-2.489 -6.267,-1.996 m -35.442,4.616 c 5.716,2.269 4.072,11.13 -2.054,11.073 -5.357,-0.049 -5.75,-0.642 -4.631,-6.977 0.998,-5.649 1.695,-6.076 6.685,-4.096 m 38.202,9.123 c 0.558,0.259 1.46,1.557 2.294,3.3 0.756,1.58 1.684,3.28 2.061,3.778 0.624,0.822 0.635,2.483 0.017,2.504 -0.139,0.004 -1.795,0.24 -3.68,0.524 -4.803,0.722 -5.418,-0.038 -3.604,-4.459 0.423,-1.031 0.981,-2.819 1.24,-3.974 0.259,-1.155 0.534,-2.1 0.612,-2.1 0.078,0 0.555,0.192 1.06,0.427"
       stroke="none"
       fill="#f8b318"
       fill-rule="evenodd" />
    <path
       id="path2"
       d="m 185.4,10.447 c -3.74,0.18 -8.24,0.6 -10,0.933 -1.76,0.333 -4.855,0.789 -6.878,1.014 -2.022,0.225 -4.182,0.605 -4.8,0.844 -0.617,0.239 -2.286,0.604 -3.708,0.809 -1.423,0.206 -3.737,0.729 -5.143,1.164 -1.405,0.434 -3.031,0.795 -3.613,0.803 -0.582,0.007 -1.778,0.361 -2.658,0.786 -0.88,0.425 -2.001,0.779 -2.491,0.786 -0.49,0.008 -2.086,0.464 -3.547,1.014 -1.462,0.55 -2.951,1.006 -3.31,1.014 -0.358,0.007 -1.372,0.361 -2.252,0.786 -0.88,0.425 -1.877,0.779 -2.215,0.786 -0.339,0.008 -1.319,0.372 -2.178,0.81 -0.859,0.438 -2.151,0.907 -2.87,1.042 -0.72,0.135 -1.507,0.485 -1.75,0.778 -0.243,0.293 -1.015,0.657 -1.715,0.808 -0.699,0.152 -1.902,0.606 -2.672,1.008 -0.77,0.403 -2.66,1.293 -4.2,1.977 -1.54,0.685 -3.07,1.399 -3.4,1.587 -0.33,0.187 -1.77,0.935 -3.2,1.66 -1.43,0.726 -4.36,2.315 -6.51,3.532 -2.151,1.216 -4.358,2.448 -4.905,2.736 C 99.386,38.178 90.857,43.893 87.543,46.4 71.139,58.809 59.613,70.216 47.528,86 c -1.431,1.87 -2.856,3.859 -3.165,4.419 -0.31,0.561 -1.156,1.821 -1.88,2.8 -2.184,2.952 -5.264,7.752 -5.274,8.219 -0.005,0.241 -0.369,0.764 -0.809,1.162 -0.44,0.398 -0.8,0.876 -0.8,1.061 0,0.186 -1.173,2.434 -2.607,4.997 -1.434,2.562 -2.712,5.075 -2.839,5.584 -0.128,0.509 -0.485,1.135 -0.793,1.391 -0.309,0.256 -0.561,0.622 -0.561,0.815 0,0.192 -0.557,1.565 -1.238,3.051 -2.242,4.892 -2.87,6.282 -3.574,7.901 -1.226,2.821 -2.454,5.966 -2.81,7.2 -0.665,2.3 -2.077,6.409 -2.654,7.72 -0.319,0.727 -0.675,1.987 -0.791,2.8 -0.115,0.814 -0.535,2.38 -0.933,3.48 -1.271,3.508 -3.952,15.605 -4.391,19.81 -0.173,1.655 -0.601,4.355 -0.953,6 -0.897,4.204 -2,22.309 -1.729,28.39 0.545,12.243 1.142,20.41 1.68,23 0.321,1.54 0.684,3.88 0.809,5.2 0.212,2.253 0.843,5.387 2.417,12 0.366,1.54 0.841,3.7 1.054,4.8 0.214,1.1 0.731,2.903 1.151,4.008 0.419,1.104 0.766,2.364 0.771,2.8 0.005,0.435 0.357,1.559 0.783,2.498 0.425,0.938 0.896,2.378 1.045,3.2 0.149,0.821 0.607,2.162 1.017,2.978 0.41,0.816 0.748,1.806 0.75,2.2 0.002,0.394 0.446,1.616 0.987,2.716 0.541,1.1 0.991,2.27 0.999,2.6 0.008,0.33 0.373,1.14 0.81,1.8 0.437,0.66 0.796,1.452 0.797,1.76 0.002,0.308 0.483,1.568 1.07,2.8 2.773,5.822 6.771,13.698 8.176,16.11 0.857,1.468 1.557,2.835 1.557,3.038 0,0.202 0.36,0.694 0.8,1.092 0.44,0.398 0.8,0.899 0.8,1.114 0,0.485 3.306,5.664 5.253,8.229 0.799,1.053 1.732,2.454 2.074,3.115 0.341,0.661 1.129,1.746 1.75,2.41 0.621,0.665 1.619,1.911 2.218,2.77 0.6,0.859 1.534,2.102 2.076,2.762 0.542,0.66 1.354,1.65 1.803,2.2 2.596,3.18 9.439,10.675 12.417,13.6 3.149,3.094 4.48,4.345 10.031,9.428 1.82,1.667 7.568,6.38 9.966,8.172 0.736,0.55 1.609,1.266 1.938,1.592 0.6,0.591 1.659,1.325 8.33,5.77 7.58,5.051 8.815,5.838 9.173,5.845 0.204,0.004 1.126,0.52 2.05,1.146 0.923,0.625 3.353,1.985 5.4,3.021 2.046,1.036 3.991,2.047 4.321,2.246 0.33,0.2 1.86,0.921 3.4,1.602 1.54,0.682 3.455,1.586 4.254,2.009 0.8,0.423 1.7,0.77 2,0.771 0.301,0.002 1.08,0.282 1.734,0.622 1.845,0.963 7.009,2.976 7.632,2.976 0.307,0 1.328,0.347 2.269,0.772 0.941,0.425 3.331,1.248 5.311,1.829 1.98,0.582 4.5,1.341 5.6,1.688 1.1,0.346 3.17,0.859 4.6,1.139 1.43,0.281 3.584,0.794 4.787,1.141 1.203,0.347 2.655,0.631 3.228,0.631 0.572,0 1.986,0.281 3.142,0.624 1.156,0.344 4.204,0.88 6.772,1.192 2.569,0.312 5.571,0.736 6.671,0.942 7.396,1.385 37.819,1.381 45.2,-0.005 1.1,-0.207 4.178,-0.628 6.841,-0.936 2.662,-0.308 5.812,-0.829 7,-1.157 1.187,-0.329 3.059,-0.711 4.159,-0.851 1.1,-0.139 3.036,-0.604 4.302,-1.031 1.265,-0.428 2.705,-0.778 3.2,-0.778 0.813,0 2.633,-0.522 7.898,-2.268 0.99,-0.329 2.704,-0.827 3.809,-1.107 1.105,-0.281 2.582,-0.806 3.28,-1.168 0.699,-0.361 1.595,-0.663 1.991,-0.67 0.396,-0.006 1.62,-0.455 2.72,-0.996 1.1,-0.541 2.226,-0.985 2.501,-0.987 0.276,-0.002 1.174,-0.364 1.995,-0.804 0.82,-0.44 1.729,-0.8 2.019,-0.8 0.29,0 1.192,-0.349 2.006,-0.776 0.813,-0.428 4.269,-2.146 7.679,-3.82 3.41,-1.674 7.1,-3.569 8.2,-4.212 1.1,-0.643 2.45,-1.4 3,-1.682 0.55,-0.282 1.54,-0.857 2.2,-1.278 10.389,-6.62 14.671,-9.56 16.79,-11.527 0.885,-0.822 1.733,-1.497 1.883,-1.5 0.303,-0.006 7.093,-5.43 7.727,-6.173 0.22,-0.258 0.779,-0.73 1.242,-1.05 1.258,-0.869 7.961,-7.074 10.306,-9.539 5.933,-6.239 7.119,-7.596 13.138,-15.038 2.137,-2.643 4.171,-5.165 4.52,-5.605 1.247,-1.574 4.621,-6.557 7.991,-11.8 2.92,-4.544 3.19,-4.979 3.713,-6 0.282,-0.55 1.04,-1.9 1.685,-3 0.645,-1.1 2.542,-4.79 4.215,-8.2 1.674,-3.41 3.392,-6.866 3.817,-7.679 0.425,-0.814 0.773,-1.716 0.773,-2.006 0,-0.29 0.36,-1.199 0.8,-2.019 0.44,-0.821 0.8,-1.707 0.8,-1.968 0,-0.262 0.348,-1.207 0.774,-2.102 0.999,-2.1 2.354,-5.94 2.901,-8.22 0.236,-0.987 0.663,-2.157 0.947,-2.6 0.284,-0.443 0.709,-1.866 0.944,-3.161 0.235,-1.295 0.616,-2.582 0.846,-2.86 0.231,-0.278 0.599,-1.648 0.819,-3.045 0.22,-1.397 0.655,-3.26 0.968,-4.14 0.312,-0.88 0.755,-2.892 0.983,-4.472 0.229,-1.58 0.594,-3.338 0.81,-3.907 0.216,-0.569 0.585,-2.696 0.819,-4.728 0.234,-2.031 0.679,-5.043 0.989,-6.693 0.31,-1.65 0.757,-6.69 0.994,-11.2 0.237,-4.51 0.523,-8.832 0.637,-9.605 0.661,-4.484 -1.405,-28.599 -3.272,-38.195 -0.342,-1.76 -0.86,-4.573 -1.151,-6.252 -0.29,-1.678 -0.705,-3.388 -0.922,-3.8 -0.216,-0.411 -0.516,-1.558 -0.667,-2.548 -0.273,-1.801 -0.842,-3.8 -2.789,-9.8 -0.571,-1.76 -1.042,-3.47 -1.047,-3.8 -0.006,-0.33 -0.358,-1.32 -0.783,-2.2 -0.425,-0.88 -0.785,-1.87 -0.799,-2.2 -0.014,-0.33 -0.469,-1.5 -1.01,-2.6 -0.541,-1.1 -0.985,-2.27 -0.986,-2.6 -0.002,-0.33 -0.39,-1.41 -0.862,-2.4 -0.473,-0.99 -1.179,-2.52 -1.57,-3.4 -1.333,-3.003 -7.217,-14.796 -8.181,-16.4 -0.53,-0.88 -1.195,-2.05 -1.479,-2.6 -0.533,-1.033 -0.888,-1.605 -3.722,-6 -0.922,-1.43 -2.273,-3.545 -3.001,-4.7 -0.729,-1.155 -1.462,-2.1 -1.63,-2.1 -0.169,0 -0.422,-0.365 -0.564,-0.812 -0.141,-0.446 -1.099,-1.871 -2.127,-3.166 -1.028,-1.295 -2.229,-2.854 -2.669,-3.466 -1.267,-1.762 -6.251,-7.915 -6.768,-8.356 -0.258,-0.22 -0.73,-0.779 -1.05,-1.242 -0.869,-1.258 -7.074,-7.961 -9.539,-10.306 -3.179,-3.024 -3.34,-3.172 -6.103,-5.649 -3.552,-3.183 -3.588,-3.214 -8.94,-7.539 -2.64,-2.134 -5.063,-4.101 -5.385,-4.372 -0.844,-0.711 -9.003,-6.199 -14.415,-9.696 -2.404,-1.553 -7.643,-4.558 -10,-5.736 -2.962,-1.479 -3.45,-1.734 -4,-2.086 -0.33,-0.211 -1.32,-0.719 -2.2,-1.129 -0.88,-0.41 -2.95,-1.375 -4.6,-2.146 -1.65,-0.771 -3.45,-1.537 -4,-1.704 -0.55,-0.166 -1.355,-0.549 -1.789,-0.849 -0.434,-0.3 -1.052,-0.546 -1.374,-0.546 -0.321,0 -1.316,-0.348 -2.211,-0.774 -1.662,-0.79 -5.01,-2.021 -8.226,-3.023 -0.99,-0.308 -2.7,-0.847 -3.8,-1.197 -6.09,-1.937 -10.715,-3.125 -15.8,-4.057 -1.65,-0.303 -3.54,-0.742 -4.2,-0.977 -0.66,-0.235 -2.91,-0.593 -5,-0.796 -2.09,-0.203 -5.15,-0.635 -6.8,-0.959 -6.095,-1.197 -25.017,-1.664 -39.4,-0.97 m 22.973,15.915 c 2.77,3.89 0.784,5.393 -7.449,5.638 l -6.724,0.2 v 4 4 l 5.4,0.2 c 6.487,0.24 6.4,0.196 6.4,3.244 0,3.17 -1.144,3.775 -6.492,3.433 -4.66,-0.299 -5.108,0.174 -5.108,5.395 0,5.357 0.138,5.449 7.522,5 3.147,-0.191 6.131,-0.245 6.632,-0.119 1.974,0.495 2.929,4.896 1.335,6.153 -0.816,0.644 -22.375,1.012 -23.217,0.396 -0.885,-0.647 -1.57,-14.794 -1.389,-28.69 l 0.117,-8.989 1,-0.506 c 0.726,-0.367 3.759,-0.507 11.073,-0.511 l 10.073,-0.006 0.827,1.162 m -42.539,5.105 c 6.782,3.105 8.99,13.413 3.898,18.197 -1.673,1.572 -1.26,2.673 2.16,5.752 1.7,1.531 4.265,3.915 5.7,5.298 l 2.608,2.514 -1.328,1.138 c -1.33,1.141 -3.017,1.621 -5.718,1.63 -1.678,0.005 -2.547,-0.591 -6.754,-4.631 -3.606,-3.464 -6.738,-6.165 -7.148,-6.165 -2.133,0 -2.149,3.216 -0.047,9.302 1.503,4.353 0.69,6.047 -3.2,6.662 -3.155,0.498 -4.789,-0.082 -4.823,-1.713 -0.009,-0.468 -0.292,-1.571 -0.628,-2.451 -0.337,-0.88 -0.856,-2.68 -1.154,-4 -0.627,-2.775 -1.518,-6.104 -2.623,-9.8 -0.999,-3.338 -1.889,-6.775 -2.54,-9.8 -0.284,-1.32 -0.859,-3.356 -1.277,-4.524 l -0.76,-2.125 1.544,-1.375 c 0.849,-0.757 1.749,-1.382 2,-1.389 0.251,-0.006 1.356,-0.455 2.456,-0.996 1.1,-0.541 2.27,-0.988 2.6,-0.993 0.33,-0.005 1.68,-0.357 3,-0.782 3.792,-1.221 9.059,-1.111 12.034,0.251 m 87.223,1.951 c 5.541,1.089 12.943,5.552 12.943,7.803 0,0.823 -1.609,2.913 -2.799,3.637 l -1.279,0.778 -1.416,-1.118 c -4.971,-3.924 -8.778,-5.199 -11.782,-3.944 -3.751,1.567 -2.513,4.205 4.333,9.226 9.721,7.13 11.362,13.534 5.141,20.06 -3.64,3.819 -14.032,3.861 -19.46,0.08 -0.584,-0.407 -1.161,-0.74 -1.282,-0.74 -0.121,0 -0.814,-0.405 -1.54,-0.9 -5.463,-3.726 -6.312,-5.84 -3.501,-8.716 1.586,-1.622 2.785,-1.239 5.771,1.844 1.667,1.722 6.894,4.172 9.477,4.442 2.83,0.295 4.737,-1.141 4.737,-3.568 0,-1.281 -3.435,-5.502 -4.477,-5.502 -1.943,0 -9.323,-7.498 -9.949,-10.109 -2.158,-8.996 4.962,-15.262 15.083,-13.273 m -98.747,4.406 c -2.171,1.178 -2.214,2.474 -0.288,8.677 1.106,3.564 1.123,3.571 5.064,2.24 3.385,-1.143 4.514,-2.467 4.514,-5.293 0,-4.79 -5.118,-7.889 -9.29,-5.624 m -23.61,3.874 c 0.275,0.22 0.5,0.589 0.5,0.819 0,0.231 0.518,1.514 1.15,2.851 0.633,1.338 1.262,2.702 1.398,3.032 0.136,0.33 0.416,0.87 0.622,1.2 0.207,0.33 0.94,1.86 1.63,3.4 0.69,1.54 1.427,3.07 1.639,3.4 0.211,0.33 0.497,0.94 0.634,1.355 0.137,0.416 0.672,1.55 1.188,2.522 0.517,0.971 0.939,2.002 0.939,2.29 0,0.289 0.337,0.954 0.748,1.479 0.411,0.525 0.873,1.527 1.026,2.226 0.152,0.7 0.536,1.487 0.852,1.749 0.316,0.262 0.574,0.677 0.574,0.922 0,0.245 0.473,1.38 1.051,2.522 1.423,2.813 1.14,3.725 -1.643,5.296 -2.795,1.577 -5.808,1.546 -5.808,-0.06 0,-0.259 -0.794,-2.097 -1.765,-4.086 -1.603,-3.282 -3.019,-6.29 -6.22,-13.215 -0.61,-1.32 -1.312,-2.85 -1.559,-3.4 -0.248,-0.55 -0.621,-1.27 -0.829,-1.6 -0.503,-0.797 -2.263,-4.775 -2.595,-5.864 -0.145,-0.475 -0.526,-1.082 -0.847,-1.349 -1.518,-1.259 -0.669,-3.518 1.815,-4.831 2.99,-1.579 4.172,-1.721 5.5,-0.658 m 147.719,1.725 c 0.285,0.343 1.072,0.892 1.749,1.222 1.966,0.955 3.833,2.036 4.56,2.641 0.369,0.307 1.122,0.783 1.672,1.056 0.55,0.273 1.72,0.937 2.6,1.474 0.88,0.538 2.154,1.239 2.832,1.558 0.677,0.319 1.464,0.86 1.749,1.203 0.284,0.343 0.72,0.626 0.968,0.63 0.248,0.004 1.261,0.539 2.251,1.188 5.426,3.56 5.509,3.698 3.828,6.361 -1.306,2.069 -2.561,2.28 -4.745,0.799 -0.926,-0.627 -1.853,-1.144 -2.061,-1.148 -0.209,-0.004 -1.02,-0.451 -1.804,-0.995 -2.099,-1.454 -2.911,-1.048 -4.915,2.458 -1.585,2.772 -2.076,3.605 -4.315,7.33 -3.388,5.637 -4.464,7.468 -5.14,8.752 -0.303,0.577 -0.868,1.408 -1.254,1.848 -0.386,0.44 -0.819,1.16 -0.962,1.6 -0.144,0.44 -0.788,1.415 -1.432,2.167 l -1.171,1.368 -1.714,-0.755 c -4.9,-2.156 -5.604,-3.833 -3.19,-7.6 1.755,-2.74 2.55,-4.044 4.946,-8.121 0.951,-1.617 2.128,-3.597 2.615,-4.4 0.487,-0.802 1.347,-2.269 1.91,-3.259 0.564,-0.99 1.375,-2.34 1.802,-3 2.499,-3.857 2.471,-5.012 -0.151,-6.255 -4.636,-2.198 -5.993,-3.626 -5.412,-5.697 0.716,-2.549 3.507,-3.964 4.784,-2.425 m -161.94,11.856 c 7.561,6.459 6.668,14.603 -2.379,21.683 -1.375,1.076 -2.5,2.098 -2.5,2.271 0,0.551 0.838,2.543 1.16,2.759 0.311,0.208 2.812,3.699 4.653,6.493 1.454,2.207 0.455,3.973 -3.298,5.835 -1.873,0.929 -3.074,0.66 -4.114,-0.92 -1.298,-1.972 -4.86,-7.029 -8.311,-11.8 -1.034,-1.43 -2.512,-3.521 -3.285,-4.647 C 97.632,75.828 96.1,73.601 95,72.005 93.9,70.409 92.819,68.796 92.597,68.42 c -0.221,-0.375 -0.716,-0.996 -1.1,-1.38 -1.21,-1.211 -0.785,-2.104 2.603,-5.459 6.723,-6.658 10.182,-8.378 16.559,-8.232 l 3.66,0.084 2.16,1.846 M 106,60.71 c -4.761,2.304 -5.474,3.714 -3.381,6.69 0.773,1.1 1.827,2.63 2.342,3.4 2.103,3.147 2.893,3.187 6.239,0.315 1.063,-0.913 2.475,-4.249 2.185,-5.163 -1.144,-3.604 -5.046,-6.374 -7.385,-5.242 m 213.037,12.047 c 3.031,1.848 5.013,5.64 3.574,6.834 -0.325,0.269 -0.706,1.146 -0.849,1.949 -0.143,0.803 -0.597,2.021 -1.011,2.707 -0.413,0.686 -0.751,1.457 -0.751,1.713 0,0.256 -0.297,1.135 -0.659,1.953 -0.703,1.584 -1.64,3.956 -2.722,6.887 -0.366,0.99 -1.015,2.532 -1.442,3.426 -0.427,0.895 -0.777,1.835 -0.777,2.09 0,0.43 -0.609,1.915 -2.412,5.884 -0.4,0.88 -0.849,2.05 -0.998,2.6 -0.223,0.825 -2.081,5.05 -2.435,5.54 -0.396,0.547 -3.201,-1.1 -4.546,-2.669 -1.701,-1.985 -2.002,-3.332 -1.048,-4.694 0.723,-1.032 1.578,-4.091 1.503,-5.377 -0.042,-0.718 -1.48,-2.374 -5.1,-5.876 l -5.042,-4.875 -1.861,0.839 c -1.024,0.462 -2.594,1.199 -3.489,1.637 -2.186,1.07 -3.281,0.728 -5.772,-1.802 -2.571,-2.611 -2.571,-3.575 0,-4.936 2.558,-1.355 6.271,-2.987 6.796,-2.987 0.245,0 1.111,-0.353 1.925,-0.785 2.255,-1.196 5.779,-2.725 6.976,-3.025 0.588,-0.148 1.28,-0.521 1.536,-0.829 0.256,-0.309 0.74,-0.561 1.076,-0.561 0.336,0 1.619,-0.472 2.851,-1.05 1.232,-0.577 3.05,-1.41 4.04,-1.849 0.99,-0.44 2.34,-1.077 3,-1.416 3.832,-1.97 5.973,-2.342 7.637,-1.328 M 76.6,79.2 c 0.398,0.44 0.908,0.8 1.133,0.8 0.224,0 1.637,0.81 3.138,1.8 2.637,1.739 7.437,4.803 8.786,5.608 0.361,0.216 2.251,1.455 4.2,2.754 1.949,1.299 4.713,3.114 6.143,4.034 4.402,2.831 4.573,2.945 5.544,3.721 l 0.945,0.753 -0.97,1.822 c -2.791,5.242 -4.032,5.389 -10.2,1.208 -2.516,-1.705 -5.153,-3.46 -5.861,-3.9 -0.708,-0.44 -1.706,-1.101 -2.218,-1.47 -2.873,-2.066 -2.572,0.32 0.609,4.828 0.372,0.528 1.111,1.788 1.643,2.8 0.915,1.744 2.113,3.689 3.771,6.126 2.273,3.341 -2.553,8.42 -6.196,6.52 -0.624,-0.325 -1.884,-0.783 -2.8,-1.017 -0.917,-0.234 -2.51,-0.777 -3.541,-1.206 -1.031,-0.43 -2.271,-0.781 -2.756,-0.781 -0.485,0 -1.651,-0.384 -2.589,-0.853 -3.592,-1.793 -4.635,-0.522 -1.652,2.011 9.147,7.764 11.733,11.044 10.371,13.156 -3.21,4.981 -4.124,4.859 -10.61,-1.414 -2.9,-2.805 -7.167,-6.92 -9.482,-9.145 -2.314,-2.224 -5.693,-5.473 -7.508,-7.219 -4.193,-4.035 -4.276,-5.006 -0.739,-8.636 2.103,-2.159 3.034,-2.339 5.745,-1.108 0.938,0.425 2.378,0.898 3.2,1.05 0.821,0.151 2.121,0.609 2.888,1.017 0.767,0.407 1.735,0.741 2.152,0.741 0.939,0 6.659,1.811 8.965,2.838 3.092,1.377 4.062,0.598 2.426,-1.949 -0.526,-0.819 -1.132,-1.78 -1.347,-2.135 -0.375,-0.622 -2.647,-4.17 -3.698,-5.777 -0.279,-0.428 -0.782,-1.375 -1.118,-2.106 -0.335,-0.731 -1.198,-2.171 -1.918,-3.2 -0.72,-1.029 -1.837,-2.817 -2.482,-3.974 L 69.4,84.795 70.539,82.697 c 1.94,-3.573 4.602,-5.109 6.061,-3.497 m 136.618,-0.092 c 0.559,0.225 3.061,0.626 5.559,0.89 2.498,0.264 5.244,0.727 6.101,1.029 0.857,0.303 2.495,0.67 3.64,0.816 1.145,0.146 2.581,0.518 3.192,0.827 0.61,0.308 2.14,0.751 3.4,0.982 1.259,0.232 2.47,0.562 2.69,0.733 0.22,0.171 1.12,0.525 2,0.786 2.468,0.733 9.144,3.512 13,5.411 6.571,3.235 9.857,5.201 17.748,10.618 8.287,5.689 20.741,17.705 25.442,24.548 0.775,1.128 1.55,2.156 1.721,2.282 0.171,0.127 0.934,1.207 1.697,2.4 1.913,2.996 2.274,3.529 3.201,4.726 0.445,0.574 1.123,1.674 1.508,2.444 0.385,0.77 1.122,2.12 1.639,3 1.979,3.372 5.897,11.669 7.178,15.2 0.32,0.88 0.802,2.23 1.071,3 0.27,0.77 0.826,2.3 1.237,3.4 0.41,1.1 0.929,2.972 1.153,4.16 0.224,1.189 0.6,2.393 0.836,2.677 0.235,0.284 0.61,1.826 0.832,3.428 0.221,1.601 0.548,3.186 0.726,3.523 0.178,0.337 0.518,2.232 0.755,4.212 0.238,1.98 0.654,5.22 0.926,7.2 0.79,5.757 0.886,19.387 0.162,23.2 -0.334,1.76 -0.717,4.73 -0.852,6.6 -0.134,1.87 -0.497,4.21 -0.805,5.2 -0.308,0.99 -0.748,3.136 -0.976,4.769 -0.229,1.633 -0.614,3.209 -0.857,3.501 -0.243,0.293 -0.678,1.567 -0.966,2.831 -0.664,2.908 -1.625,5.835 -2.609,7.943 -0.422,0.904 -0.773,1.894 -0.78,2.2 -0.006,0.306 -0.455,1.456 -0.996,2.556 -0.541,1.1 -0.985,2.293 -0.987,2.651 -0.002,0.358 -0.254,0.859 -0.56,1.112 -0.305,0.254 -0.758,1.266 -1.005,2.249 -0.248,0.983 -0.608,1.788 -0.801,1.788 -0.193,0 -0.653,0.675 -1.022,1.5 -1.39,3.11 -5.178,9.395 -6.557,10.881 -3.861,4.158 -6.01,4.957 -13.416,4.991 -5.49,0.025 -6.216,0.113 -7.938,0.961 -1.919,0.945 -5.009,1.046 -8.505,0.277 -1.239,-0.272 -5.423,1.257 -6.002,2.193 -0.152,0.246 -0.692,0.604 -1.2,0.798 -0.558,0.212 -1.025,0.812 -1.18,1.515 -0.199,0.906 -0.701,1.374 -2.263,2.105 -2.764,1.295 -4.91,3.702 -4.56,5.117 0.436,1.769 0.943,1.953 1.94,0.702 0.74,-0.928 1.095,-1.085 1.888,-0.837 1.436,0.448 1.646,1.072 0.699,2.08 -0.785,0.836 -0.794,0.915 -0.132,1.168 0.46,0.177 0.841,0.038 1.083,-0.396 0.298,-0.533 0.931,-0.656 3.132,-0.611 2.085,0.043 3.142,-0.144 4.335,-0.766 0.868,-0.452 2.582,-1.008 3.81,-1.235 1.227,-0.227 2.67,-0.7 3.205,-1.05 0.721,-0.472 2.206,-0.669 5.709,-0.758 2.605,-0.065 4.978,-0.19 5.273,-0.277 3.598,-1.058 -1.611,5.019 -10.537,12.292 -1.1,0.897 -3.147,2.422 -4.548,3.39 -1.401,0.968 -3.253,2.255 -4.114,2.86 -0.862,0.605 -1.712,1.1 -1.89,1.1 -0.178,0 -0.644,0.353 -1.034,0.785 -0.391,0.432 -1.319,0.986 -2.062,1.231 -0.744,0.245 -1.352,0.585 -1.352,0.754 0,0.17 -0.675,0.605 -1.5,0.968 -0.825,0.362 -2.787,1.335 -4.36,2.161 -1.573,0.825 -3.553,1.802 -4.4,2.171 -0.847,0.368 -2.597,1.133 -3.888,1.7 -1.292,0.566 -2.555,1.03 -2.806,1.03 -0.252,0 -1.085,0.334 -1.852,0.741 -0.767,0.408 -2.114,0.871 -2.994,1.03 -0.88,0.158 -1.98,0.532 -2.443,0.831 -0.464,0.298 -1.944,0.742 -3.289,0.986 -1.344,0.243 -3.035,0.686 -3.756,0.983 -0.722,0.297 -2.302,0.662 -3.512,0.811 -1.21,0.15 -3.1,0.516 -4.2,0.814 -11.404,3.095 -37.268,2.244 -51,-1.678 -1.21,-0.346 -3.19,-0.858 -4.4,-1.138 -2.759,-0.64 -5.696,-1.608 -7.911,-2.608 -0.941,-0.424 -1.954,-0.772 -2.251,-0.772 -0.584,0 -3.155,-1.106 -8.838,-3.801 -1.98,-0.939 -3.87,-1.827 -4.2,-1.972 -0.33,-0.146 -1.32,-0.705 -2.2,-1.243 -0.88,-0.538 -2.154,-1.239 -2.832,-1.558 -0.677,-0.319 -1.464,-0.86 -1.749,-1.203 -0.284,-0.343 -0.751,-0.623 -1.037,-0.623 -0.286,0 -1.031,-0.405 -1.654,-0.9 -0.624,-0.495 -1.423,-1.08 -1.775,-1.3 -6.215,-3.88 -19.764,-15.954 -24.239,-21.6 -5.236,-6.605 -6.415,-8.119 -7.013,-9 -0.373,-0.55 -1.311,-1.9 -2.084,-3 -0.772,-1.1 -1.408,-2.203 -1.411,-2.451 -0.003,-0.248 -0.295,-0.691 -0.648,-0.984 -0.353,-0.292 -0.813,-0.9 -1.024,-1.349 -0.21,-0.449 -0.901,-1.716 -1.534,-2.816 -0.633,-1.1 -1.342,-2.45 -1.576,-3 -0.233,-0.55 -0.605,-1.27 -0.827,-1.6 -0.221,-0.33 -0.603,-1.05 -0.849,-1.6 -0.245,-0.55 -0.885,-1.99 -1.422,-3.2 -0.538,-1.21 -1.326,-2.866 -1.752,-3.679 -0.426,-0.814 -0.774,-1.784 -0.774,-2.156 0,-0.373 -0.341,-1.417 -0.757,-2.321 -2.169,-4.71 -3.275,-9.652 -2.363,-10.564 0.74,-0.74 125.724,-0.692 127.485,0.049 0.692,0.29 3.304,2.544 5.806,5.008 l 4.548,4.479 0.156,3.292 c 0.229,4.839 3.033,8.692 6.325,8.692 0.847,0 1.904,0.322 2.446,0.745 0.525,0.41 1.335,0.864 1.801,1.01 0.466,0.146 1.169,0.621 1.562,1.055 0.393,0.435 0.896,0.79 1.118,0.79 0.453,0 4.187,2.308 5.002,3.092 0.29,0.279 0.74,0.509 1,0.51 0.259,0.002 1.641,0.811 3.071,1.798 1.43,0.987 2.797,1.796 3.038,1.798 0.241,0.001 0.749,0.346 1.129,0.765 2.787,3.08 3.968,2.006 5.016,-4.563 0.456,-2.86 1.173,-5.92 1.593,-6.8 0.909,-1.905 1.362,-4.239 0.932,-4.809 -1.171,-1.553 -9.442,-7.449 -11.172,-7.965 -2.682,-0.799 -2.576,-4.39 0.228,-7.765 2.368,-2.849 5.149,-9.742 5.811,-14.403 0.136,-0.958 0.513,-2.254 0.836,-2.88 2.557,-4.943 -0.626,-9.649 -8.372,-12.378 -1.122,-0.395 -3.372,-1.202 -5.001,-1.794 -2.271,-0.826 -3.391,-1.023 -4.8,-0.847 -7.457,0.93 -11.063,0.587 -18.746,-1.785 -1.38,-0.426 -2.86,-0.774 -3.289,-0.774 -0.429,0 -2.491,-0.81 -4.582,-1.8 -2.09,-0.99 -4.041,-1.8 -4.334,-1.8 -0.294,0 -0.883,-0.264 -1.311,-0.587 -1.122,-0.849 -1.567,-0.764 -3.68,0.703 -6.966,4.836 -8.013,5.071 -24.496,5.489 -7.59,0.192 -14.802,0.543 -16.026,0.779 -1.224,0.236 -5.184,0.471 -8.8,0.523 l -6.574,0.093 -4.8,-2.4 -4.8,-2.4 -5.911,-0.129 c -10.077,-0.22 -11.865,0.606 -15.432,7.129 -2.506,4.583 -3.225,5.345 -4.561,4.837 -0.603,-0.23 -1.096,-0.575 -1.096,-0.769 0,-0.679 -1.97,-2.468 -2.719,-2.468 -0.467,0 -1.464,0.963 -2.601,2.511 -2.073,2.824 -3.719,4.197 -5.444,4.542 -0.71,0.142 -1.679,0.864 -2.457,1.832 -0.784,0.977 -2.21,2.036 -3.664,2.724 -1.309,0.619 -2.68,1.385 -3.047,1.703 -5.815,5.027 -6.642,2.851 -6.658,-17.512 -0.008,-11.165 0.112,-14.245 0.671,-17.2 0.375,-1.98 0.846,-4.68 1.047,-6 0.457,-2.997 1.465,-7.264 2.457,-10.4 0.418,-1.32 0.885,-3.024 1.038,-3.787 0.153,-0.763 0.433,-1.663 0.621,-2 0.189,-0.337 0.72,-1.693 1.179,-3.013 0.46,-1.32 1.121,-3.21 1.468,-4.2 0.347,-0.99 0.849,-2.07 1.116,-2.4 0.267,-0.33 0.614,-1.14 0.77,-1.8 0.157,-0.66 0.52,-1.47 0.807,-1.8 0.287,-0.33 0.655,-1.05 0.818,-1.6 0.163,-0.55 0.499,-1.249 0.747,-1.553 0.423,-0.52 0.998,-1.556 3.023,-5.447 0.458,-0.88 1.186,-2.14 1.618,-2.8 0.432,-0.66 1.086,-1.74 1.453,-2.4 0.367,-0.66 1.32,-2.01 2.117,-3 0.797,-0.99 2.071,-2.695 2.832,-3.788 0.762,-1.094 1.619,-2.264 1.906,-2.6 0.287,-0.337 0.923,-1.088 1.412,-1.669 5.856,-6.955 10.707,-11.829 16.268,-16.343 0.948,-0.77 2.052,-1.705 2.452,-2.079 2.464,-2.298 13.173,-9.245 17.77,-11.527 0.88,-0.436 1.949,-1.064 2.376,-1.394 0.428,-0.33 1.078,-0.6 1.447,-0.6 0.368,0 1.113,-0.349 1.655,-0.775 0.542,-0.427 1.511,-0.907 2.154,-1.068 0.642,-0.161 1.708,-0.621 2.368,-1.023 0.66,-0.402 1.473,-0.732 1.806,-0.733 0.333,0 1.233,-0.333 2,-0.74 0.767,-0.406 1.934,-0.864 2.594,-1.018 0.66,-0.154 2.1,-0.615 3.2,-1.025 3.346,-1.245 11.693,-3.4 15.6,-4.027 3.827,-0.614 10.81,-1.602 12.4,-1.755 3.262,-0.313 22.427,0.074 23.418,0.472 m 95.892,5.039 c -0.301,0.301 -0.989,0.671 -1.529,0.823 -1.455,0.408 -6.381,2.78 -6.381,3.072 0,0.139 1.267,1.529 2.815,3.09 3.4,3.428 4.343,3.453 5.326,0.141 0.321,-1.079 0.779,-2.302 1.018,-2.718 0.692,-1.201 1.617,-4.27 1.396,-4.628 -0.323,-0.522 -2.047,-0.378 -2.645,0.22 m 29.861,9.282 c 0.346,0.345 0.629,0.857 0.629,1.138 0,0.28 0.36,0.835 0.8,1.233 0.44,0.398 0.8,0.895 0.8,1.104 0,0.209 0.45,0.915 1,1.569 0.55,0.654 1,1.423 1,1.709 0,0.286 0.277,0.75 0.615,1.03 0.338,0.281 1.246,1.608 2.019,2.949 0.773,1.341 2.014,3.249 2.759,4.239 0.745,0.99 1.366,1.952 1.38,2.137 0.015,0.185 0.397,0.815 0.848,1.4 2.465,3.191 3.749,6.863 2.4,6.863 -0.209,0 -0.865,0.45 -1.459,1 -2.068,1.917 -2.889,1.431 -6.137,-3.633 -2.284,-3.561 -3.016,-3.923 -5.025,-2.485 -1.735,1.242 -4.406,3.057 -5.458,3.71 -0.362,0.224 -1.712,1.113 -3,1.975 -1.924,1.288 -5.287,3.481 -8.942,5.831 -0.33,0.212 -1.782,1.168 -3.227,2.124 -3.106,2.055 -4.166,1.869 -6.037,-1.057 -2.359,-3.69 -2.116,-4.401 2.422,-7.08 1.266,-0.748 3.65,-2.337 5.956,-3.97 0.943,-0.668 1.815,-1.215 1.938,-1.215 0.124,0 0.789,-0.405 1.478,-0.9 0.689,-0.495 1.553,-1.08 1.92,-1.3 0.367,-0.22 1.63,-1.045 2.808,-1.834 1.178,-0.788 3.175,-2.102 4.438,-2.918 2.98,-1.928 3.418,-2.722 2.295,-4.16 -1.742,-2.229 -3.991,-6.079 -3.991,-6.832 0,-2.012 4.389,-4.01 5.771,-2.627 M 257.4,110.296 c -2.452,0.186 -2.886,0.56 -2.046,1.759 0.764,1.092 0.878,5.161 0.198,7.111 -0.699,2.004 0.31,18.373 1.194,19.378 0.545,0.62 0.674,1.984 0.774,8.2 0.065,4.101 0.155,9.541 0.2,12.089 0.085,4.901 -0.008,5.276 -2.647,10.734 -1.061,2.193 -1.081,4.271 -0.057,5.815 2.01,3.032 2.627,9.32 1.491,15.218 -1.626,8.451 -1.431,14.349 0.576,17.368 0.949,1.427 0.831,5.006 -0.243,7.436 -0.462,1.044 -0.844,2.37 -0.849,2.947 -0.005,0.577 -0.345,1.789 -0.755,2.693 -0.411,0.904 -0.878,2.434 -1.039,3.4 -0.16,0.966 -0.545,2.251 -0.855,2.856 -0.309,0.605 -0.737,2.045 -0.95,3.2 -0.213,1.155 -0.686,2.777 -1.052,3.604 l -0.665,1.504 1.747,1.612 c 0.961,0.887 2.744,2.369 3.962,3.293 1.219,0.924 2.801,2.216 3.516,2.872 l 1.3,1.191 v 4.55 c 0,3.799 -0.123,4.726 -0.748,5.612 -2.049,2.909 -2.44,4.302 -2.855,10.143 -0.223,3.146 -0.66,6.619 -0.971,7.719 -1.391,4.918 -0.67,6.843 1.536,4.1 1.233,-1.533 3.038,-4.241 3.038,-4.557 0,-0.122 0.278,-0.809 0.619,-1.526 0.583,-1.229 0.565,-1.405 -0.314,-3.061 -1.113,-2.098 -0.922,-2.678 1.808,-5.501 2.681,-2.771 2.644,-2.59 2.266,-11.055 -0.717,-16.092 -0.57,-28.121 0.376,-30.763 0.465,-1.299 0.845,-2.836 0.845,-3.416 0,-0.579 0.282,-2.126 0.627,-3.437 0.345,-1.311 0.963,-4.094 1.373,-6.184 0.411,-2.09 0.949,-4.753 1.195,-5.919 0.451,-2.132 0.309,-22.12 -0.212,-29.881 -0.269,-4.005 -0.9,-5.149 -3.161,-5.733 l -1.222,-0.316 -0.2,-7.635 c -0.177,-6.758 -0.287,-7.73 -0.957,-8.469 -0.711,-0.786 -0.719,-0.936 -0.129,-2.541 0.344,-0.938 0.753,-2.516 0.907,-3.506 0.155,-0.99 0.618,-2.229 1.03,-2.754 0.979,-1.247 0.945,-2.27 -0.219,-6.626 -1.818,-6.803 -1.988,-7.623 -2.143,-10.339 -0.116,-2.014 0.008,-2.97 0.477,-3.686 0.349,-0.532 0.634,-1.573 0.634,-2.314 0,-0.741 0.205,-2.37 0.456,-3.62 0.767,-3.817 0.007,-4.162 -7.856,-3.565 m -8.766,0.804 c -0.165,0.165 -5.783,0.407 -12.485,0.538 -11.494,0.224 -12.248,0.285 -13.305,1.066 -0.616,0.456 -1.944,0.952 -2.951,1.103 -1.827,0.274 -2.603,0.705 -4.667,2.593 -5.25,4.801 -8.086,7.328 -9.067,8.082 -0.637,0.49 -1.249,0.987 -1.359,1.104 -0.11,0.118 -1.415,1.264 -2.9,2.548 -2.564,2.216 -2.7,2.421 -2.7,4.079 0,1.255 -0.253,2.019 -0.9,2.72 -0.495,0.535 -1.776,1.926 -2.847,3.09 -2.597,2.823 -4.114,3.794 -6.421,4.111 -4.076,0.558 -7.338,4.172 -4.426,4.903 0.554,0.139 1.322,0.654 1.708,1.144 0.386,0.491 1.103,1.107 1.594,1.37 1.046,0.559 1.257,2.734 0.301,3.101 -2.788,1.07 -4.203,6.56 -2.6,10.092 2.21,4.871 -0.147,9.661 -4.719,9.589 -1.225,-0.02 -2.14,0.27 -3.222,1.02 -0.831,0.576 -1.651,1.047 -1.823,1.047 -0.172,0 -1.602,1.056 -3.178,2.347 -1.577,1.291 -3.366,2.465 -3.977,2.61 -0.61,0.145 -1.859,0.99 -2.774,1.878 -2.141,2.078 -3.416,2.341 -5.395,1.111 -3.275,-2.036 -9.745,-1.109 -13.452,1.928 -1.993,1.632 -3.559,1.001 -5.678,-2.288 -1.779,-2.763 -3.116,-3.066 -16.26,-3.68 -9.79,-0.457 -10.858,-0.33 -17.731,2.116 -1.1,0.392 -2.759,0.913 -3.688,1.158 -3.37,0.889 -3.309,4.871 0.101,6.645 l 1.587,0.826 0.117,3.091 c 0.143,3.759 1.109,4.606 3.396,2.978 5.44,-3.874 16.035,-5.878 21.723,-4.109 1.08,0.335 2.809,0.779 3.843,0.985 1.033,0.206 3.407,1.119 5.276,2.028 l 3.398,1.653 9.124,-0.211 c 5.017,-0.116 10.293,-0.405 11.723,-0.642 1.43,-0.237 7.1,-0.576 12.6,-0.753 9.015,-0.29 10.192,-0.408 11.951,-1.196 1.073,-0.481 2.116,-0.875 2.318,-0.875 0.201,0 1.804,-1.17 3.561,-2.6 3.393,-2.762 4.899,-3.226 6.601,-2.033 0.445,0.311 1.79,0.839 2.989,1.173 2.407,0.671 5.128,1.572 8.188,2.712 1.104,0.411 2.364,0.752 2.8,0.757 0.435,0.005 1.533,0.345 2.438,0.756 0.906,0.411 2.256,0.866 3,1.01 0.745,0.145 2.212,0.646 3.26,1.115 1.849,0.827 1.97,0.832 4.035,0.181 3.353,-1.057 7.986,-0.654 13.459,1.17 9.71,3.236 9.581,3.249 9.595,-0.937 0.003,-0.932 0.377,-3.051 0.831,-4.707 1.182,-4.308 1.206,-8.522 0.056,-9.983 -0.485,-0.617 -0.882,-1.34 -0.882,-1.606 0,-0.266 -0.36,-0.81 -0.8,-1.208 -0.564,-0.511 -0.8,-1.232 -0.8,-2.447 0,-0.948 0.36,-2.637 0.8,-3.753 0.44,-1.116 0.8,-2.39 0.8,-2.831 0,-0.44 0.349,-1.485 0.776,-2.322 1.769,-3.468 1.791,-21.55 0.039,-32.647 -0.208,-1.32 -0.568,-6.874 -0.799,-12.342 -0.232,-5.468 -0.521,-10.103 -0.642,-10.3 -0.269,-0.436 -1.131,-0.468 -1.54,-0.058 M 46.486,127.482 c 1.27,1.217 1.357,1.761 0.519,3.256 -0.596,1.066 -1.002,2.147 -2.853,7.606 -1.145,3.376 -1.266,3.074 1.739,4.356 3.954,1.687 5.709,1.576 5.709,-0.362 0,-0.42 0.303,-1.433 0.673,-2.251 0.37,-0.818 0.865,-2.098 1.101,-2.844 0.683,-2.166 2.23,-3.088 4.194,-2.5 2.919,0.875 3.517,2.373 2.067,5.178 -1.397,2.704 -2.768,6.674 -2.427,7.031 0.726,0.76 9.268,3.542 9.638,3.138 0.447,-0.488 2.754,-5.988 2.754,-6.568 0,-0.299 0.252,-0.904 0.561,-1.345 0.308,-0.44 0.771,-1.605 1.029,-2.589 0.565,-2.16 1.294,-2.788 3.233,-2.788 3.125,0 4.327,2.204 2.777,5.096 -0.44,0.82 -0.8,1.767 -0.8,2.104 0,0.337 -0.336,1.239 -0.747,2.006 -0.41,0.767 -0.881,2.009 -1.046,2.761 -0.165,0.751 -0.638,1.921 -1.052,2.6 -0.414,0.678 -0.753,1.572 -0.754,1.986 0,0.414 -0.346,1.314 -0.767,2 -0.422,0.686 -0.894,1.932 -1.049,2.77 -0.428,2.305 -1.594,2.906 -4.055,2.087 -2.57,-0.856 -6.049,-2.168 -7.53,-2.839 -0.66,-0.3 -2.01,-0.839 -3,-1.2 -0.99,-0.36 -2.7,-0.983 -3.8,-1.384 -1.1,-0.402 -2.54,-1.012 -3.2,-1.356 -0.66,-0.344 -1.539,-0.627 -1.953,-0.629 -0.414,-0.001 -1.314,-0.343 -2,-0.759 -0.686,-0.416 -1.814,-0.877 -2.508,-1.023 -0.693,-0.147 -1.947,-0.616 -2.785,-1.043 -0.838,-0.427 -1.768,-0.777 -2.067,-0.777 -2.973,0 -4.692,-2.874 -3.287,-5.496 0.44,-0.82 0.801,-1.765 0.801,-2.098 10e-4,-0.333 0.34,-1.161 0.754,-1.839 0.414,-0.679 0.884,-1.849 1.045,-2.6 0.161,-0.752 0.539,-1.817 0.841,-2.367 0.301,-0.55 0.838,-1.81 1.192,-2.8 0.353,-0.99 0.922,-2.581 1.264,-3.535 0.972,-2.715 3.528,-3.149 5.789,-0.983 m 313.162,2.219 c 0.577,1.155 1.274,2.729 1.55,3.499 0.848,2.367 1.852,4.929 2.543,6.487 0.362,0.818 0.659,1.682 0.659,1.92 0,0.238 0.298,1.009 0.662,1.713 1.907,3.685 1.843,5.427 -0.251,6.821 -2.312,1.54 -5.611,-0.698 -5.611,-3.807 0,-0.265 -0.347,-1.213 -0.771,-2.108 -0.425,-0.894 -0.971,-2.388 -1.214,-3.319 -0.698,-2.673 -2.22,-3.109 -5.741,-1.644 -3.151,1.312 -3.375,1.618 -2.506,3.429 0.397,0.829 0.952,2.228 1.231,3.108 0.28,0.88 0.805,2.283 1.168,3.118 l 0.659,1.518 -1.204,1.203 c -1.077,1.077 -1.422,1.191 -3.295,1.082 l -2.093,-0.121 -0.76,-2 c -0.418,-1.1 -1.067,-2.878 -1.442,-3.95 -1.132,-3.24 -2.698,-3.676 -6.632,-1.845 -0.88,0.409 -2.14,0.904 -2.8,1.1 -1.546,0.459 -1.786,2.17 -0.623,4.45 0.453,0.887 0.823,1.833 0.823,2.103 0,0.269 0.344,1.221 0.763,2.116 0.42,0.894 1.067,2.701 1.438,4.015 l 0.673,2.389 -1.243,1.111 c -2.705,2.417 -5.76,0.741 -6.661,-3.656 -0.117,-0.568 -0.54,-1.753 -0.942,-2.633 -0.707,-1.55 -0.907,-2.082 -2.434,-6.442 -0.393,-1.123 -0.91,-2.383 -1.148,-2.8 -0.238,-0.417 -0.771,-1.801 -1.184,-3.076 l -0.75,-2.319 2.527,-1.181 c 1.39,-0.65 2.76,-1.183 3.044,-1.184 0.284,-0.002 1.057,-0.291 1.717,-0.642 1.139,-0.607 2.448,-1.112 7.657,-2.954 1.241,-0.439 2.456,-0.959 2.7,-1.154 0.244,-0.196 1.073,-0.49 1.843,-0.655 0.77,-0.165 2.027,-0.636 2.794,-1.046 0.767,-0.411 1.762,-0.747 2.211,-0.747 0.449,0 1.213,-0.277 1.697,-0.616 0.484,-0.34 1.649,-0.87 2.589,-1.179 0.94,-0.309 2.699,-0.926 3.909,-1.371 3.09,-1.135 3.275,-1.082 4.448,1.267 m -0.186,49.495 c 1.26,7.351 1.407,10.414 1.233,25.604 -0.116,10.142 -0.335,15.878 -0.64,16.8 -0.255,0.77 -0.658,3.11 -0.896,5.2 -0.237,2.09 -0.775,4.944 -1.195,6.342 -0.42,1.398 -0.764,3.057 -0.764,3.686 0,0.629 -0.297,2.005 -0.659,3.058 -0.362,1.053 -0.886,2.994 -1.164,4.314 -0.503,2.389 -1.242,4.705 -2.642,8.274 -0.404,1.031 -0.741,2.201 -0.748,2.6 -0.006,0.399 -0.455,1.626 -0.996,2.726 -0.541,1.1 -0.987,2.27 -0.99,2.6 -0.003,0.33 -0.364,1.14 -0.801,1.8 -0.437,0.66 -0.796,1.47 -0.797,1.8 -0.004,1.007 -8.406,17.427 -10.848,21.2 -0.783,1.21 -2.002,3.1 -2.708,4.2 -5.236,8.152 -14.621,19.406 -22.608,27.109 -4.575,4.412 -5.067,4.567 -7.165,2.251 -0.877,-0.968 -2.243,-2.467 -3.034,-3.332 -1.886,-2.058 -1.844,-2.158 2.898,-6.836 2.234,-2.205 5.322,-5.434 6.862,-7.177 1.54,-1.743 3.567,-3.989 4.506,-4.992 0.938,-1.003 2.192,-2.543 2.787,-3.423 0.596,-0.88 1.728,-2.41 2.517,-3.4 0.789,-0.99 2.005,-2.7 2.702,-3.8 0.697,-1.1 1.497,-2.257 1.777,-2.571 0.281,-0.314 0.781,-1.055 1.111,-1.647 0.611,-1.096 1.683,-2.908 3.421,-5.782 0.532,-0.88 1.328,-2.32 1.768,-3.2 0.441,-0.88 0.974,-1.87 1.185,-2.2 0.398,-0.622 1.244,-2.268 2.055,-4 0.258,-0.55 0.896,-1.903 1.42,-3.006 0.523,-1.103 0.951,-2.183 0.95,-2.4 -0.001,-0.217 0.343,-1.114 0.763,-1.994 1.014,-2.121 2.238,-5.181 2.96,-7.4 0.322,-0.99 0.779,-2.34 1.016,-3 0.92,-2.569 1.73,-5.278 2.093,-7 0.209,-0.99 0.737,-2.836 1.174,-4.102 0.437,-1.265 0.795,-2.774 0.795,-3.351 0,-0.578 0.352,-2.422 0.781,-4.099 0.825,-3.216 1.842,-10.506 2.491,-17.848 0.446,-5.054 0.134,-23.215 -0.441,-25.6 -1.821,-7.557 -1.381,-10.031 1.847,-10.409 1.277,-0.149 3.312,-0.488 4.522,-0.753 2.669,-0.584 2.729,-0.518 3.462,3.758 M 48.958,177.989 c 3.897,0.519 3.963,0.647 3.006,5.811 -0.676,3.649 -0.726,32.472 -0.063,36 0.249,1.32 0.657,3.84 0.907,5.6 0.251,1.76 0.73,4.37 1.066,5.8 0.336,1.43 0.848,3.86 1.138,5.4 0.29,1.54 0.811,3.469 1.158,4.287 0.346,0.818 0.63,1.95 0.63,2.516 0,0.566 0.336,1.697 0.746,2.513 0.41,0.816 0.873,2.183 1.028,3.038 0.156,0.855 0.63,2.202 1.054,2.994 0.425,0.792 0.772,1.715 0.772,2.052 0,0.337 0.36,1.284 0.8,2.104 0.44,0.821 0.8,1.701 0.8,1.955 0,1.165 7.038,15.178 10.517,20.94 1.086,1.798 4.765,7.307 5.877,8.801 0.656,0.88 1.314,1.87 1.463,2.2 0.253,0.559 6.166,7.785 9.327,11.4 2.3,2.629 11.671,11.8 12.058,11.8 1.056,0 0.225,2.368 -1.542,4.393 -2.901,3.326 -3.998,4.407 -4.468,4.407 -1.127,0 -11.027,-9.827 -17.352,-17.223 -0.835,-0.977 -1.843,-2.137 -2.239,-2.577 -0.87,-0.968 -5.463,-7.052 -6.794,-9 -0.526,-0.77 -1.751,-2.537 -2.722,-3.927 -0.971,-1.39 -1.94,-2.92 -2.153,-3.4 -0.214,-0.48 -0.906,-1.683 -1.538,-2.673 -1.093,-1.71 -3.865,-6.812 -5.108,-9.4 -0.317,-0.66 -0.747,-1.47 -0.954,-1.8 -0.208,-0.33 -0.574,-1.05 -0.814,-1.6 -0.24,-0.55 -0.764,-1.72 -1.165,-2.6 -2.401,-5.267 -2.764,-6.164 -4.437,-10.957 -0.414,-1.186 -0.917,-2.356 -1.119,-2.6 -0.201,-0.244 -0.496,-1.163 -0.655,-2.043 -0.16,-0.88 -0.602,-2.23 -0.984,-3 -0.381,-0.77 -0.824,-2.298 -0.984,-3.395 -0.16,-1.097 -0.534,-2.464 -0.831,-3.037 -0.296,-0.574 -0.662,-2.016 -0.813,-3.205 -0.15,-1.19 -0.521,-2.772 -0.823,-3.516 -0.303,-0.744 -0.718,-2.824 -0.922,-4.622 -0.204,-1.798 -0.639,-4.429 -0.967,-5.847 -0.905,-3.918 -1.966,-21.265 -1.674,-27.378 0.909,-19.043 1.392,-21.214 4.616,-20.77 0.77,0.106 2.641,0.358 4.158,0.559 m 199.94,108.473 c -0.717,0.717 -0.632,2.338 0.122,2.338 1.186,0 3.034,-1.225 2.902,-1.923 -0.158,-0.832 -2.311,-1.128 -3.024,-0.415 M 138.4,322.128 c 14.497,7.281 14.343,7.186 14.081,8.578 -0.315,1.675 -1.992,4.094 -2.837,4.094 -0.926,0 -3.508,-1.056 -3.821,-1.563 -0.128,-0.207 -0.762,-0.492 -1.409,-0.634 -0.647,-0.142 -1.607,-0.597 -2.134,-1.011 -1.594,-1.254 -2.207,-0.358 -8.697,12.694 -7.658,15.399 -7.602,15.332 -11.055,13.496 -4.606,-2.449 -4.609,-2.332 0.306,-12.072 1.962,-3.887 3.566,-7.228 3.566,-7.426 0,-0.198 0.336,-0.838 0.748,-1.422 0.411,-0.584 0.882,-1.512 1.047,-2.062 0.165,-0.55 0.527,-1.27 0.805,-1.6 0.278,-0.33 0.64,-1.05 0.805,-1.6 0.165,-0.55 0.648,-1.495 1.074,-2.099 1.232,-1.749 0.832,-3.152 -1.173,-4.115 -0.931,-0.447 -1.912,-1.032 -2.18,-1.3 -0.267,-0.267 -0.796,-0.486 -1.175,-0.486 -2.432,0 -3.681,-2.833 -2.272,-5.153 1.718,-2.829 0.985,-3.017 14.321,3.681 m 122.261,1.937 c 0.253,0.202 0.583,0.854 0.732,1.449 0.149,0.595 0.478,1.33 0.73,1.634 0.252,0.304 1.21,2.015 2.129,3.802 11.048,21.493 10.48,20.734 13.649,18.242 0.554,-0.436 1.228,-0.792 1.499,-0.792 0.271,0 0.921,-0.335 1.446,-0.745 0.525,-0.41 1.404,-0.881 1.954,-1.047 0.55,-0.167 1.27,-0.527 1.6,-0.802 1.405,-1.168 2.696,-1.073 3.976,0.292 2.462,2.627 1.641,4.208 -3.576,6.888 -1.65,0.847 -3.72,1.954 -4.6,2.459 -0.88,0.506 -1.96,1.087 -2.4,1.291 -0.44,0.205 -1.25,0.583 -1.8,0.839 -2.411,1.125 -4.219,2.15 -4.457,2.526 -0.476,0.754 -2.353,-0.072 -2.757,-1.212 -0.212,-0.599 -0.561,-1.359 -0.775,-1.689 -0.214,-0.33 -1.131,-2.04 -2.038,-3.8 -2.017,-3.916 -2.801,-5.418 -3.236,-6.2 -0.184,-0.33 -1.152,-2.22 -2.151,-4.2 -1,-1.98 -2.695,-5.22 -3.768,-7.2 -4.873,-8.995 -4.894,-9.099 -2.118,-10.894 2.572,-1.663 4.576,-1.945 5.961,-0.841 m -18.126,7.327 c 0.326,0.326 0.718,1.361 0.873,2.3 0.154,0.939 0.597,2.428 0.984,3.308 0.386,0.88 0.822,2.388 0.968,3.35 0.146,0.963 0.478,2.133 0.737,2.6 0.462,0.833 1.331,3.711 2.541,8.414 0.334,1.3 0.846,2.83 1.137,3.4 0.292,0.57 0.663,1.846 0.824,2.836 0.162,0.99 0.485,2.16 0.72,2.6 1.7,3.197 1.485,6.576 -0.471,7.373 -3.962,1.613 -6.634,1.056 -7.071,-1.477 -0.299,-1.73 -1.998,-7.289 -2.813,-9.202 -0.306,-0.718 -0.673,-2.068 -0.816,-3 -0.143,-0.931 -0.595,-2.362 -1.004,-3.178 -0.409,-0.816 -0.752,-1.896 -0.762,-2.4 -0.009,-0.504 -0.297,-1.636 -0.639,-2.516 -0.342,-0.88 -0.856,-2.59 -1.142,-3.8 -0.285,-1.21 -0.788,-2.83 -1.116,-3.6 -0.328,-0.77 -0.72,-2.319 -0.87,-3.442 l -0.274,-2.042 1.729,-1.042 c 2.023,-1.219 5.471,-1.476 6.465,-0.482 m -71.028,2.227 c 11.945,2.512 16.189,7.824 13.507,16.908 -0.801,2.716 -3.977,6.204 -6.258,6.875 -1.714,0.503 -1.777,2.609 -0.179,5.986 0.563,1.189 1.024,2.489 1.026,2.887 0.001,0.399 0.36,1.265 0.797,1.925 0.437,0.66 0.796,1.435 0.797,1.722 0.002,0.287 0.37,1.328 0.819,2.313 1.072,2.354 0.859,2.567 -2.54,2.552 -3.574,-0.017 -5.719,-1.251 -6.602,-3.798 -0.303,-0.874 -0.893,-2.329 -1.312,-3.233 -0.419,-0.904 -0.762,-1.897 -0.762,-2.206 0,-0.309 -0.332,-1.189 -0.739,-1.956 -0.406,-0.767 -0.869,-1.934 -1.028,-2.594 -1.294,-5.357 -4.713,-4.103 -5.503,2.018 -1.035,8.019 -2.818,9.595 -8.114,7.172 l -2.294,-1.049 0.267,-1.471 c 0.147,-0.808 0.524,-2.241 0.839,-3.184 0.315,-0.943 0.572,-2.394 0.572,-3.225 0,-0.831 0.348,-2.849 0.774,-4.486 0.426,-1.636 0.902,-4.145 1.058,-5.575 0.157,-1.43 0.519,-3.272 0.806,-4.094 0.287,-0.821 0.723,-2.981 0.968,-4.8 0.57,-4.226 1.885,-8.601 2.734,-9.096 1.12,-0.654 6.28,-0.451 10.367,0.409 m 41.851,2.765 c 0.555,0.211 1.379,1.066 1.83,1.9 0.451,0.834 0.989,1.786 1.195,2.116 0.207,0.33 0.647,1.14 0.979,1.8 1.569,3.121 2.257,4.448 2.59,5 0.2,0.33 0.56,1.05 0.802,1.6 0.242,0.55 0.612,1.27 0.822,1.6 0.21,0.33 0.617,1.09 0.903,1.688 1.076,2.249 5.549,10.951 6.123,11.912 0.328,0.55 0.78,1.45 1.004,2 0.224,0.55 0.944,1.986 1.601,3.192 2,3.675 1.528,4.208 -3.736,4.208 -2.831,0 -5.027,-1.485 -5.06,-3.421 -0.006,-0.342 -0.581,-1.397 -1.278,-2.344 l -1.267,-1.723 -5.033,0.282 c -8.789,0.492 -10.134,0.978 -10.589,3.82 -0.786,4.917 -5.42,7.826 -8.944,5.614 -1.519,-0.954 -1.575,-1.327 -0.5,-3.332 0.44,-0.821 0.8,-1.787 0.8,-2.146 0,-0.614 1.229,-4.63 2.801,-9.15 1.469,-4.225 2.066,-6.068 2.591,-8 0.298,-1.1 0.846,-2.9 1.217,-4 0.371,-1.1 0.853,-2.54 1.071,-3.2 0.217,-0.66 0.56,-1.65 0.76,-2.2 0.201,-0.55 0.551,-1.767 0.779,-2.705 0.551,-2.268 2.45,-4.401 4.102,-4.607 2.453,-0.307 3.434,-0.285 4.437,0.096 m -44.476,3.664 c -1.068,0.395 -1.437,1.271 -2.088,4.952 -1.119,6.335 -0.726,6.928 4.631,6.977 6.126,0.057 7.77,-8.804 2.054,-11.073 -2.778,-1.102 -3.545,-1.245 -4.597,-0.856 m 41.127,11.652 c -0.259,1.155 -0.817,2.943 -1.24,3.974 -1.814,4.421 -1.199,5.181 3.604,4.459 1.885,-0.284 3.541,-0.52 3.68,-0.524 0.618,-0.021 0.607,-1.682 -0.017,-2.504 -0.377,-0.498 -1.305,-2.198 -2.061,-3.778 -1.159,-2.421 -2.334,-3.727 -3.354,-3.727 -0.078,0 -0.353,0.945 -0.612,2.1"
       stroke="none"
       fill="#0b3374"
       fill-rule="evenodd" />
  </g>
</svg>
